<?xml version="1.0" encoding="utf-8" standalone="yes"?>
<!DOCTYPE svg PUBLIC "-//W3C//DTD SVG 1.1//EN" "http://www.w3.org/Graphics/SVG/1.1/DTD/svg11.dtd">
<svg width="1122" height="960" viewBox="0 0 1122 960" style="fill:none;stroke:none;fill-rule:evenodd;clip-rule:evenodd;stroke-linecap:round;stroke-linejoin:round;stroke-miterlimit:1.5;" version="1.1" xmlns="http://www.w3.org/2000/svg" xmlns:xlink="http://www.w3.org/1999/xlink"><style class="text-font-style fontImports" data-font-family="Roboto">@import url(https://fonts.googleapis.com/css2?family=Roboto:wght@400;700&amp;amp;display=block);</style><g id="items" style="isolation: isolate"><g id="blend" style="mix-blend-mode: normal"><g id="g-root-cp_0_g-0_detmryi352iu-fill" data-item-order="-927925" transform="translate(356, 176)"></g><g id="g-root-cp_1_g-1_8z04nii353ba-fill" data-item-order="-927909" transform="translate(356, 770)"></g><g id="g-root-cp_2_g-2_8z04nii353bc-fill" data-item-order="-927905" transform="translate(446, 662)"></g><g id="g-root-cp_3_g-3_8z04nii353be-fill" data-item-order="-927901" transform="translate(536, 554)"></g><g id="g-root-cp_4_g-4_4j6mj2i3543o-fill" data-item-order="-927897" transform="translate(626, 446)"></g><g id="g-root-cp_5_g-5_4j6mj2i3543q-fill" data-item-order="-927893" transform="translate(716, 338)"></g><g id="g-root-cp_6_g-6_3zlhqi351q8-fill" data-item-order="-927889" transform="translate(806, 230)"></g><g id="g-root-cp_7_g-7_3zlhqi351qa-fill" data-item-order="-927885" transform="translate(896, 122)"></g><g id="g-root-cp_2_text-2_3zlhqi351qc-fill" data-item-order="-927867" transform="translate(170, 680)"></g><g id="g-root-cp_3_text-3_1q9gn7yi352bx-fill" data-item-order="-927855" transform="translate(260, 572)"></g><g id="g-root-cp_1_text-1_1q9gn7yi352by-fill" data-item-order="-927843" transform="translate(80, 794)"></g><g id="g-root-cp_4_text-4_1ltn53ii35347-fill" data-item-order="-927831" transform="translate(350, 464)"></g><g id="g-root-cp_5_text-5_1ltn53ii35348-fill" data-item-order="-927819" transform="translate(440, 356)"></g><g id="g-root-cp_6_text-6_1hdtmz2i353wh-fill" data-item-order="-927807" transform="translate(530, 248)"></g><g id="g-root-cp_7_text-7_1hdtmz2i353wi-fill" data-item-order="-927795" transform="translate(620, 140)"></g><g id="g-root-tx_regulari_1luw9lai3j4zu-fill" data-item-order="0" transform="translate(548, 248)"><g id="tx_regulari_1luw9lai3j4zu-fill" stroke="none" fill="#f79438"><g><text style="font-style: normal; font-variant-caps: normal; font-weight: normal; font-stretch: normal; font-size: 15px; line-height: normal; font-family: Roboto, sans-serif; font-size-adjust: none; font-kerning: auto; font-variant-alternates: normal; font-variant-ligatures: normal; font-variant-numeric: normal; font-variant-east-asian: normal; font-variant-position: normal; font-variant-emoji: normal; font-feature-settings: normal; font-optical-sizing: auto; font-variation-settings: normal; white-space: pre;"><tspan x="12" y="31" dominant-baseline="ideographic">Regularize Model</tspan></text></g></g></g><g id="g-root-tx_applylea_v7crrii3j2tr-fill" data-item-order="0" transform="translate(458, 356)"><g id="tx_applylea_v7crrii3j2tr-fill" stroke="none" fill="#ffe711"><g><text style="font-style: normal; font-variant-caps: normal; font-weight: normal; font-stretch: normal; font-size: 15px; line-height: normal; font-family: Roboto, sans-serif; font-size-adjust: none; font-kerning: auto; font-variant-alternates: normal; font-variant-ligatures: normal; font-variant-numeric: normal; font-variant-east-asian: normal; font-variant-position: normal; font-variant-emoji: normal; font-feature-settings: normal; font-optical-sizing: auto; font-variation-settings: normal; white-space: pre;"><tspan x="12" y="31" dominant-baseline="ideographic">Apply Learning Rate</tspan></text></g></g></g><g id="g-root-ic_cont_5v3wui3dgqx-fill" data-item-order="0" transform="translate(782, 368)"></g><g id="g-root-tx_controlt_mbprimi3j4e8-fill" data-item-order="0" transform="translate(458, 392)"><g id="tx_controlt_mbprimi3j4e8-fill" stroke="none" fill="#f4f4f4"><g><text style="font-style: normal; font-variant-caps: normal; font-weight: normal; font-stretch: normal; font-size: 15px; line-height: normal; font-family: Roboto, sans-serif; font-size-adjust: none; font-kerning: auto; font-variant-alternates: normal; font-variant-ligatures: normal; font-variant-numeric: normal; font-variant-east-asian: normal; font-variant-position: normal; font-variant-emoji: normal; font-feature-settings: normal; font-optical-sizing: auto; font-variation-settings: normal; white-space: pre;"><tspan x="12" y="28" dominant-baseline="ideographic">Control the impact of each learner </tspan><tspan x="12" y="46" dominant-baseline="ideographic">to prevent overfitting.</tspan></text></g></g></g><g id="g-root-tx_startwit_1cw4vwui3j5du-fill" data-item-order="0" transform="translate(98, 830)"><g id="tx_startwit_1cw4vwui3j5du-fill" stroke="none" fill="#f4f4f4"><g><text style="font-style: normal; font-variant-caps: normal; font-weight: normal; font-stretch: normal; font-size: 15px; line-height: normal; font-family: Roboto, sans-serif; font-size-adjust: none; font-kerning: auto; font-variant-alternates: normal; font-variant-ligatures: normal; font-variant-numeric: normal; font-variant-east-asian: normal; font-variant-position: normal; font-variant-emoji: normal; font-feature-settings: normal; font-optical-sizing: auto; font-variation-settings: normal; white-space: pre;"><tspan x="12" y="28" dominant-baseline="ideographic">Start with a basic model to set the </tspan><tspan x="12" y="46" dominant-baseline="ideographic">foundation.</tspan></text></g></g></g><g id="g-root-tx_4_18i6t1qi3j4em-fill" data-item-order="0" transform="translate(296, 464)"><g id="tx_4_18i6t1qi3j4em-fill" stroke="none" fill="#a6da37"><g><text style="font-style: normal; font-variant-caps: normal; font-weight: normal; font-stretch: normal; font-size: 30px; line-height: normal; font-family: Roboto, sans-serif; font-size-adjust: none; font-kerning: auto; font-variant-alternates: normal; font-variant-ligatures: normal; font-variant-numeric: normal; font-variant-east-asian: normal; font-variant-position: normal; font-variant-emoji: normal; font-feature-settings: normal; font-optical-sizing: auto; font-variation-settings: normal; white-space: pre;"><tspan x="13.57" y="45" dominant-baseline="ideographic">4</tspan></text></g></g></g><g id="g-root-tx_6_qss7tai3j5s4-fill" data-item-order="0" transform="translate(476, 248)"><g id="tx_6_qss7tai3j5s4-fill" stroke="none" fill="#f79438"><g><text style="font-style: normal; font-variant-caps: normal; font-weight: normal; font-stretch: normal; font-size: 30px; line-height: normal; font-family: Roboto, sans-serif; font-size-adjust: none; font-kerning: auto; font-variant-alternates: normal; font-variant-ligatures: normal; font-variant-numeric: normal; font-variant-east-asian: normal; font-variant-position: normal; font-variant-emoji: normal; font-feature-settings: normal; font-optical-sizing: auto; font-variation-settings: normal; white-space: pre;"><tspan x="13.57" y="45" dominant-baseline="ideographic">6</tspan></text></g></g></g><g id="g-root-tx_updatemo_8z0az2i3j3t0-fill" data-item-order="0" transform="translate(368, 464)"><g id="tx_updatemo_8z0az2i3j3t0-fill" stroke="none" fill="#a6da37"><g><text style="font-style: normal; font-variant-caps: normal; font-weight: normal; font-stretch: normal; font-size: 15px; line-height: normal; font-family: Roboto, sans-serif; font-size-adjust: none; font-kerning: auto; font-variant-alternates: normal; font-variant-ligatures: normal; font-variant-numeric: normal; font-variant-east-asian: normal; font-variant-position: normal; font-variant-emoji: normal; font-feature-settings: normal; font-optical-sizing: auto; font-variation-settings: normal; white-space: pre;"><tspan x="12" y="31" dominant-baseline="ideographic">Update Model</tspan></text></g></g></g><g id="g-root-ic_3_me7kpai39a15-fill" data-item-order="0" transform="translate(692, 476)"></g><g id="g-root-tx_addthele_1uonukui3j56t-fill" data-item-order="0" transform="translate(368, 500)"><g id="tx_addthele_1uonukui3j56t-fill" stroke="none" fill="#f4f4f4"><g><text style="font-style: normal; font-variant-caps: normal; font-weight: normal; font-stretch: normal; font-size: 15px; line-height: normal; font-family: Roboto, sans-serif; font-size-adjust: none; font-kerning: auto; font-variant-alternates: normal; font-variant-ligatures: normal; font-variant-numeric: normal; font-variant-east-asian: normal; font-variant-position: normal; font-variant-emoji: normal; font-feature-settings: normal; font-optical-sizing: auto; font-variation-settings: normal; white-space: pre;"><tspan x="12" y="28" dominant-baseline="ideographic">Add the learner's predictions to the </tspan><tspan x="12" y="46" dominant-baseline="ideographic">ensemble.</tspan></text></g></g></g><g id="g-root-tx_stopwhen_1lwroumi3j406-fill" data-item-order="0" transform="translate(638, 176)"><g id="tx_stopwhen_1lwroumi3j406-fill" stroke="none" fill="#f4f4f4"><g><text style="font-style: normal; font-variant-caps: normal; font-weight: normal; font-stretch: normal; font-size: 15px; line-height: normal; font-family: Roboto, sans-serif; font-size-adjust: none; font-kerning: auto; font-variant-alternates: normal; font-variant-ligatures: normal; font-variant-numeric: normal; font-variant-east-asian: normal; font-variant-position: normal; font-variant-emoji: normal; font-feature-settings: normal; font-optical-sizing: auto; font-variation-settings: normal; white-space: pre;"><tspan x="12" y="28" dominant-baseline="ideographic">Stop when the model meets the </tspan><tspan x="12" y="46" dominant-baseline="ideographic">stopping criteria.</tspan></text></g></g></g><g id="g-root-tx_3_4o6ljii3hpu1-fill" data-item-order="0" transform="translate(206, 572)"><g id="tx_3_4o6ljii3hpu1-fill" stroke="none" fill="#43dd93"><g><text style="font-style: normal; font-variant-caps: normal; font-weight: normal; font-stretch: normal; font-size: 30px; line-height: normal; font-family: Roboto, sans-serif; font-size-adjust: none; font-kerning: auto; font-variant-alternates: normal; font-variant-ligatures: normal; font-variant-numeric: normal; font-variant-east-asian: normal; font-variant-position: normal; font-variant-emoji: normal; font-feature-settings: normal; font-optical-sizing: auto; font-variation-settings: normal; white-space: pre;"><tspan x="13.57" y="45" dominant-baseline="ideographic">3</tspan></text></g></g></g><g id="g-root-ic_mile_1uqj6oei3q420-fill" data-item-order="0" transform="translate(962, 152)"></g><g id="g-root-tx_trainwea_1uqj9u6i3hq13-fill" data-item-order="0" transform="translate(278, 572)"><g id="tx_trainwea_1uqj9u6i3hq13-fill" stroke="none" fill="#43dd93"><g><text style="font-style: normal; font-variant-caps: normal; font-weight: normal; font-stretch: normal; font-size: 15px; line-height: normal; font-family: Roboto, sans-serif; font-size-adjust: none; font-kerning: auto; font-variant-alternates: normal; font-variant-ligatures: normal; font-variant-numeric: normal; font-variant-east-asian: normal; font-variant-position: normal; font-variant-emoji: normal; font-feature-settings: normal; font-optical-sizing: auto; font-variation-settings: normal; white-space: pre;"><tspan x="12" y="31" dominant-baseline="ideographic">Train Weak Learner</tspan></text></g></g></g><g id="g-root-ic_root_13zv89ai3g9ok-fill" data-item-order="0" transform="translate(602, 584)"></g><g id="g-root-tx_developa_qunn2mi3hqm8-fill" data-item-order="0" transform="translate(278, 608)"><g id="tx_developa_qunn2mi3hqm8-fill" stroke="none" fill="#f4f4f4"><g><text style="font-style: normal; font-variant-caps: normal; font-weight: normal; font-stretch: normal; font-size: 15px; line-height: normal; font-family: Roboto, sans-serif; font-size-adjust: none; font-kerning: auto; font-variant-alternates: normal; font-variant-ligatures: normal; font-variant-numeric: normal; font-variant-east-asian: normal; font-variant-position: normal; font-variant-emoji: normal; font-feature-settings: normal; font-optical-sizing: auto; font-variation-settings: normal; white-space: pre;"><tspan x="12" y="28" dominant-baseline="ideographic">Develop a simple model to correct </tspan><tspan x="12" y="46" dominant-baseline="ideographic">errors.</tspan></text></g></g></g><g id="g-root-tx_terminat_4mb6a6i3j4zx-fill" data-item-order="0" transform="translate(638, 140)"><g id="tx_terminat_4mb6a6i3j4zx-fill" stroke="none" fill="#fb6762"><g><text style="font-style: normal; font-variant-caps: normal; font-weight: normal; font-stretch: normal; font-size: 15px; line-height: normal; font-family: Roboto, sans-serif; font-size-adjust: none; font-kerning: auto; font-variant-alternates: normal; font-variant-ligatures: normal; font-variant-numeric: normal; font-variant-east-asian: normal; font-variant-position: normal; font-variant-emoji: normal; font-feature-settings: normal; font-optical-sizing: auto; font-variation-settings: normal; white-space: pre;"><tspan x="12" y="31" dominant-baseline="ideographic">Terminate Iteration</tspan></text></g></g></g><g id="g-root-tx_2_90vq8ei3hona-fill" data-item-order="0" transform="translate(116, 680)"><g id="tx_2_90vq8ei3hona-fill" stroke="none" fill="#1ac3fb"><g><text style="font-style: normal; font-variant-caps: normal; font-weight: normal; font-stretch: normal; font-size: 30px; line-height: normal; font-family: Roboto, sans-serif; font-size-adjust: none; font-kerning: auto; font-variant-alternates: normal; font-variant-ligatures: normal; font-variant-numeric: normal; font-variant-east-asian: normal; font-variant-position: normal; font-variant-emoji: normal; font-feature-settings: normal; font-optical-sizing: auto; font-variation-settings: normal; white-space: pre;"><tspan x="13.57" y="45" dominant-baseline="ideographic">2</tspan></text></g></g></g><g id="g-root-ic_1_zrjibyi3ncwa-fill" data-item-order="0" transform="translate(872, 260)"></g><g id="g-root-tx_calculat_m9uc9ai3hr7u-fill" data-item-order="0" transform="translate(188, 680)"><g id="tx_calculat_m9uc9ai3hr7u-fill" stroke="none" fill="#1ac3fb"><g><text style="font-style: normal; font-variant-caps: normal; font-weight: normal; font-stretch: normal; font-size: 15px; line-height: normal; font-family: Roboto, sans-serif; font-size-adjust: none; font-kerning: auto; font-variant-alternates: normal; font-variant-ligatures: normal; font-variant-numeric: normal; font-variant-east-asian: normal; font-variant-position: normal; font-variant-emoji: normal; font-feature-settings: normal; font-optical-sizing: auto; font-variation-settings: normal; white-space: pre;"><tspan x="12" y="31" dominant-baseline="ideographic">Calculate Residuals</tspan></text></g></g></g><g id="g-root-ic_page_1hfp28ei3c3d7-fill" data-item-order="0" transform="translate(512, 692)"></g><g id="g-root-tx_determin_1uonukui3hr0r-fill" data-item-order="0" transform="translate(188, 716)"><g id="tx_determin_1uonukui3hr0r-fill" stroke="none" fill="#f4f4f4"><g><text style="font-style: normal; font-variant-caps: normal; font-weight: normal; font-stretch: normal; font-size: 15px; line-height: normal; font-family: Roboto, sans-serif; font-size-adjust: none; font-kerning: auto; font-variant-alternates: normal; font-variant-ligatures: normal; font-variant-numeric: normal; font-variant-east-asian: normal; font-variant-position: normal; font-variant-emoji: normal; font-feature-settings: normal; font-optical-sizing: auto; font-variation-settings: normal; white-space: pre;"><tspan x="12" y="28" dominant-baseline="ideographic">Determine the errors to guide the </tspan><tspan x="12" y="46" dominant-baseline="ideographic">next learner.</tspan></text></g></g></g><g id="g-root-tx_7_vah572i3j407-fill" data-item-order="0" transform="translate(566, 140)"><g id="tx_7_vah572i3j407-fill" stroke="none" fill="#fb6762"><g><text style="font-style: normal; font-variant-caps: normal; font-weight: normal; font-stretch: normal; font-size: 30px; line-height: normal; font-family: Roboto, sans-serif; font-size-adjust: none; font-kerning: auto; font-variant-alternates: normal; font-variant-ligatures: normal; font-variant-numeric: normal; font-variant-east-asian: normal; font-variant-position: normal; font-variant-emoji: normal; font-feature-settings: normal; font-optical-sizing: auto; font-variation-settings: normal; white-space: pre;"><tspan x="13.57" y="45" dominant-baseline="ideographic">7</tspan></text></g></g></g><g id="g-root-tx_1_qpnudqi3j4ln-fill" data-item-order="0" transform="translate(26, 794)"><g id="tx_1_qpnudqi3j4ln-fill" stroke="none" fill="#4f91fc"><g><text style="font-style: normal; font-variant-caps: normal; font-weight: normal; font-stretch: normal; font-size: 30px; line-height: normal; font-family: Roboto, sans-serif; font-size-adjust: none; font-kerning: auto; font-variant-alternates: normal; font-variant-ligatures: normal; font-variant-numeric: normal; font-variant-east-asian: normal; font-variant-position: normal; font-variant-emoji: normal; font-feature-settings: normal; font-optical-sizing: auto; font-variation-settings: normal; white-space: pre;"><tspan x="13.57" y="45" dominant-baseline="ideographic">1</tspan></text></g></g></g><g id="g-root-tx_stepstog_18it3tai351jf-fill" data-item-order="0" transform="translate(395, 38)"><g id="tx_stepstog_18it3tai351jf-fill" stroke="none" fill="#f4f4f4"><g><text style="font-style: normal; font-variant-caps: normal; font-weight: bold; font-stretch: normal; font-size: 25px; line-height: normal; font-family: Roboto, sans-serif; font-size-adjust: none; font-kerning: auto; font-variant-alternates: normal; font-variant-ligatures: normal; font-variant-numeric: normal; font-variant-east-asian: normal; font-variant-position: normal; font-variant-emoji: normal; font-feature-settings: normal; font-optical-sizing: auto; font-variation-settings: normal; white-space: pre;"><tspan x="15.15" y="42" dominant-baseline="ideographic">Steps to Gradient Boosting</tspan></text></g></g></g><g id="g-root-tx_initiali_1unewemi3j30p-fill" data-item-order="0" transform="translate(98, 794)"><g id="tx_initiali_1unewemi3j30p-fill" stroke="none" fill="#4f91fc"><g><text style="font-style: normal; font-variant-caps: normal; font-weight: normal; font-stretch: normal; font-size: 15px; line-height: normal; font-family: Roboto, sans-serif; font-size-adjust: none; font-kerning: auto; font-variant-alternates: normal; font-variant-ligatures: normal; font-variant-numeric: normal; font-variant-east-asian: normal; font-variant-position: normal; font-variant-emoji: normal; font-feature-settings: normal; font-optical-sizing: auto; font-variation-settings: normal; white-space: pre;"><tspan x="12" y="31" dominant-baseline="ideographic">Initialize Model</tspan></text></g></g></g><g id="g-root-ic_boar_hwik5qi351jg-fill" data-item-order="0" transform="translate(422, 800)"></g><g id="g-root-tx_usetechn_1448q6mi3j477-fill" data-item-order="0" transform="translate(548, 284)"><g id="tx_usetechn_1448q6mi3j477-fill" stroke="none" fill="#f4f4f4"><g><text style="font-style: normal; font-variant-caps: normal; font-weight: normal; font-stretch: normal; font-size: 15px; line-height: normal; font-family: Roboto, sans-serif; font-size-adjust: none; font-kerning: auto; font-variant-alternates: normal; font-variant-ligatures: normal; font-variant-numeric: normal; font-variant-east-asian: normal; font-variant-position: normal; font-variant-emoji: normal; font-feature-settings: normal; font-optical-sizing: auto; font-variation-settings: normal; white-space: pre;"><tspan x="12" y="28" dominant-baseline="ideographic">Use techniques to ensure the </tspan><tspan x="12" y="46" dominant-baseline="ideographic">model's robustness.</tspan></text></g></g></g><g id="g-root-tx_5_58pzii3j3m1-fill" data-item-order="0" transform="translate(386, 356)"><g id="tx_5_58pzii3j3m1-fill" stroke="none" fill="#ffe711"><g><text style="font-style: normal; font-variant-caps: normal; font-weight: normal; font-stretch: normal; font-size: 30px; line-height: normal; font-family: Roboto, sans-serif; font-size-adjust: none; font-kerning: auto; font-variant-alternates: normal; font-variant-ligatures: normal; font-variant-numeric: normal; font-variant-east-asian: normal; font-variant-position: normal; font-variant-emoji: normal; font-feature-settings: normal; font-optical-sizing: auto; font-variation-settings: normal; white-space: pre;"><tspan x="13.57" y="45" dominant-baseline="ideographic">5</tspan></text></g></g></g><g id="g-root-cp_0_g-0_detmryi352iu-stroke" data-item-order="-927925" transform="translate(356, 176)"><g id="cp_0_g-0_detmryi352iu-stroke" fill="none" stroke-linecap="round" stroke-linejoin="round" stroke-miterlimit="4" stroke="#f4f4f4" stroke-width="2"><g><path d="M 730 10L 640 64L 640 118L 550 172L 550 226L 460 280L 460 334L 370 388.0029L 370 442L 280 496L 280 550L 190 604L 190 658L 100 712L 10 658L 10 673.6089L 100 727.6089L 202 666.1089L 202 612.009L 292 558L 292 504.009L 382 449.9815L 382 396.0119L 472 341.9996L 472 288.0089L 562 234.0035L 562 176.4L 652 125.9943L 652 72.0089L 730 25.6089L 730 10Z"></path></g></g><g id="cp_0_g-0_detmryi352iu-stroke" fill="none" stroke-linecap="round" stroke-linejoin="round" stroke-miterlimit="4" stroke="#f4f4f4" stroke-width="2"><g><path d="M 640 64L 550 10L 550 64L 640 118L 640 64Z"></path></g></g><g id="cp_0_g-0_detmryi352iu-stroke" fill="none" stroke-linecap="round" stroke-linejoin="round" stroke-miterlimit="4" stroke="#f4f4f4" stroke-width="2"><g><path d="M 550 172L 460 118L 460 172L 550 226L 550 172Z"></path></g></g><g id="cp_0_g-0_detmryi352iu-stroke" fill="none" stroke-linecap="round" stroke-linejoin="round" stroke-miterlimit="4" stroke="#f4f4f4" stroke-width="2"><g><path d="M 460 280L 370 226L 370 280L 460 334L 460 280Z"></path></g></g><g id="cp_0_g-0_detmryi352iu-stroke" fill="none" stroke-linecap="round" stroke-linejoin="round" stroke-miterlimit="4" stroke="#f4f4f4" stroke-width="2"><g><path d="M 370 388L 280 334L 280 388L 370 442L 370 388Z"></path></g></g><g id="cp_0_g-0_detmryi352iu-stroke" fill="none" stroke-linecap="round" stroke-linejoin="round" stroke-miterlimit="4" stroke="#f4f4f4" stroke-width="2"><g><path d="M 280 496L 190 442L 190 496L 280 550L 280 496Z"></path></g></g><g id="cp_0_g-0_detmryi352iu-stroke" fill="none" stroke-linecap="round" stroke-linejoin="round" stroke-miterlimit="4" stroke="#f4f4f4" stroke-width="2"><g><path d="M 190 604L 100 550L 100 605L 190 658L 190 604Z"></path></g></g></g><g id="g-root-cp_1_g-1_8z04nii353ba-stroke" data-item-order="-927909" transform="translate(356, 770)"><g id="cp_1_g-1_8z04nii353ba-stroke" fill="none" stroke-linecap="round" stroke-linejoin="round" stroke-miterlimit="4" stroke="#4f91fc" stroke-width="2"><g><path d="M 100 10L 10 64L 100 118L 190 64L 100 10ZM 29 64L 100 22L 171 64L 100 106L 29 64Z"></path></g></g></g><g id="g-root-cp_2_g-2_8z04nii353bc-stroke" data-item-order="-927905" transform="translate(446, 662)"><g id="cp_2_g-2_8z04nii353bc-stroke" fill="none" stroke-linecap="round" stroke-linejoin="round" stroke-miterlimit="4" stroke="#1ac3fb" stroke-width="2"><g><path d="M 100 10L 10 64L 100 118L 190 64L 100 10ZM 29 64L 100 22L 171 64L 100 106L 29 64Z"></path></g></g></g><g id="g-root-cp_3_g-3_8z04nii353be-stroke" data-item-order="-927901" transform="translate(536, 554)"><g id="cp_3_g-3_8z04nii353be-stroke" fill="none" stroke-linecap="round" stroke-linejoin="round" stroke-miterlimit="4" stroke="#43dd93" stroke-width="2"><g><path d="M 100 10L 10 64L 100 118L 190 64L 100 10ZM 29 64L 100 22L 171 64L 100 106L 29 64Z"></path></g></g></g><g id="g-root-cp_4_g-4_4j6mj2i3543o-stroke" data-item-order="-927897" transform="translate(626, 446)"><g id="cp_4_g-4_4j6mj2i3543o-stroke" fill="none" stroke-linecap="round" stroke-linejoin="round" stroke-miterlimit="4" stroke="#a6da37" stroke-width="2"><g><path d="M 100 10L 10 64L 100 118L 190 64L 100 10ZM 29 64L 100 22L 171 64L 100 106L 29 64Z"></path></g></g></g><g id="g-root-cp_5_g-5_4j6mj2i3543q-stroke" data-item-order="-927893" transform="translate(716, 338)"><g id="cp_5_g-5_4j6mj2i3543q-stroke" fill="none" stroke-linecap="round" stroke-linejoin="round" stroke-miterlimit="4" stroke="#ffe711" stroke-width="2"><g><path d="M 100 10L 10 64L 100 118L 190 64L 100 10ZM 29 64L 100 22L 171 64L 100 106L 29 64Z"></path></g></g></g><g id="g-root-cp_6_g-6_3zlhqi351q8-stroke" data-item-order="-927889" transform="translate(806, 230)"><g id="cp_6_g-6_3zlhqi351q8-stroke" fill="none" stroke-linecap="round" stroke-linejoin="round" stroke-miterlimit="4" stroke="#f79438" stroke-width="2"><g><path d="M 100 10L 10 64L 100 118L 190 64L 100 10ZM 29 64L 100 22L 171 64L 100 106L 29 64Z"></path></g></g></g><g id="g-root-cp_7_g-7_3zlhqi351qa-stroke" data-item-order="-927885" transform="translate(896, 122)"><g id="cp_7_g-7_3zlhqi351qa-stroke" fill="none" stroke-linecap="round" stroke-linejoin="round" stroke-miterlimit="4" stroke="#fb6762" stroke-width="2"><g><path d="M 100 10L 10 64L 100 118L 190 64L 100 10ZM 29 64L 100 22L 171 64L 100 106L 29 64Z"></path></g></g></g><g id="g-root-cp_2_text-2_3zlhqi351qc-stroke" data-item-order="-927867" transform="translate(170, 680)"><g id="cp_2_text-2_3zlhqi351qc-stroke" fill="none" stroke-linecap="round" stroke-linejoin="round" stroke-miterlimit="4" stroke="#1ac3fb" stroke-width="2"><g><path d="M 10 10L 16 10L 16 82L 10 82Z"></path></g></g></g><g id="g-root-cp_3_text-3_1q9gn7yi352bx-stroke" data-item-order="-927855" transform="translate(260, 572)"><g id="cp_3_text-3_1q9gn7yi352bx-stroke" fill="none" stroke-linecap="round" stroke-linejoin="round" stroke-miterlimit="4" stroke="#43dd93" stroke-width="2"><g><path d="M 10 10L 16 10L 16 82L 10 82Z"></path></g></g></g><g id="g-root-cp_1_text-1_1q9gn7yi352by-stroke" data-item-order="-927843" transform="translate(80, 794)"><g id="cp_1_text-1_1q9gn7yi352by-stroke" fill="none" stroke-linecap="round" stroke-linejoin="round" stroke-miterlimit="4" stroke="#4f91fc" stroke-width="2"><g><path d="M 10 10L 16 10L 16 82L 10 82Z"></path></g></g></g><g id="g-root-cp_4_text-4_1ltn53ii35347-stroke" data-item-order="-927831" transform="translate(350, 464)"><g id="cp_4_text-4_1ltn53ii35347-stroke" fill="none" stroke-linecap="round" stroke-linejoin="round" stroke-miterlimit="4" stroke="#a6da37" stroke-width="2"><g><path d="M 10 10L 16 10L 16 82L 10 82Z"></path></g></g></g><g id="g-root-cp_5_text-5_1ltn53ii35348-stroke" data-item-order="-927819" transform="translate(440, 356)"><g id="cp_5_text-5_1ltn53ii35348-stroke" fill="none" stroke-linecap="round" stroke-linejoin="round" stroke-miterlimit="4" stroke="#ffe711" stroke-width="2"><g><path d="M 10 10L 16 10L 16 82L 10 82Z"></path></g></g></g><g id="g-root-cp_6_text-6_1hdtmz2i353wh-stroke" data-item-order="-927807" transform="translate(530, 248)"><g id="cp_6_text-6_1hdtmz2i353wh-stroke" fill="none" stroke-linecap="round" stroke-linejoin="round" stroke-miterlimit="4" stroke="#f79438" stroke-width="2"><g><path d="M 10 10L 16 10L 16 82L 10 82Z"></path></g></g></g><g id="g-root-cp_7_text-7_1hdtmz2i353wi-stroke" data-item-order="-927795" transform="translate(620, 140)"><g id="cp_7_text-7_1hdtmz2i353wi-stroke" fill="none" stroke-linecap="round" stroke-linejoin="round" stroke-miterlimit="4" stroke="#fb6762" stroke-width="2"><g><path d="M 10 10L 16 10L 16 82L 10 82Z"></path></g></g></g><g id="g-root-tx_regulari_1luw9lai3j4zu-stroke" data-item-order="0" transform="translate(548, 248)"></g><g id="g-root-tx_applylea_v7crrii3j2tr-stroke" data-item-order="0" transform="translate(458, 356)"></g><g id="g-root-ic_cont_5v3wui3dgqx-stroke" data-item-order="0" transform="translate(782, 368)"><g id="ic_cont_5v3wui3dgqx-stroke" fill="none" stroke-linecap="round" stroke-linejoin="round" stroke-miterlimit="4" stroke="#ffe711" stroke-width="2"><g><path d="M 11.5 52.099998C 11.5 39.700001 21.5446 29.699961 34 29.699961C 46.455399 29.699961 56.5 39.700001 56.5 52.099998M 34 55.700001C 35.656799 55.700001 37 54.3568 37 52.700001C 37 51.042999 35.656799 49.700001 34 49.700001C 32.343201 49.700001 31 51.042999 31 52.700001C 31 54.3568 32.343201 55.700001 34 55.700001ZM 10 10M 28.300039 37.099998L 32.900002 49.900002M 10 10M 39.700001 37.099998L 38.700001 39.900002M 10 10M 48.400002 44.5L 45.400002 46.299999M 10 10M 19.599979 44.5L 22.599979 46.299999M 10 10M 50.400002 55.5L 47.400002 55.099998M 10 10M 17.599979 55.5L 20.599979 55.099998M 10 10M 19.599979 12.30004L 24.123959 23.729099M 10 10M 18 21.90004L 24 23.90004L 27.20002 18.300041"></path></g></g></g><g id="g-root-tx_controlt_mbprimi3j4e8-stroke" data-item-order="0" transform="translate(458, 392)"></g><g id="g-root-tx_startwit_1cw4vwui3j5du-stroke" data-item-order="0" transform="translate(98, 830)"></g><g id="g-root-tx_4_18i6t1qi3j4em-stroke" data-item-order="0" transform="translate(296, 464)"></g><g id="g-root-tx_6_qss7tai3j5s4-stroke" data-item-order="0" transform="translate(476, 248)"></g><g id="g-root-tx_updatemo_8z0az2i3j3t0-stroke" data-item-order="0" transform="translate(368, 464)"></g><g id="g-root-ic_3_me7kpai39a15-stroke" data-item-order="0" transform="translate(692, 476)"><g id="ic_3_me7kpai39a15-stroke" fill="none" stroke-linecap="round" stroke-linejoin="round" stroke-miterlimit="4" stroke="#a6da37" stroke-width="2"><g><path d="M 29.436001 43.515999L 15.646 43.515999C 13.080085 43.515999 11 41.435913 11 38.869999L 11 27.257999L 16.799999 27.257999C 16.800167 25.333958 18.359959 23.774303 20.284 23.774303C 22.208042 23.774303 23.767832 25.333958 23.768 27.257999L 29.568001 27.257999L 29.568001 36.986M 11 27.257999L 11 15.646C 11 13.080085 13.080085 11 15.646 11L 29.58 11L 29.58 15.646C 30.844254 15.615703 32.025658 16.272852 32.666695 17.362957C 33.307728 18.453064 33.307728 19.804935 32.666695 20.895042C 32.025658 21.985147 30.844254 22.642298 29.58 22.612L 29.58 27.257999M 41.548 27.257999L 29.58 27.257999M 29.58 11L 42.354 11C 44.919914 11 47 13.080085 47 15.646L 47 27.257999M 33 45C 33 51.627419 38.372581 57 45 57C 51.627419 57 57 51.627419 57 45C 57 38.372581 51.627419 33 45 33C 38.372581 33 33 38.372581 33 45M 48 50.200001C 46.143593 51.271797 43.856407 51.271797 42 50.200001M 45 33C 46.656857 33 48 34.343147 48 36C 48 37.656853 46.656857 39 45 39M 50.25 42C 50.664215 42 51 42.335789 51 42.75M 49.5 42.75C 49.5 42.335789 49.835789 42 50.25 42M 50.25 43.5C 49.835789 43.5 49.5 43.164215 49.5 42.75M 51 42.75C 51 43.164215 50.664215 43.5 50.25 43.5M 39.75 42C 40.164215 42 40.5 42.335789 40.5 42.75M 39 42.75C 39 42.335789 39.335785 42 39.75 42M 39.75 43.5C 39.335785 43.5 39 43.164215 39 42.75M 40.5 42.75C 40.5 43.164215 40.164215 43.5 39.75 43.5"></path></g></g></g><g id="g-root-tx_addthele_1uonukui3j56t-stroke" data-item-order="0" transform="translate(368, 500)"></g><g id="g-root-tx_stopwhen_1lwroumi3j406-stroke" data-item-order="0" transform="translate(638, 176)"></g><g id="g-root-tx_3_4o6ljii3hpu1-stroke" data-item-order="0" transform="translate(206, 572)"></g><g id="g-root-ic_mile_1uqj6oei3q420-stroke" data-item-order="0" transform="translate(962, 152)"><g id="ic_mile_1uqj6oei3q420-stroke" fill="none" stroke-linecap="round" stroke-linejoin="round" stroke-miterlimit="4" stroke="#fb6762" stroke-width="2"><g><path d="M 11 47.212002L 17.852001 47.212002M 46.234001 47.212002L 57 47.212002M 25.68 47.212002L 38.403999 47.212002M 53.216 43.298L 57 47.212002L 53.216 51.127998M 17.852001 47.212002C 17.852001 49.373642 19.604359 51.125999 21.765999 51.125999C 23.927643 51.125999 25.68 49.373642 25.68 47.212002C 25.68 45.050358 23.927643 43.298 21.765999 43.298C 19.604359 43.298 17.852001 45.050358 17.852001 47.212002M 38.405998 47.212002C 38.405998 49.373642 40.158356 51.125999 42.32 51.125999C 44.481644 51.125999 46.234001 49.373642 46.234001 47.212002C 46.234001 45.050358 44.481644 43.298 42.32 43.298C 40.158356 43.298 38.405998 45.050358 38.405998 47.212002M 42.32 43.298L 42.32 17.852001M 21.765999 43.298L 21.765999 16.872M 21.765999 16.872L 33.510002 24.552L 21.765999 30.950001M 42.32 17.852001L 54.063999 25.529999L 42.32 31.93"></path></g></g></g><g id="g-root-tx_trainwea_1uqj9u6i3hq13-stroke" data-item-order="0" transform="translate(278, 572)"></g><g id="g-root-ic_root_13zv89ai3g9ok-stroke" data-item-order="0" transform="translate(602, 584)"><g id="ic_root_13zv89ai3g9ok-stroke" fill="none" stroke-linecap="round" stroke-linejoin="round" stroke-miterlimit="4" stroke="#43dd93" stroke-width="2"><g><path d="M 11 34.031998L 57 34.031998M 54.368 13.032C 54.368 13.032 49.125999 26.444 41.200001 23.348C 39.201344 22.609142 37.757355 20.848717 37.423691 18.744146C 37.090031 16.639576 37.91869 14.518841 39.590801 13.19801C 41.262909 11.877179 43.517887 11.562094 45.488003 12.374001C 48.366005 13.230644 51.395168 13.455102 54.368 13.032ZM 35 23.032C 37.454308 19.563122 41.403919 17.458542 45.652 17.355999M 15.632 13.032C 15.632 13.032 20.872 26.444 28.799999 23.348C 30.790848 22.603203 32.226196 20.843826 32.556091 18.743977C 32.885986 16.644127 32.059277 14.529372 30.392721 13.209983C 28.726164 11.890594 26.478148 11.571133 24.510002 12.374001C 21.632627 13.230354 18.604179 13.45481 15.632 13.032ZM 24.348 17.355999C 28.596083 17.458542 32.545696 19.563122 35 23.032001L 35 56.032001M 35 48.032001L 31 48.032001C 29.89543 48.032001 29 48.927429 29 50.032001L 29 54.032001M 43 54.032001L 43 45.032001C 43 43.375145 41.656853 42.032001 40 42.032001L 27 42.032001C 24.793596 42.038589 23.00659 43.825596 23 46.032001L 23 53.032001M 43 48.032001L 45 48.032001C 46.104568 48.032001 47 48.927429 47 50.032001L 47 52.032001M 23 47.032001L 19 49.032001"></path></g></g></g><g id="g-root-tx_developa_qunn2mi3hqm8-stroke" data-item-order="0" transform="translate(278, 608)"></g><g id="g-root-tx_terminat_4mb6a6i3j4zx-stroke" data-item-order="0" transform="translate(638, 140)"></g><g id="g-root-tx_2_90vq8ei3hona-stroke" data-item-order="0" transform="translate(116, 680)"></g><g id="g-root-ic_1_zrjibyi3ncwa-stroke" data-item-order="0" transform="translate(872, 260)"><g id="ic_1_zrjibyi3ncwa-stroke" fill="none" stroke-linecap="round" stroke-linejoin="round" stroke-miterlimit="4" stroke="#f79438" stroke-width="2"><g><path d="M 15.780001 14.74C 14.686356 15.246927 13.990248 16.346621 14 17.552L 14 32.826C 13.983479 42.970211 20.202927 52.081688 29.656 55.762001L 31.799999 56.599998C 33.222 57.150036 34.798004 57.150036 36.220001 56.600002L 38.354 55.771999C 47.806553 52.087147 54.022255 42.971363 54 32.826L 54 17.552C 54.009754 16.346621 53.313648 15.246927 52.220001 14.74C 46.479889 12.217625 40.269608 10.942847 34 11C 27.730392 10.942847 21.520109 12.217625 15.78 14.74ZM 24 43C 24 40.790001 28.478001 39 34 39C 39.521999 39 44 40.799999 44 43M 34 39L 34 30L 29.106001 27.554001C 28.428541 27.215473 28.000404 26.523331 28 25.765999L 28 22M 34 30L 39.279999 25.6C 39.735466 25.220631 39.999184 24.658766 40 24.066L 40 22M 34 35.001999L 40 31.002001M 34 37.001999L 28 33.001999M 34 30.002001L 34 22.001999M 44.5 32C 44.776142 32 45 32.223858 45 32.5M 44 32.501999C 44 32.225857 44.223858 32.001999 44.5 32.001999M 44.5 33C 44.223858 33 44 32.776142 44 32.5M 45 32.501999C 45 32.778145 44.776142 33.001999 44.5 33.001999M 46.5 24C 46.776142 24 47 24.223858 47 24.5M 46 24.501999C 45.99947 24.369045 46.05191 24.241354 46.145737 24.147152C 46.239563 24.052952 46.367046 24 46.5 24M 46.5 25C 46.223858 25 46 24.776142 46 24.5M 47 24.501999C 47 24.778141 46.776142 25.001999 46.5 25.001999M 24.5 19C 24.776142 19 25 19.223858 25 19.5M 24 19.501999C 24 19.225857 24.223858 19.001999 24.5 19.001999M 24.5 20C 24.224636 20.000002 24.001102 19.777361 24 19.501999M 25 19.501999C 24.998898 19.777361 24.775364 20.000002 24.5 20M 23.5 30C 23.776142 30 24 30.223858 24 30.5M 23 30.502001C 22.999468 30.369045 23.05191 30.241354 23.145737 30.147154C 23.239563 30.052952 23.367044 29.999998 23.5 30M 23.5 31C 23.223858 31 23 30.776142 23 30.5M 24 30.502001C 24 30.778143 23.776142 31.002001 23.5 31.002001"></path></g></g></g><g id="g-root-tx_calculat_m9uc9ai3hr7u-stroke" data-item-order="0" transform="translate(188, 680)"></g><g id="g-root-ic_page_1hfp28ei3c3d7-stroke" data-item-order="0" transform="translate(512, 692)"><g id="ic_page_1hfp28ei3c3d7-stroke" fill="none" stroke-linecap="round" stroke-linejoin="round" stroke-miterlimit="4" stroke="#1ac3fb" stroke-width="2"><g><path d="M 34 50.5L 13 50.5C 11.895431 50.5 11 49.604568 11 48.5L 11 16.5C 11 15.395431 11.895431 14.5 13 14.5L 51 14.5C 52.104568 14.5 53 15.395431 53 16.5L 53 30.299999M 15 31.5L 17 33.5L 23 27.5M 26 32.5L 33 32.5M 29 28.5L 35 28.5M 11 22.5L 53 22.5M 35 39.557999C 35 44.560593 39.055405 48.615997 44.057999 48.615997C 49.060593 48.615997 53.115997 44.560593 53.115997 39.557999C 53.115997 34.555405 49.060593 30.5 44.057999 30.5C 39.055405 30.5 35 34.555405 35 39.557999ZM 57 52.5L 50.504002 46.004002"></path></g></g></g><g id="g-root-tx_determin_1uonukui3hr0r-stroke" data-item-order="0" transform="translate(188, 716)"></g><g id="g-root-tx_7_vah572i3j407-stroke" data-item-order="0" transform="translate(566, 140)"></g><g id="g-root-tx_1_qpnudqi3j4ln-stroke" data-item-order="0" transform="translate(26, 794)"></g><g id="g-root-tx_stepstog_18it3tai351jf-stroke" data-item-order="0" transform="translate(395, 38)"></g><g id="g-root-tx_initiali_1unewemi3j30p-stroke" data-item-order="0" transform="translate(98, 794)"></g><g id="g-root-ic_boar_hwik5qi351jg-stroke" data-item-order="0" transform="translate(422, 800)"><g id="ic_boar_hwik5qi351jg-stroke" fill="none" stroke-linecap="round" stroke-linejoin="round" stroke-miterlimit="4" stroke="#4f91fc" stroke-width="2"><g><path d="M 39 17L 53 17C 54.104568 17 55 17.895432 55 19L 55 41L 13 41L 13 19C 13 17.895432 13.895431 17 15 17L 29 17M 39 17C 39 18.104568 38.104568 19 37 19L 31 19C 29.89543 19 29 18.104568 29 17C 29 15.895431 29.89543 15 31 15L 37 15C 38.104568 15 39 15.895431 39 17ZM 55 41L 13 41C 11.895431 41 11 41.895432 11 43C 11 44.104568 11.895431 45 13 45L 55 45C 56.104568 45 57 44.104568 57 43C 57 41.895432 56.104568 41 55 41ZM 34 44.998001L 34 56.998001M 18 57L 24 45M 50 57L 44 45M 34 11L 34 15"></path></g></g></g><g id="g-root-tx_usetechn_1448q6mi3j477-stroke" data-item-order="0" transform="translate(548, 284)"></g><g id="g-root-tx_5_58pzii3j3m1-stroke" data-item-order="0" transform="translate(386, 356)"></g></g></g><path id="wm981hqix82dj" d="M65.283 12.757a.35.35 0 0 0 .584.157l5.203-5.141-6.183 3.523.396 1.461zm-2.216-11.7a.35.35 0 0 0-.522.305v3.111l3.276-1.868-2.754-1.548zm3.728 2.105l-4.25 2.421v2.445l6.391-3.644-2.141-1.222zm4.708 3.303a.35.35 0 0 0 0-.609l-1.592-.9-7.365 4.199v1.782a.35.35 0 0 0 .523.305l8.435-4.777z M44.542 2.513c0-.433.355-.783.792-.783s.792.35.792.783-.355.783-.792.783-.792-.35-.792-.783zm59.171 0c0-.433.355-.783.792-.783s.792.35.792.783-.355.783-.792.783-.792-.35-.792-.783zm-85.951 7.636h-1.27v-.487c-.276.201-.864.609-1.881.609-1.202 0-2.274-.794-2.137-2.078.118-1.106 1.153-1.584 1.848-1.727l2.17-.345c0-.539-.29-.956-1.064-1.006s-1.21.305-1.571 1.017l-1.124-.605c1.218-2.631 5.029-1.764 5.029.414v4.207zm-1.27-2.86c.006.396-.062 1.112-.819 1.59-.587.37-1.841.299-1.903-.395-.049-.555.461-.791.906-.898l1.816-.297zm72.662 2.86h-1.27v-.487c-.276.201-.864.609-1.881.609-1.202 0-2.274-.794-2.137-2.078.118-1.106 1.153-1.584 1.848-1.727l2.17-.345c0-.539-.29-.956-1.064-1.006s-1.21.305-1.571 1.017l-1.124-.605c1.218-2.631 5.029-1.764 5.029.414v4.207zm-1.27-2.86c.006.396-.062 1.112-.82 1.59-.587.37-1.841.299-1.903-.395-.049-.555.461-.791.906-.898l1.816-.297zM99.096 10.149H97.85v-8.45h1.246v4.895l2.68-2.559h1.738l-2.633 2.535 2.715 3.578h-1.556l-2.077-2.707-.867.844v1.863zm6.053-6.114h-1.255v6.113h1.255V4.035zm-59.2 0h-1.255v6.113h1.255V4.035zm5.584 6.113V1.697h1.255v2.695c.361-.346 1-.485 1.47-.485 1.452 0 2.477 1.082 2.457 2.448v3.792h-1.27v-3.68c0-.408-.214-1.339-1.315-1.339-.968 0-1.342.756-1.342 1.339v3.681h-1.255zm-4.76-4.894V4.039h.621a.45.45 0 0 0 .45-.45v-.855h1.251v1.305h1.309v1.215h-1.309v3.109c0 .293.105.664.648.664.365 0 .531-.035.736-.07v1.137s-.361.113-.857.113c-1.398 0-1.777-1.051-1.777-1.788V5.254h-1.071zM36.528 4.039h-1.394l2.191 6.106h1.125l1.234-3.918 1.238 3.918h1.129l2.188-6.106h-1.383l-1.359 3.93-1.256-3.93h-1.124l-1.242 3.957-1.348-3.957zM26.212 7.141c-.02 1.566 1.187 3.129 3.223 3.129 1.566 0 2.383-.918 2.734-1.719L31.172 8c-.315.399-.801 1.094-1.738 1.094-1.145 0-1.825-.781-1.891-1.52h4.625c.074-.284.148-.995-.03-1.559-.336-1.064-1.221-2.102-2.839-2.102s-3.088 1.152-3.088 3.227zm1.363-.75h3.348c-.055-.43-.566-1.301-1.623-1.301a1.79 1.79 0 0 0-1.725 1.301zm-8.758.75c.038 1.758 1.277 3.133 3.145 3.133 1.074 0 1.723-.477 1.961-.672v.547h1.242V1.703h-1.258v2.888c-.414-.36-1.062-.68-1.93-.68-1.91 0-3.198 1.473-3.16 3.23zm1.309-.08c0 1.119.723 1.978 1.836 1.978a1.88 1.88 0 0 0 1.94-1.904c0-1.371-1.011-1.99-1.972-1.99s-1.805.798-1.805 1.916zm76.683-.028C96.771 5.275 95.532 3.9 93.664 3.9c-1.074 0-1.723.477-1.961.672v-.547h-1.242v8.22h1.258V9.583c.414.36 1.063.68 1.93.68 1.91 0 3.198-1.473 3.16-3.23zm-1.309.08c0-1.119-.723-1.978-1.836-1.978a1.88 1.88 0 0 0-1.94 1.904c0 1.371 1.011 1.99 1.972 1.99S95.5 8.231 95.5 7.113zM106.441 10.173V4.036h1.254v.382c.361-.346 1-.485 1.47-.485 1.452 0 2.477 1.082 2.457 2.448v3.792h-1.27V6.492c0-.408-.214-1.339-1.315-1.339-.969 0-1.342.756-1.342 1.339v3.681h-1.254zm-30.383-.021V1.824h1.084l4.215 5.777V1.824h1.32v8.328h-1.094l-4.207-5.796v5.796h-1.319zM5.24 10.149H4V2.377h1.014l2.664 3.597 2.654-3.592h1.03v7.766h-1.256V4.762L7.678 8.068 5.24 4.742v5.407z" transform="translate(986, 926)" fill="#ababab88" stroke="none"></path></svg>