<?xml version="1.0" encoding="utf-8" standalone="yes"?>
<!DOCTYPE svg PUBLIC "-//W3C//DTD SVG 1.1//EN" "http://www.w3.org/Graphics/SVG/1.1/DTD/svg11.dtd">
<svg width="846" height="672" viewBox="0 0 846 672" style="fill:none;stroke:none;fill-rule:evenodd;clip-rule:evenodd;stroke-linecap:round;stroke-linejoin:round;stroke-miterlimit:1.5;" version="1.1" xmlns="http://www.w3.org/2000/svg" xmlns:xlink="http://www.w3.org/1999/xlink"><style class="text-font-style fontImports" data-font-family="Roboto">@import url(https://fonts.googleapis.com/css2?family=Roboto:wght@400;700&amp;amp;display=block);</style><g id="items" style="isolation: isolate"><g id="blend" style="mix-blend-mode: normal"><g id="g-root-cp_5_g-5_hwitnyhtci6n-fill" data-item-order="-459637" transform="translate(374, 506)"></g><g id="g-root-cp_4_g-4_dgpbjihtciyx-fill" data-item-order="-459633" transform="translate(440, 410)"></g><g id="g-root-cp_3_g-3_dgpbjihtciyz-fill" data-item-order="-459629" transform="translate(506, 314)"></g><g id="g-root-cp_2_g-2_91iai6htcglh-fill" data-item-order="-459625" transform="translate(572, 218)"></g><g id="g-root-cp_1_g-1_91iai6htcglj-fill" data-item-order="-459621" transform="translate(638, 122)"></g><g id="g-root-tx_xgboostc_4losdqhtchdt-fill" data-item-order="0" transform="translate(269, 38)"><g id="tx_xgboostc_4losdqhtchdt-fill" stroke="none" fill="#f4f4f4"><g><text style="font-style: normal; font-variant-caps: normal; font-weight: bold; font-stretch: normal; font-size: 25px; line-height: normal; font-family: Roboto, sans-serif; font-size-adjust: none; font-kerning: auto; font-variant-alternates: normal; font-variant-ligatures: normal; font-variant-numeric: normal; font-variant-east-asian: normal; font-variant-position: normal; font-variant-emoji: normal; font-feature-settings: normal; font-optical-sizing: auto; font-variation-settings: normal; white-space: pre;"><tspan x="15.5" y="42" dominant-baseline="ideographic">XGBoost Core Principles</tspan></text></g></g></g><g id="g-root-tx_performa_qs6cvihtmd4w-fill" data-item-order="0" transform="translate(518, 134)"><g id="tx_performa_qs6cvihtmd4w-fill" stroke="none" fill="#8769fd"><g><text style="font-style: normal; font-variant-caps: normal; font-weight: normal; font-stretch: normal; font-size: 15px; line-height: normal; font-family: Roboto, sans-serif; font-size-adjust: none; font-kerning: auto; font-variant-alternates: normal; font-variant-ligatures: normal; font-variant-numeric: normal; font-variant-east-asian: normal; font-variant-position: normal; font-variant-emoji: normal; font-feature-settings: normal; font-optical-sizing: auto; font-variation-settings: normal; white-space: pre;"><tspan x="17" y="31" dominant-baseline="ideographic">Performance</tspan></text></g></g></g><g id="g-root-ic_bug_1d0iapahtch6q-fill" data-item-order="0" transform="translate(680, 146)"></g><g id="g-root-tx_builtfor_1qbzc1ahtmakq-fill" data-item-order="0" transform="translate(314, 170)"><g id="tx_builtfor_1qbzc1ahtmakq-fill" stroke="none" fill="#f4f4f4"><g><text style="font-style: normal; font-variant-caps: normal; font-weight: normal; font-stretch: normal; font-size: 15px; line-height: normal; font-family: Roboto, sans-serif; font-size-adjust: none; font-kerning: auto; font-variant-alternates: normal; font-variant-ligatures: normal; font-variant-numeric: normal; font-variant-east-asian: normal; font-variant-position: normal; font-variant-emoji: normal; font-feature-settings: normal; font-optical-sizing: auto; font-variation-settings: normal; white-space: pre;"><tspan x="15" y="31" dominant-baseline="ideographic">Built for speed, accuracy, and large datasets</tspan></text></g></g></g><g id="g-root-tx_regulari_ddlh2mhtnrpj-fill" data-item-order="0" transform="translate(440, 230)"><g id="tx_regulari_ddlh2mhtnrpj-fill" stroke="none" fill="#4f91fc"><g><text style="font-style: normal; font-variant-caps: normal; font-weight: normal; font-stretch: normal; font-size: 15px; line-height: normal; font-family: Roboto, sans-serif; font-size-adjust: none; font-kerning: auto; font-variant-alternates: normal; font-variant-ligatures: normal; font-variant-numeric: normal; font-variant-east-asian: normal; font-variant-position: normal; font-variant-emoji: normal; font-feature-settings: normal; font-optical-sizing: auto; font-variation-settings: normal; white-space: pre;"><tspan x="20" y="31" dominant-baseline="ideographic">Regularization</tspan></text></g></g></g><g id="g-root-ic_exce_13zvkxahtp62u-fill" data-item-order="0" transform="translate(614, 242)"></g><g id="g-root-tx_addsregu_18hky3yhtnpxl-fill" data-item-order="0" transform="translate(284, 266)"><g id="tx_addsregu_18hky3yhtnpxl-fill" stroke="none" fill="#f4f4f4"><g><text style="font-style: normal; font-variant-caps: normal; font-weight: normal; font-stretch: normal; font-size: 15px; line-height: normal; font-family: Roboto, sans-serif; font-size-adjust: none; font-kerning: auto; font-variant-alternates: normal; font-variant-ligatures: normal; font-variant-numeric: normal; font-variant-east-asian: normal; font-variant-position: normal; font-variant-emoji: normal; font-feature-settings: normal; font-optical-sizing: auto; font-variation-settings: normal; white-space: pre;"><tspan x="15" y="31" dominant-baseline="ideographic">Adds regularization to avoid overfitting</tspan></text></g></g></g><g id="g-root-tx_gradient_4jtw32htnrik-fill" data-item-order="0" transform="translate(350, 326)"><g id="tx_gradient_4jtw32htnrik-fill" stroke="none" fill="#1ac3fb"><g><text style="font-style: normal; font-variant-caps: normal; font-weight: normal; font-stretch: normal; font-size: 15px; line-height: normal; font-family: Roboto, sans-serif; font-size-adjust: none; font-kerning: auto; font-variant-alternates: normal; font-variant-ligatures: normal; font-variant-numeric: normal; font-variant-east-asian: normal; font-variant-position: normal; font-variant-emoji: normal; font-feature-settings: normal; font-optical-sizing: auto; font-variation-settings: normal; white-space: pre;"><tspan x="17" y="31" dominant-baseline="ideographic">Gradient Guidance</tspan></text></g></g></g><g id="g-root-ic_imgu_qoff72ht8936-fill" data-item-order="0" transform="translate(548, 338)"></g><g id="g-root-tx_usesgrad_18itwa6htns3q-fill" data-item-order="0" transform="translate(218, 362)"><g id="tx_usesgrad_18itwa6htns3q-fill" stroke="none" fill="#f4f4f4"><g><text style="font-style: normal; font-variant-caps: normal; font-weight: normal; font-stretch: normal; font-size: 15px; line-height: normal; font-family: Roboto, sans-serif; font-size-adjust: none; font-kerning: auto; font-variant-alternates: normal; font-variant-ligatures: normal; font-variant-numeric: normal; font-variant-east-asian: normal; font-variant-position: normal; font-variant-emoji: normal; font-feature-settings: normal; font-optical-sizing: auto; font-variation-settings: normal; white-space: pre;"><tspan x="15" y="31" dominant-baseline="ideographic">Uses gradients to guide improvements</tspan></text></g></g></g><g id="g-root-tx_errorcor_4lpbcehtnqiw-fill" data-item-order="0" transform="translate(296, 422)"><g id="tx_errorcor_4lpbcehtnqiw-fill" stroke="none" fill="#a6da37"><g><text style="font-style: normal; font-variant-caps: normal; font-weight: normal; font-stretch: normal; font-size: 15px; line-height: normal; font-family: Roboto, sans-serif; font-size-adjust: none; font-kerning: auto; font-variant-alternates: normal; font-variant-ligatures: normal; font-variant-numeric: normal; font-variant-east-asian: normal; font-variant-position: normal; font-variant-emoji: normal; font-feature-settings: normal; font-optical-sizing: auto; font-variation-settings: normal; white-space: pre;"><tspan x="22" y="31" dominant-baseline="ideographic">Error Correction</tspan></text></g></g></g><g id="g-root-ic_500_1qf3mb2htmb5z-fill" data-item-order="0" transform="translate(482, 434)"></g><g id="g-root-tx_fixesmis_1d0itnyhtnqbu-fill" data-item-order="0" transform="translate(176, 458)"><g id="tx_fixesmis_1d0itnyhtnqbu-fill" stroke="none" fill="#f4f4f4"><g><text style="font-style: normal; font-variant-caps: normal; font-weight: normal; font-stretch: normal; font-size: 15px; line-height: normal; font-family: Roboto, sans-serif; font-size-adjust: none; font-kerning: auto; font-variant-alternates: normal; font-variant-ligatures: normal; font-variant-numeric: normal; font-variant-east-asian: normal; font-variant-position: normal; font-variant-emoji: normal; font-feature-settings: normal; font-optical-sizing: auto; font-variation-settings: normal; white-space: pre;"><tspan x="15" y="31" dominant-baseline="ideographic">Fixes mistakes from previous trees</tspan></text></g></g></g><g id="g-root-tx_sequenti_92rrn2htnrws-fill" data-item-order="0" transform="translate(230, 518)"><g id="tx_sequenti_92rrn2htnrws-fill" stroke="none" fill="#43dd93"><g><text style="font-style: normal; font-variant-caps: normal; font-weight: normal; font-stretch: normal; font-size: 15px; line-height: normal; font-family: Roboto, sans-serif; font-size-adjust: none; font-kerning: auto; font-variant-alternates: normal; font-variant-ligatures: normal; font-variant-numeric: normal; font-variant-east-asian: normal; font-variant-position: normal; font-variant-emoji: normal; font-feature-settings: normal; font-optical-sizing: auto; font-variation-settings: normal; white-space: pre;"><tspan x="17" y="31" dominant-baseline="ideographic">Sequential Trees</tspan></text></g></g></g><g id="g-root-ic_3_91itguht89ab-fill" data-item-order="0" transform="translate(416, 530)"></g><g id="g-root-tx_buildstr_v490hahtp6o6-fill" data-item-order="0" transform="translate(182, 554)"><g id="tx_buildstr_v490hahtp6o6-fill" stroke="none" fill="#f4f4f4"><g><text style="font-style: normal; font-variant-caps: normal; font-weight: normal; font-stretch: normal; font-size: 15px; line-height: normal; font-family: Roboto, sans-serif; font-size-adjust: none; font-kerning: auto; font-variant-alternates: normal; font-variant-ligatures: normal; font-variant-numeric: normal; font-variant-east-asian: normal; font-variant-position: normal; font-variant-emoji: normal; font-feature-settings: normal; font-optical-sizing: auto; font-variation-settings: normal; white-space: pre;"><tspan x="13" y="31" dominant-baseline="ideographic">Builds trees in sequence</tspan></text></g></g></g><g id="g-root-cp_5_g-5_hwitnyhtci6n-stroke" data-item-order="-459637" transform="translate(374, 506)"><g id="cp_5_g-5_hwitnyhtci6n-stroke" fill="none" stroke-linecap="round" stroke-linejoin="round" stroke-miterlimit="4" stroke="#43dd93" stroke-width="2"><g><path d="M 436 106L 436 10L 50 10L 10 58L 50 106L 436 106Z"></path></g></g></g><g id="g-root-cp_4_g-4_dgpbjihtciyx-stroke" data-item-order="-459633" transform="translate(440, 410)"><g id="cp_4_g-4_dgpbjihtciyx-stroke" fill="none" stroke-linecap="round" stroke-linejoin="round" stroke-miterlimit="4" stroke="#a6da37" stroke-width="2"><g><path d="M 370 106L 370 10L 50 10L 10 58L 50 106L 370 106Z"></path></g></g></g><g id="g-root-cp_3_g-3_dgpbjihtciyz-stroke" data-item-order="-459629" transform="translate(506, 314)"><g id="cp_3_g-3_dgpbjihtciyz-stroke" fill="none" stroke-linecap="round" stroke-linejoin="round" stroke-miterlimit="4" stroke="#1ac3fb" stroke-width="2"><g><path d="M 304 106L 304 10L 50 10L 10 58L 50 106L 304 106Z"></path></g></g></g><g id="g-root-cp_2_g-2_91iai6htcglh-stroke" data-item-order="-459625" transform="translate(572, 218)"><g id="cp_2_g-2_91iai6htcglh-stroke" fill="none" stroke-linecap="round" stroke-linejoin="round" stroke-miterlimit="4" stroke="#4f91fc" stroke-width="2"><g><path d="M 238 106.0002L 238 10.0002L 50 10L 10 58L 50 106L 238 106.0002Z"></path></g></g></g><g id="g-root-cp_1_g-1_91iai6htcglj-stroke" data-item-order="-459621" transform="translate(638, 122)"><g id="cp_1_g-1_91iai6htcglj-stroke" fill="none" stroke-linecap="round" stroke-linejoin="round" stroke-miterlimit="4" stroke="#8769fd" stroke-width="2"><g><path d="M 172 106L 172 10L 50 10L 10 58L 50 106L 172 106Z"></path></g></g></g><g id="g-root-tx_xgboostc_4losdqhtchdt-stroke" data-item-order="0" transform="translate(269, 38)"></g><g id="g-root-tx_performa_qs6cvihtmd4w-stroke" data-item-order="0" transform="translate(518, 134)"></g><g id="g-root-ic_bug_1d0iapahtch6q-stroke" data-item-order="0" transform="translate(680, 146)"><g id="ic_bug_1d0iapahtch6q-stroke" fill="none" stroke-linecap="round" stroke-linejoin="round" stroke-miterlimit="4" stroke="#8769fd" stroke-width="2"><g><path d="M 11.008 19.001999C 11.008 23.420277 19.514591 27.002001 30.007999 27.002001C 40.501411 27.002001 49.007999 23.420277 49.007999 19.001999C 49.007999 14.583722 40.501411 11.002 30.007999 11.002C 19.514591 11.002 11.008 14.583722 11.008 19.001999ZM 33 34.900002C 32.021999 34.966 31.02 35.001999 30 35.001999C 19.507999 35.001999 11 31.422001 11 27.002001M 30 44C 19.515999 44 11 40.422001 11 36M 30 53C 19.507999 53 11 49.419998 11 45L 11 19M 49.007999 19.001999L 49.007999 33.001999M 53 51C 53 54.313709 50.313709 57 47 57C 43.686291 57 41 54.313709 41 51L 41 45C 41 41.686295 43.686291 39 47 39C 50.313709 39 53 41.686295 53 45ZM 52.206001 42.018002L 57 39.001999M 41.793999 42.018002L 37 39.001999M 52.206001 53.984001L 57 57.001999M 41.793999 53.984001L 37 57.001999M 53 49.001999L 57 49.001999M 41 49.001999L 37 49.001999M 41 45.001999L 53 45.001999"></path></g></g></g><g id="g-root-tx_builtfor_1qbzc1ahtmakq-stroke" data-item-order="0" transform="translate(314, 170)"></g><g id="g-root-tx_regulari_ddlh2mhtnrpj-stroke" data-item-order="0" transform="translate(440, 230)"></g><g id="g-root-ic_exce_13zvkxahtp62u-stroke" data-item-order="0" transform="translate(614, 242)"><g id="ic_exce_13zvkxahtp62u-stroke" fill="none" stroke-linecap="round" stroke-linejoin="round" stroke-miterlimit="4" stroke="#4f91fc" stroke-width="2"><g><path d="M 44.490002 51.226002L 49.292 56.986L 56.973999 56.986L 49.292 47.383999L 56.973999 37.781998L 49.292 37.781998L 44.490002 43.543999L 39.690002 37.781998L 32.007999 37.781998L 39.690002 47.383999L 32.007999 56.986L 39.690002 56.986L 44.490002 51.226002ZM 24.307999 54.674C 19.793949 54.675106 16.133999 51.016052 16.133999 46.501999L 16.133999 41.400002M 21.242001 46.501999L 16.133999 41.393997L 11.026 46.501999M 43.717999 13.414C 48.232052 13.412895 51.891998 17.071949 51.891998 21.586L 51.891998 27.716M 46.784 22.608L 51.891998 27.716L 57 22.608M 13.044 11.014L 35.517998 11.014C 35.517998 11.014 37.562 11.014 37.562 13.058001L 37.562 31.445999C 37.562 31.445999 37.562 33.489998 35.517998 33.489998L 13.044 33.489998C 13.044 33.489998 11 33.489998 11 31.445999L 11 13.058001C 11 13.058001 11 11.014 13.044 11.014M 11 17.216L 37.562 17.216M 11 22.608L 37.562 22.608M 11 28.152L 37.562 28.152M 23.144001 17.216L 23.144001 33.489998M 30.271999 17.216L 30.271999 33.489998"></path></g></g></g><g id="g-root-tx_addsregu_18hky3yhtnpxl-stroke" data-item-order="0" transform="translate(284, 266)"></g><g id="g-root-tx_gradient_4jtw32htnrik-stroke" data-item-order="0" transform="translate(350, 326)"></g><g id="g-root-ic_imgu_qoff72ht8936-stroke" data-item-order="0" transform="translate(548, 338)"><g id="ic_imgu_qoff72ht8936-stroke" fill="none" stroke-linecap="round" stroke-linejoin="round" stroke-miterlimit="4" stroke="#1ac3fb" stroke-width="2"><g><path d="M 24 44C 26.028185 46.042435 28.560472 47.512131 31.34 48.259998C 32.05151 48.471188 32.821461 48.271 33.34 47.740002L 45 36L 50 41.059998C 51.031834 42.130802 52.558693 42.565956 54 42.200001C 55.713802 41.700165 56.88892 40.125179 56.880001 38.34L 56.880001 15C 56.880001 12.790861 55.089138 11 52.880001 11L 29.66 11C 27.874821 10.99108 26.299835 12.1662 25.799999 13.88C 25.434044 15.321308 25.8692 16.848167 26.940001 17.880001L 32 23L 20.26 34.739998C 19.728998 35.258537 19.528812 36.028488 19.74 36.739998C 20.500738 39.490871 21.969597 41.994141 24 44M 32.360001 15.440001C 32.142731 15.441471 31.9475 15.573017 31.864553 15.773837C 31.781607 15.974657 31.827097 16.205631 31.980001 16.360001L 37.98 22.459999L 25.279999 35.239998C 24.729801 35.793308 24.578587 36.628971 24.9 37.34C 25.463547 38.616165 26.241453 39.786407 27.199999 40.799999C 28.213593 41.758545 29.383835 42.536453 30.66 43.099998C 31.371029 43.421413 32.206692 43.270199 32.760002 42.720001L 45.540001 30L 51.639999 36C 51.794369 36.152905 52.025345 36.198395 52.226162 36.115448C 52.426983 36.032501 52.558529 35.837273 52.560001 35.620003L 52.560001 15.440001ZM 11 57L 11 28L 26.82 12.18M 11 57L 40 57L 55.82 41.18M 23.860001 21.5L 23.860001 24.5M 25.360001 23L 22.360001 23M 16.219999 29.040001L 16.219999 32.040001M 17.719999 30.540001L 14.719999 30.540001M 16.219999 41.440002L 16.219999 44.439999M 17.719999 42.939999L 14.719999 42.939999M 46.5 44.139999L 43.5 44.139999M 45 42.639999L 45 45.639999M 38.959999 51.779999L 35.959999 51.779999M 37.459999 50.279999L 37.459999 53.279999M 26.559999 51.779999L 23.560001 51.779999M 25.060001 50.279999L 25.060001 53.279999"></path></g></g></g><g id="g-root-tx_usesgrad_18itwa6htns3q-stroke" data-item-order="0" transform="translate(218, 362)"></g><g id="g-root-tx_errorcor_4lpbcehtnqiw-stroke" data-item-order="0" transform="translate(296, 422)"></g><g id="g-root-ic_500_1qf3mb2htmb5z-stroke" data-item-order="0" transform="translate(482, 434)"><g id="ic_500_1qf3mb2htmb5z-stroke" fill="none" stroke-linecap="round" stroke-linejoin="round" stroke-miterlimit="4" stroke="#a6da37" stroke-width="2"><g><path d="M 15.002 39L 15.002 17C 15.002 14.790861 16.792862 13 19.001999 13L 49.001999 13C 51.21114 13 53.001999 14.790861 53.001999 17L 53.001999 39M 14.998 22.992001L 52.998001 22.992001M 28.002001 18.492001C 27.725857 18.492001 27.502001 18.268143 27.502001 17.992001C 27.502001 17.715858 27.725857 17.492001 28.002001 17.492001M 28.002001 18.492001C 28.278143 18.492001 28.502001 18.268143 28.502001 17.992001C 28.502001 17.715858 28.278143 17.492001 28.002001 17.492001M 22.001999 18.492001C 21.725857 18.492001 21.501999 18.268143 21.501999 17.992001C 21.501999 17.715858 21.725857 17.492001 22.001999 17.492001M 22.001999 18.492001C 22.278141 18.492001 22.501999 18.268143 22.501999 17.992001C 22.501999 17.715858 22.278141 17.492001 22.001999 17.492001M 33.996002 18.492001C 33.719856 18.492001 33.496002 18.268143 33.496002 17.992001C 33.496002 17.715858 33.719856 17.492001 33.996002 17.492001M 33.996002 18.492001C 34.272141 18.492001 34.496002 18.268143 34.496002 17.992001C 34.496002 17.715858 34.272141 17.492001 33.996002 17.492001M 26.58 30.25L 21.265999 30.25L 20.736 36.09L 21.962 35.478001C 22.552 35.181999 23.202 35.028 23.862 35.028L 23.922001 35.028C 25.681999 35.028 27.108 36.454002 27.108 38.214001L 27.108 39.807999C 27.108 41.568001 25.681999 42.993999 23.922001 42.993999C 22.534 42.993999 21.174 42.105999 20.736 40.870003M 31.059999 33.436001L 31.059999 39.807999C 31.060001 41.567581 32.48642 42.994003 34.246002 42.994003C 36.005581 42.994003 37.431999 41.567581 37.431999 39.808002L 37.431999 33.436001C 37.460995 32.279083 36.860359 31.19742 35.862991 30.610428C 34.865623 30.023438 33.62838 30.023438 32.631012 30.610428C 31.633646 31.19742 31.033009 32.279083 31.062 33.436001ZM 41.384003 33.436001L 41.384003 39.807999C 41.384003 41.567581 42.810421 42.994003 44.570004 42.994003C 46.329582 42.994003 47.756001 41.567581 47.756001 39.808002L 47.756001 33.436001C 47.756001 31.676422 46.329582 30.250002 44.570004 30.250002C 42.810421 30.250002 41.384003 31.676422 41.384003 33.436001ZM 39.486 50.113998L 39.486 54.203999C 39.485821 55.333549 40.401451 56.249325 41.530998 56.249325C 42.660549 56.249325 43.57618 55.333549 43.576 54.204002L 43.576 50.113998C 43.541454 49.009468 42.636074 48.131962 41.530998 48.131962C 40.425926 48.131962 39.520546 49.009468 39.486 50.114002ZM 20.864 48.07L 16.774 48.07L 16.774 56.25L 20.864 56.25M 16.774 51.82L 20.18 51.82M 24.577999 56.25L 24.577999 52.84M 24.577999 52.84L 24.577999 48.068001L 26.282 48.068001C 27.6 48.068001 28.667999 49.136002 28.667999 50.453999L 28.667999 50.453999C 28.667999 51.77 27.6 52.838001 26.282 52.838001L 24.577999 52.838001ZM 27.304001 52.84L 29.007999 56.248001M 32.110001 56.25L 32.110001 52.84M 32.110001 52.84L 32.110001 48.068001L 33.813999 48.068001C 35.132 48.068001 36.200001 49.136002 36.200001 50.453999L 36.200001 50.453999C 36.200001 51.77 35.132 52.838001 33.813999 52.838001L 32.110001 52.838001ZM 34.835999 52.84L 36.540001 56.248001M 47.290001 56.25L 47.290001 52.84M 47.290001 52.84L 47.290001 48.068001L 48.993999 48.068001C 50.312 48.068001 51.380001 49.136002 51.380001 50.453999L 51.380001 50.453999C 51.380001 51.77 50.312 52.838001 48.993999 52.838001L 47.290001 52.838001ZM 50.015999 52.84L 51.720001 56.248001"></path></g></g></g><g id="g-root-tx_fixesmis_1d0itnyhtnqbu-stroke" data-item-order="0" transform="translate(176, 458)"></g><g id="g-root-tx_sequenti_92rrn2htnrws-stroke" data-item-order="0" transform="translate(230, 518)"></g><g id="g-root-ic_3_91itguht89ab-stroke" data-item-order="0" transform="translate(416, 530)"><g id="ic_3_91itguht89ab-stroke" fill="none" stroke-linecap="round" stroke-linejoin="round" stroke-miterlimit="4" stroke="#43dd93" stroke-width="2"><g><path d="M 30.5 20L 12.5 20C 11.9 20 11.5 19.6 11.5 19L 11.5 13C 11.5 12.4 11.9 12 12.5 12L 30.5 12C 31.1 12 31.5 12.4 31.5 13L 31.5 19C 31.5 19.4 31.1 20 30.5 20ZM 55.5 56L 37.5 56C 36.900002 56 36.5 55.599998 36.5 55L 36.5 49C 36.5 48.400002 36.900002 48 37.5 48L 55.5 48C 56.099998 48 56.5 48.400002 56.5 49L 56.5 55C 56.5 55.400002 56.099998 56 55.5 56ZM 55.5 33L 45.5 33C 44.900002 33 44.5 32.599998 44.5 32L 44.5 26C 44.5 25.4 44.900002 25 45.5 25L 55.5 25C 56.099998 25 56.5 25.4 56.5 26L 56.5 32C 56.5 32.400002 56.099998 33 55.5 33ZM 25.5 38L 15.5 38C 14.9 38 14.5 37.599998 14.5 37L 14.5 31C 14.5 30.4 14.9 30 15.5 30L 25.5 30C 26.1 30 26.5 30.4 26.5 31L 26.5 37C 26.5 37.400002 26.1 38 25.5 38ZM 31.5 16L 37.5 16C 38.099998 16 38.5 16.4 38.5 17L 38.5 28C 38.5 28.6 38.900002 29 39.5 29L 44.5 29M 36.5 52L 32.5 52C 31.9 52 31.5 51.599998 31.5 51L 31.5 35C 31.5 34.400002 31.1 34 30.5 34L 26.5 34"></path></g></g></g><g id="g-root-tx_buildstr_v490hahtp6o6-stroke" data-item-order="0" transform="translate(182, 554)"></g></g></g><path id="w5vzjiin483s" d="M65.283 12.757a.35.35 0 0 0 .584.157l5.203-5.141-6.183 3.523.396 1.461zm-2.216-11.7a.35.35 0 0 0-.522.305v3.111l3.276-1.868-2.754-1.548zm3.728 2.105l-4.25 2.421v2.445l6.391-3.644-2.141-1.222zm4.708 3.303a.35.35 0 0 0 0-.609l-1.592-.9-7.365 4.199v1.782a.35.35 0 0 0 .523.305l8.435-4.777z M44.542 2.513c0-.433.355-.783.792-.783s.792.35.792.783-.355.783-.792.783-.792-.35-.792-.783zm59.171 0c0-.433.355-.783.792-.783s.792.35.792.783-.355.783-.792.783-.792-.35-.792-.783zm-85.951 7.636h-1.27v-.487c-.276.201-.864.609-1.881.609-1.202 0-2.274-.794-2.137-2.078.118-1.106 1.153-1.584 1.848-1.727l2.17-.345c0-.539-.29-.956-1.064-1.006s-1.21.305-1.571 1.017l-1.124-.605c1.218-2.631 5.029-1.764 5.029.414v4.207zm-1.27-2.86c.006.396-.062 1.112-.819 1.59-.587.37-1.841.299-1.903-.395-.049-.555.461-.791.906-.898l1.816-.297zm72.662 2.86h-1.27v-.487c-.276.201-.864.609-1.881.609-1.202 0-2.274-.794-2.137-2.078.118-1.106 1.153-1.584 1.848-1.727l2.17-.345c0-.539-.29-.956-1.064-1.006s-1.21.305-1.571 1.017l-1.124-.605c1.218-2.631 5.029-1.764 5.029.414v4.207zm-1.27-2.86c.006.396-.062 1.112-.82 1.59-.587.37-1.841.299-1.903-.395-.049-.555.461-.791.906-.898l1.816-.297zM99.096 10.149H97.85v-8.45h1.246v4.895l2.68-2.559h1.738l-2.633 2.535 2.715 3.578h-1.556l-2.077-2.707-.867.844v1.863zm6.053-6.114h-1.255v6.113h1.255V4.035zm-59.2 0h-1.255v6.113h1.255V4.035zm5.584 6.113V1.697h1.255v2.695c.361-.346 1-.485 1.47-.485 1.452 0 2.477 1.082 2.457 2.448v3.792h-1.27v-3.68c0-.408-.214-1.339-1.315-1.339-.968 0-1.342.756-1.342 1.339v3.681h-1.255zm-4.76-4.894V4.039h.621a.45.45 0 0 0 .45-.45v-.855h1.251v1.305h1.309v1.215h-1.309v3.109c0 .293.105.664.648.664.365 0 .531-.035.736-.07v1.137s-.361.113-.857.113c-1.398 0-1.777-1.051-1.777-1.788V5.254h-1.071zM36.528 4.039h-1.394l2.191 6.106h1.125l1.234-3.918 1.238 3.918h1.129l2.188-6.106h-1.383l-1.359 3.93-1.256-3.93h-1.124l-1.242 3.957-1.348-3.957zM26.212 7.141c-.02 1.566 1.187 3.129 3.223 3.129 1.566 0 2.383-.918 2.734-1.719L31.172 8c-.315.399-.801 1.094-1.738 1.094-1.145 0-1.825-.781-1.891-1.52h4.625c.074-.284.148-.995-.03-1.559-.336-1.064-1.221-2.102-2.839-2.102s-3.088 1.152-3.088 3.227zm1.363-.75h3.348c-.055-.43-.566-1.301-1.623-1.301a1.79 1.79 0 0 0-1.725 1.301zm-8.758.75c.038 1.758 1.277 3.133 3.145 3.133 1.074 0 1.723-.477 1.961-.672v.547h1.242V1.703h-1.258v2.888c-.414-.36-1.062-.68-1.93-.68-1.91 0-3.198 1.473-3.16 3.23zm1.309-.08c0 1.119.723 1.978 1.836 1.978a1.88 1.88 0 0 0 1.94-1.904c0-1.371-1.011-1.99-1.972-1.99s-1.805.798-1.805 1.916zm76.683-.028C96.771 5.275 95.532 3.9 93.664 3.9c-1.074 0-1.723.477-1.961.672v-.547h-1.242v8.22h1.258V9.583c.414.36 1.063.68 1.93.68 1.91 0 3.198-1.473 3.16-3.23zm-1.309.08c0-1.119-.723-1.978-1.836-1.978a1.88 1.88 0 0 0-1.94 1.904c0 1.371 1.011 1.99 1.972 1.99S95.5 8.231 95.5 7.113zM106.441 10.173V4.036h1.254v.382c.361-.346 1-.485 1.47-.485 1.452 0 2.477 1.082 2.457 2.448v3.792h-1.27V6.492c0-.408-.214-1.339-1.315-1.339-.969 0-1.342.756-1.342 1.339v3.681h-1.254zm-30.383-.021V1.824h1.084l4.215 5.777V1.824h1.32v8.328h-1.094l-4.207-5.796v5.796h-1.319zM5.24 10.149H4V2.377h1.014l2.664 3.597 2.654-3.592h1.03v7.766h-1.256V4.762L7.678 8.068 5.24 4.742v5.407z" transform="translate(710, 638)" fill="#ababab88" stroke="none"></path></svg>