<?xml version="1.0" encoding="utf-8" standalone="yes"?>
<!DOCTYPE svg PUBLIC "-//W3C//DTD SVG 1.1//EN" "http://www.w3.org/Graphics/SVG/1.1/DTD/svg11.dtd">
<svg width="765" height="636" viewBox="0 0 765 636" style="fill:none;stroke:none;fill-rule:evenodd;clip-rule:evenodd;stroke-linecap:round;stroke-linejoin:round;stroke-miterlimit:1.5;" version="1.1" xmlns="http://www.w3.org/2000/svg" xmlns:xlink="http://www.w3.org/1999/xlink"><style class="text-font-style fontImports" data-font-family="Roboto">@import url(https://fonts.googleapis.com/css2?family=Roboto:wght@400;700&amp;amp;display=block);</style><g id="items" style="isolation: isolate"><g id="blend" style="mix-blend-mode: normal"><g id="g-root-cp_1_g-1_mb2xq6idk4xx-fill" data-item-order="-378564" transform="translate(41.51800537109375, 199.222900390625)"><g id="cp_1_g-1_mb2xq6idk4xx-fill" stroke="none" fill="#344e57"><g><path d="M 177.2129 41.5752C 177.2129 59.0137 171.8281 73.1504 165.1857 73.1504C 164.8608 73.1504 164.539 73.1166 164.2207 73.0502C 164.1852 73.0428 164.1499 73.0351 164.1145 73.0269C 157.9738 71.6041 153.1584 58.066 153.1584 41.5752C 153.1584 25.0844 157.9739 11.5462 164.1145 10.1235C 164.1499 10.1153 164.1852 10.1075 164.2207 10.1002C 164.539 10.0338 164.8608 10 165.1857 10C 171.8281 10 177.2129 24.1367 177.2129 41.5752ZM 43.4093 34.7569L 10 41.575L 43.4096 48.3933C 42.9863 46.1853 42.7646 43.9056 42.7646 41.5742C 42.7646 39.2434 42.9862 36.9643 43.4093 34.7569ZM 153.1584 41.5752C 153.1584 25.0844 157.9739 11.5462 164.1145 10.1235L 108.6183 21.4491C 112.4988 27.1942 114.7646 34.1196 114.7646 41.5742C 114.7646 49.0295 112.4984 55.9555 108.6172 61.7009L 164.1145 73.0269C 157.9738 71.6041 153.1584 58.066 153.1584 41.5752ZM 164.2207 10.1002L 164.1145 10.1235M 164.2207 73.0502L 164.1145 73.0269"></path></g></g></g><g id="g-root-cp_1_g-1_1_dffxhaidk5qn-fill" data-item-order="-378558" transform="translate(74.00077819824219, 194.797119140625)"><g id="cp_1_g-1_1_dffxhaidk5qn-fill" stroke="none" fill="#344e57"><g><path d="M 10 45.203125L 11 45.203125L 11 46.203125L 10 46.203125Z"></path></g></g></g><g id="g-root-cp_2_g-2_908wfyidk3d5-fill" data-item-order="-378552" transform="translate(209.2030029296875, 162.72900390625)"><g id="cp_2_g-2_908wfyidk3d5-fill" stroke="none" fill="#3b5649"><g><path d="M 165.7969 10C 165.4449 10 165.0953 10.0384 164.7483 10.1142L 164.7336 10.1175C 155.2825 12.2115 147.7881 42.0404 147.7881 78.5303C 147.7881 115.0201 155.2825 144.8489 164.7335 146.9431L 164.7483 146.9463C 165.0953 147.0221 165.4449 147.0605 165.7969 147.0605C 170.1299 147.0605 174.1055 141.2372 177.2128 131.5349C 173.8233 118.1173 171.7168 99.328 171.7168 78.5298C 171.7168 57.7319 173.8233 38.9428 177.2126 25.5252C 174.1054 15.8232 170.1298 10 165.7969 10ZM 10 78.5298C 10 59.0238 14.8465 43.0557 20.9814 41.746L 164.7336 10.1175C 155.2825 12.2115 147.7881 42.0404 147.7881 78.5303C 147.7881 115.0201 155.2825 144.8489 164.7335 146.9431L 20.9814 115.3136C 14.8465 114.0039 10 98.0357 10 78.5298ZM 78.7646 114.5332C 98.6469 114.5332 114.7646 98.4155 114.7646 78.5332C 114.7646 58.651 98.6469 42.5332 78.7646 42.5332C 58.8824 42.5332 42.7646 58.651 42.7646 78.5332C 42.7646 98.4155 58.8824 114.5332 78.7646 114.5332ZM 21.7973 115.4004C 21.5231 115.4004 21.251 115.3712 20.9814 115.3136M 21.7973 41.6592C 21.5231 41.6592 21.251 41.6884 20.9814 41.746M 164.7483 10.1142C 164.7434 10.1153 164.7385 10.1164 164.7336 10.1175M 164.7483 146.9463C 164.7434 146.9452 164.7384 146.9441 164.7335 146.9431"></path></g></g></g><g id="g-root-cp_3_g-3_908wfyidk3d7-fill" data-item-order="-378548" transform="translate(370.9200439453125, 125.781005859375)"><g id="cp_3_g-3_908wfyidk3d7-fill" stroke="none" fill="#4b533a"><g><path d="M 170.9527 220.8398C 171.3264 220.9158 171.7023 220.9307 172.0803 220.9307C 176.0971 220.9307 179.8835 216.5936 183.2101 208.9269C 176.5166 189.2543 172.0781 154.7551 172.0781 115.4829C 172.0781 76.1936 176.5205 41.6814 183.2188 22.0131C 179.8839 14.2967 176.111 10 172.0803 10C 171.7023 10 171.3264 10.0384 170.9527 10.1144L 170.7682 10.1549C 158.1245 13.1488 148.082 59.1531 148.082 115.4653C 148.082 171.7777 158.1246 217.8054 170.7683 220.7993L 170.9527 220.8398ZM 170.7683 220.7993L 27.2269 189.2171C 22.6737 188.3536 18.5605 180.6134 15.496 168.4821C 12.1065 155.0645 10 136.2752 10 115.4771C 10 94.6791 12.1065 75.89 15.4958 62.4725C 18.5603 50.3409 22.6736 42.6005 27.2269 41.737L 170.7682 10.1549C 158.1245 13.1488 148.082 59.1531 148.082 115.4653C 148.082 171.7777 158.1246 217.8054 170.7683 220.7993ZM 79.0479 151.4648C 98.9301 151.4648 115.0479 135.3471 115.0479 115.4648C 115.0479 95.5826 98.9301 79.4648 79.0479 79.4648C 59.1656 79.4648 43.0479 95.5826 43.0479 115.4648C 43.0479 135.3471 59.1656 151.4648 79.0479 151.4648ZM 28.08 189.2979C 27.794 189.2979 27.5096 189.2708 27.2269 189.2171M 28.08 41.6563C 27.794 41.6563 27.5096 41.6834 27.2269 41.737M 170.9527 220.8398C 170.8912 220.8273 170.8297 220.8138 170.7683 220.7993M 170.9527 10.1144C 170.8911 10.1269 170.8297 10.1404 170.7682 10.1549"></path></g></g></g><g id="g-root-cp_4_g-4_4kfebiidk45h-fill" data-item-order="-378544" transform="translate(532.9979858398438, 88.875)"><g id="cp_4_g-4_4kfebiidk45h-fill" stroke="none" fill="#54502f"><g><path d="M 207.9855 152.4219C 207.9855 212.9168 200.0451 264.6024 188.8448 285.2461C 185.4822 291.444 181.8256 294.8438 178.002 294.8438C 177.5664 294.8438 177.133 294.7996 176.7019 294.7123C 176.6281 294.6973 176.5544 294.6811 176.4808 294.6636C 160.6281 290.9008 148.0184 228.6561 148.0184 152.4219C 148.0184 76.1895 160.6275 13.9459 176.4796 10.1804C 176.5536 10.1628 176.6277 10.1465 176.7019 10.1315C 177.133 10.0441 177.5664 10 178.002 10C 181.8256 10 185.4822 13.3998 188.8448 19.5977C 200.0451 40.2414 207.9855 91.927 207.9855 152.4219ZM 176.4808 294.6636C 160.6281 290.9008 148.0184 228.6561 148.0184 152.4219C 148.0184 76.1895 160.6275 13.9459 176.4796 10.1804L 33.1104 41.6942C 28.7155 42.4804 24.6232 48.6937 21.1407 58.9194C 14.4424 78.5876 10 113.0998 10 152.3892C 10 191.6613 14.4385 226.1605 21.1319 245.8331C 24.6163 256.0742 28.7118 262.2973 33.1104 263.0841L 176.4808 294.6636ZM 78.9697 188.3828C 98.852 188.3828 114.9697 172.2651 114.9697 152.3828C 114.9697 132.5006 98.852 116.3828 78.9697 116.3828C 59.0875 116.3828 42.9697 132.5006 42.9697 152.3828C 42.9697 172.2651 59.0875 188.3828 78.9697 188.3828ZM 176.7019 294.7123L 176.4808 294.6636M 176.7019 10.1315L 176.4796 10.1804M 34.0609 263.1689C 33.7426 263.1689 33.4257 263.1405 33.1104 263.0841M 34.0609 41.6094C 33.7426 41.6094 33.4257 41.6378 33.1104 41.6942"></path></g></g></g><g id="g-root-ic_infe_8vvr5qidbpc4-fill" data-item-order="0" transform="translate(86.2030029296875, 207)"></g><g id="g-root-ic_2_1d3mbemidpptx-fill" data-item-order="0" transform="translate(255, 207)"></g><g id="g-root-ic_colu_18lxe0uidpqtq-fill" data-item-order="0" transform="translate(416, 207.284912109375)"></g><g id="g-root-ic_labe_18jfeimidk4qo-fill" data-item-order="0" transform="translate(578, 207.296875)"></g><g id="g-root-tx_features_qvwev2idiqz3-fill" data-item-order="0" transform="translate(62, 314)"><g id="tx_features_qvwev2idiqz3-fill" stroke="none" fill="#1ac3fb"><g><text style="font-style: normal; font-variant-caps: normal; font-weight: normal; font-stretch: normal; font-size: 20px; line-height: normal; font-family: Roboto, sans-serif; font-size-adjust: none; font-kerning: auto; font-variant-alternates: normal; font-variant-ligatures: normal; font-variant-numeric: normal; font-variant-east-asian: normal; font-variant-position: normal; font-variant-emoji: normal; font-feature-settings: normal; font-optical-sizing: auto; font-variation-settings: normal; white-space: pre;"><tspan x="24.43" y="34" dominant-baseline="ideographic">Feature </tspan><tspan x="16.43" y="58" dominant-baseline="ideographic">Selection</tspan></text></g></g></g><g id="g-root-tx_dataspli_qungouidk3r4-fill" data-item-order="0" transform="translate(212, 350)"><g id="tx_dataspli_qungouidk3r4-fill" stroke="none" fill="#43dd93"><g><text style="font-style: normal; font-variant-caps: normal; font-weight: normal; font-stretch: normal; font-size: 20px; line-height: normal; font-family: Roboto, sans-serif; font-size-adjust: none; font-kerning: auto; font-variant-alternates: normal; font-variant-ligatures: normal; font-variant-numeric: normal; font-variant-east-asian: normal; font-variant-position: normal; font-variant-emoji: normal; font-feature-settings: normal; font-optical-sizing: auto; font-variation-settings: normal; white-space: pre;"><tspan x="16.14" y="34" dominant-baseline="ideographic">Data Splitting</tspan></text></g></g></g><g id="g-root-tx_identify_dcy7geidk2z1-fill" data-item-order="0" transform="translate(38, 374)"><g id="tx_identify_dcy7geidk2z1-fill" stroke="none" fill="#f4f4f4"><g><text style="font-style: normal; font-variant-caps: normal; font-weight: normal; font-stretch: normal; font-size: 15px; line-height: normal; font-family: Roboto, sans-serif; font-size-adjust: none; font-kerning: auto; font-variant-alternates: normal; font-variant-ligatures: normal; font-variant-numeric: normal; font-variant-east-asian: normal; font-variant-position: normal; font-variant-emoji: normal; font-feature-settings: normal; font-optical-sizing: auto; font-variation-settings: normal; white-space: pre;"><tspan x="16.59" y="31" dominant-baseline="ideographic">Identifying the best </tspan><tspan x="14.59" y="49" dominant-baseline="ideographic">attribute to split the </tspan><tspan x="65.59" y="67" dominant-baseline="ideographic">data</tspan></text></g></g></g><g id="g-root-tx_dividing_1d2zxhaidk2rv-fill" data-item-order="0" transform="translate(206, 386)"><g id="tx_dividing_1d2zxhaidk2rv-fill" stroke="none" fill="#f4f4f4"><g><text style="font-style: normal; font-variant-caps: normal; font-weight: normal; font-stretch: normal; font-size: 15px; line-height: normal; font-family: Roboto, sans-serif; font-size-adjust: none; font-kerning: auto; font-variant-alternates: normal; font-variant-ligatures: normal; font-variant-numeric: normal; font-variant-east-asian: normal; font-variant-position: normal; font-variant-emoji: normal; font-feature-settings: normal; font-optical-sizing: auto; font-variation-settings: normal; white-space: pre;"><tspan x="13.63" y="31" dominant-baseline="ideographic">Dividing the dataset </tspan><tspan x="16.63" y="49" dominant-baseline="ideographic">into subsets based </tspan><tspan x="18.63" y="67" dominant-baseline="ideographic">on attribute values</tspan></text></g></g></g><g id="g-root-tx_recursio_4m2imidljwk-fill" data-item-order="0" transform="translate(398, 386)"><g id="tx_recursio_4m2imidljwk-fill" stroke="none" fill="#a6da37"><g><text style="font-style: normal; font-variant-caps: normal; font-weight: normal; font-stretch: normal; font-size: 20px; line-height: normal; font-family: Roboto, sans-serif; font-size-adjust: none; font-kerning: auto; font-variant-alternates: normal; font-variant-ligatures: normal; font-variant-numeric: normal; font-variant-east-asian: normal; font-variant-position: normal; font-variant-emoji: normal; font-feature-settings: normal; font-optical-sizing: auto; font-variation-settings: normal; white-space: pre;"><tspan x="13.29" y="34" dominant-baseline="ideographic">Recursion</tspan></text></g></g></g><g id="g-root-tx_repeatin_18jfku6idljpi-fill" data-item-order="0" transform="translate(374, 422)"><g id="tx_repeatin_18jfku6idljpi-fill" stroke="none" fill="#f4f4f4"><g><text style="font-style: normal; font-variant-caps: normal; font-weight: normal; font-stretch: normal; font-size: 15px; line-height: normal; font-family: Roboto, sans-serif; font-size-adjust: none; font-kerning: auto; font-variant-alternates: normal; font-variant-ligatures: normal; font-variant-numeric: normal; font-variant-east-asian: normal; font-variant-position: normal; font-variant-emoji: normal; font-feature-settings: normal; font-optical-sizing: auto; font-variation-settings: normal; white-space: pre;"><tspan x="34.25" y="28" dominant-baseline="ideographic">Repeating the </tspan><tspan x="24.25" y="46" dominant-baseline="ideographic">process for each </tspan><tspan x="16.25" y="64" dominant-baseline="ideographic">subset until criteria </tspan><tspan x="54.25" y="82" dominant-baseline="ideographic">are met</tspan></text></g></g></g><g id="g-root-tx_leafnode_zpnzumidljij-fill" data-item-order="0" transform="translate(554, 422)"><g id="tx_leafnode_zpnzumidljij-fill" stroke="none" fill="#ffe711"><g><text style="font-style: normal; font-variant-caps: normal; font-weight: normal; font-stretch: normal; font-size: 20px; line-height: normal; font-family: Roboto, sans-serif; font-size-adjust: none; font-kerning: auto; font-variant-alternates: normal; font-variant-ligatures: normal; font-variant-numeric: normal; font-variant-east-asian: normal; font-variant-position: normal; font-variant-emoji: normal; font-feature-settings: normal; font-optical-sizing: auto; font-variation-settings: normal; white-space: pre;"><tspan x="24.36" y="34" dominant-baseline="ideographic">Leaf Node </tspan><tspan x="16.36" y="58" dominant-baseline="ideographic">Assignment</tspan></text></g></g></g><g id="g-root-tx_assignin_1qdtyriidliis-fill" data-item-order="0" transform="translate(542, 482)"><g id="tx_assignin_1qdtyriidliis-fill" stroke="none" fill="#f4f4f4"><g><text style="font-style: normal; font-variant-caps: normal; font-weight: normal; font-stretch: normal; font-size: 15px; line-height: normal; font-family: Roboto, sans-serif; font-size-adjust: none; font-kerning: auto; font-variant-alternates: normal; font-variant-ligatures: normal; font-variant-numeric: normal; font-variant-east-asian: normal; font-variant-position: normal; font-variant-emoji: normal; font-feature-settings: normal; font-optical-sizing: auto; font-variation-settings: normal; white-space: pre;"><tspan x="29.16" y="31" dominant-baseline="ideographic">Assigning class </tspan><tspan x="25.16" y="49" dominant-baseline="ideographic">labels or average </tspan><tspan x="15.16" y="67" dominant-baseline="ideographic">values to leaf nodes</tspan></text></g></g></g><g id="g-root-cp_1_g-1_mb2xq6idk4xx-stroke" data-item-order="-378564" transform="translate(41.51800537109375, 199.222900390625)"><g id="cp_1_g-1_mb2xq6idk4xx-stroke" fill="none" stroke-linecap="round" stroke-linejoin="round" stroke-miterlimit="4" stroke="#1ac3fb" stroke-width="2"><g><path d="M 177.2129 41.5752C 177.2129 59.0137 171.8281 73.1504 165.1857 73.1504C 164.8608 73.1504 164.539 73.1166 164.2207 73.0502C 164.1852 73.0428 164.1499 73.0351 164.1145 73.0269C 157.9738 71.6041 153.1584 58.066 153.1584 41.5752C 153.1584 25.0844 157.9739 11.5462 164.1145 10.1235C 164.1499 10.1153 164.1852 10.1075 164.2207 10.1002C 164.539 10.0338 164.8608 10 165.1857 10C 171.8281 10 177.2129 24.1367 177.2129 41.5752ZM 43.4093 34.7569L 10 41.575L 43.4096 48.3933C 42.9863 46.1853 42.7646 43.9056 42.7646 41.5742C 42.7646 39.2434 42.9862 36.9643 43.4093 34.7569ZM 153.1584 41.5752C 153.1584 25.0844 157.9739 11.5462 164.1145 10.1235L 108.6183 21.4491C 112.4988 27.1942 114.7646 34.1196 114.7646 41.5742C 114.7646 49.0295 112.4984 55.9555 108.6172 61.7009L 164.1145 73.0269C 157.9738 71.6041 153.1584 58.066 153.1584 41.5752ZM 164.2207 10.1002L 164.1145 10.1235M 164.2207 73.0502L 164.1145 73.0269"></path></g></g></g><g id="g-root-cp_1_g-1_1_dffxhaidk5qn-stroke" data-item-order="-378558" transform="translate(74.00077819824219, 194.797119140625)"><g id="cp_1_g-1_1_dffxhaidk5qn-stroke" fill="none" stroke-linecap="round" stroke-linejoin="round" stroke-miterlimit="4" stroke="#1ac3fb" stroke-width="2"><g><path d="M 82.282227 46C 82.282227 38.5454 80.016427 31.62 76.135927 25.8749C 75.410227 24.8005 74.628127 23.7675 73.793727 22.7799C 67.190127 14.9637 57.315827 10 46.282227 10C 29.697127 10 15.731527 21.2153 11.555627 36.4755C 11.312327 37.3646 11.102227 38.2675 10.926827 39.1827C 10.503727 41.3901 10.282227 43.6692 10.282227 46C 10.282227 48.3314 10.503827 50.6111 10.927227 52.8191C 11.102627 53.7343 11.312827 54.6372 11.556127 55.5263C 15.732627 70.7856 29.697827 82 46.282227 82C 57.315127 82 67.188727 77.0369 73.792427 69.2216C 74.626827 68.2341 75.409127 67.201 76.134827 66.1267C 80.016027 60.3813 82.282227 53.4553 82.282227 46Z"></path></g></g></g><g id="g-root-cp_2_g-2_908wfyidk3d5-stroke" data-item-order="-378552" transform="translate(209.2030029296875, 162.72900390625)"><g id="cp_2_g-2_908wfyidk3d5-stroke" fill="none" stroke-linecap="round" stroke-linejoin="round" stroke-miterlimit="4" stroke="#43dd93" stroke-width="2"><g><path d="M 165.7969 10C 165.4449 10 165.0953 10.0384 164.7483 10.1142L 164.7336 10.1175C 155.2825 12.2115 147.7881 42.0404 147.7881 78.5303C 147.7881 115.0201 155.2825 144.8489 164.7335 146.9431L 164.7483 146.9463C 165.0953 147.0221 165.4449 147.0605 165.7969 147.0605C 170.1299 147.0605 174.1055 141.2372 177.2128 131.5349C 173.8233 118.1173 171.7168 99.328 171.7168 78.5298C 171.7168 57.7319 173.8233 38.9428 177.2126 25.5252C 174.1054 15.8232 170.1298 10 165.7969 10ZM 10 78.5298C 10 59.0238 14.8465 43.0557 20.9814 41.746L 164.7336 10.1175C 155.2825 12.2115 147.7881 42.0404 147.7881 78.5303C 147.7881 115.0201 155.2825 144.8489 164.7335 146.9431L 20.9814 115.3136C 14.8465 114.0039 10 98.0357 10 78.5298ZM 78.7646 114.5332C 98.6469 114.5332 114.7646 98.4155 114.7646 78.5332C 114.7646 58.651 98.6469 42.5332 78.7646 42.5332C 58.8824 42.5332 42.7646 58.651 42.7646 78.5332C 42.7646 98.4155 58.8824 114.5332 78.7646 114.5332ZM 21.7973 115.4004C 21.5231 115.4004 21.251 115.3712 20.9814 115.3136M 21.7973 41.6592C 21.5231 41.6592 21.251 41.6884 20.9814 41.746M 164.7483 10.1142C 164.7434 10.1153 164.7385 10.1164 164.7336 10.1175M 164.7483 146.9463C 164.7434 146.9452 164.7384 146.9441 164.7335 146.9431"></path></g></g></g><g id="g-root-cp_3_g-3_908wfyidk3d7-stroke" data-item-order="-378548" transform="translate(370.9200439453125, 125.781005859375)"><g id="cp_3_g-3_908wfyidk3d7-stroke" fill="none" stroke-linecap="round" stroke-linejoin="round" stroke-miterlimit="4" stroke="#a6da37" stroke-width="2"><g><path d="M 170.9527 220.8398C 171.3264 220.9158 171.7023 220.9307 172.0803 220.9307C 176.0971 220.9307 179.8835 216.5936 183.2101 208.9269C 176.5166 189.2543 172.0781 154.7551 172.0781 115.4829C 172.0781 76.1936 176.5205 41.6814 183.2188 22.0131C 179.8839 14.2967 176.111 10 172.0803 10C 171.7023 10 171.3264 10.0384 170.9527 10.1144L 170.7682 10.1549C 158.1245 13.1488 148.082 59.1531 148.082 115.4653C 148.082 171.7777 158.1246 217.8054 170.7683 220.7993L 170.9527 220.8398ZM 170.7683 220.7993L 27.2269 189.2171C 22.6737 188.3536 18.5605 180.6134 15.496 168.4821C 12.1065 155.0645 10 136.2752 10 115.4771C 10 94.6791 12.1065 75.89 15.4958 62.4725C 18.5603 50.3409 22.6736 42.6005 27.2269 41.737L 170.7682 10.1549C 158.1245 13.1488 148.082 59.1531 148.082 115.4653C 148.082 171.7777 158.1246 217.8054 170.7683 220.7993ZM 79.0479 151.4648C 98.9301 151.4648 115.0479 135.3471 115.0479 115.4648C 115.0479 95.5826 98.9301 79.4648 79.0479 79.4648C 59.1656 79.4648 43.0479 95.5826 43.0479 115.4648C 43.0479 135.3471 59.1656 151.4648 79.0479 151.4648ZM 28.08 189.2979C 27.794 189.2979 27.5096 189.2708 27.2269 189.2171M 28.08 41.6563C 27.794 41.6563 27.5096 41.6834 27.2269 41.737M 170.9527 220.8398C 170.8912 220.8273 170.8297 220.8138 170.7683 220.7993M 170.9527 10.1144C 170.8911 10.1269 170.8297 10.1404 170.7682 10.1549"></path></g></g></g><g id="g-root-cp_4_g-4_4kfebiidk45h-stroke" data-item-order="-378544" transform="translate(532.9979858398438, 88.875)"><g id="cp_4_g-4_4kfebiidk45h-stroke" fill="none" stroke-linecap="round" stroke-linejoin="round" stroke-miterlimit="4" stroke="#ffe711" stroke-width="2"><g><path d="M 207.9855 152.4219C 207.9855 212.9168 200.0451 264.6024 188.8448 285.2461C 185.4822 291.444 181.8256 294.8438 178.002 294.8438C 177.5664 294.8438 177.133 294.7996 176.7019 294.7123C 176.6281 294.6973 176.5544 294.6811 176.4808 294.6636C 160.6281 290.9008 148.0184 228.6561 148.0184 152.4219C 148.0184 76.1895 160.6275 13.9459 176.4796 10.1804C 176.5536 10.1628 176.6277 10.1465 176.7019 10.1315C 177.133 10.0441 177.5664 10 178.002 10C 181.8256 10 185.4822 13.3998 188.8448 19.5977C 200.0451 40.2414 207.9855 91.927 207.9855 152.4219ZM 176.4808 294.6636C 160.6281 290.9008 148.0184 228.6561 148.0184 152.4219C 148.0184 76.1895 160.6275 13.9459 176.4796 10.1804L 33.1104 41.6942C 28.7155 42.4804 24.6232 48.6937 21.1407 58.9194C 14.4424 78.5876 10 113.0998 10 152.3892C 10 191.6613 14.4385 226.1605 21.1319 245.8331C 24.6163 256.0742 28.7118 262.2973 33.1104 263.0841L 176.4808 294.6636ZM 78.9697 188.3828C 98.852 188.3828 114.9697 172.2651 114.9697 152.3828C 114.9697 132.5006 98.852 116.3828 78.9697 116.3828C 59.0875 116.3828 42.9697 132.5006 42.9697 152.3828C 42.9697 172.2651 59.0875 188.3828 78.9697 188.3828ZM 176.7019 294.7123L 176.4808 294.6636M 176.7019 10.1315L 176.4796 10.1804M 34.0609 263.1689C 33.7426 263.1689 33.4257 263.1405 33.1104 263.0841M 34.0609 41.6094C 33.7426 41.6094 33.4257 41.6378 33.1104 41.6942"></path></g></g></g><g id="g-root-ic_infe_8vvr5qidbpc4-stroke" data-item-order="0" transform="translate(86.2030029296875, 207)"><g id="ic_infe_8vvr5qidbpc4-stroke" fill="none" stroke-linecap="round" stroke-linejoin="round" stroke-miterlimit="4" stroke="#1ac3fb" stroke-width="2"><g><path d="M 42.089199 54.676601C 49.000599 54.676601 54.603401 49.073799 54.603401 42.162399C 54.603401 35.250801 49.000599 29.648081 42.089199 29.648081C 35.177799 29.648081 29.574961 35.250801 29.574961 42.162399C 29.574961 49.073799 35.177799 54.676601 42.089199 54.676601ZM 10 10M 50.932201 51.005798L 56.688599 56.762402M 42.089802 43.0802C 41.582802 43.0802 41.171799 42.669201 41.171799 42.162399C 41.171799 41.655399 41.582802 41.244598 42.089802 41.244598M 42.090199 43.0802C 42.597198 43.0802 43.007999 42.669201 43.007999 42.162399C 43.007999 41.655399 42.597198 41.244598 42.090199 41.244598M 34.7062 43.0802C 34.1992 43.0802 33.788399 42.669201 33.788399 42.162399C 33.788399 41.655399 34.1992 41.244598 34.7062 41.244598M 34.7066 43.0802C 35.2136 43.0802 35.624599 42.669201 35.624599 42.162399C 35.624599 41.655399 35.2136 41.244598 34.7066 41.244598M 49.473202 43.0802C 48.9664 43.0802 48.555401 42.669201 48.555401 42.162399C 48.555401 41.655399 48.9664 41.244598 49.473202 41.244598M 49.473801 43.0802C 49.980598 43.0802 50.391602 42.669201 50.391602 42.162399C 50.391602 41.655399 49.980598 41.244598 49.473801 41.244598M 38.1362 48.6436C 37.6292 48.6436 37.218201 48.232601 37.218201 47.7258C 37.218201 47.2188 37.6292 46.8078 38.1362 46.8078M 38.135597 48.6436C 38.642601 48.6436 39.053398 48.232601 39.053398 47.7258C 39.053398 47.2188 38.642601 46.8078 38.135597 46.8078M 38.1362 37.5168C 37.6292 37.5168 37.218201 37.106003 37.218201 36.598999C 37.218201 36.091999 37.6292 35.681198 38.1362 35.681198M 38.135597 37.5168C 38.642601 37.5168 39.053398 37.106003 39.053398 36.598999C 39.053398 36.091999 38.642601 35.681198 38.135597 35.681198M 46.0424 48.6436C 45.5354 48.6436 45.124599 48.232601 45.124599 47.7258C 45.124599 47.2188 45.5354 46.8078 46.0424 46.8078M 46.042599 48.6436C 46.549599 48.6436 46.9604 48.232601 46.9604 47.7258C 46.9604 47.2188 46.549599 46.8078 46.042599 46.8078M 46.0424 37.5168C 45.5354 37.5168 45.124599 37.106003 45.124599 36.598999C 45.124599 36.091999 45.5354 35.681198 46.0424 35.681198M 46.042599 37.5168C 46.549599 37.5168 46.9604 37.106003 46.9604 36.598999C 46.9604 36.091999 46.549599 35.681198 46.042599 35.681198M 27.46516 28.744801C 32.110199 28.744801 35.875603 24.9793 35.875603 20.334301C 35.875603 15.68932 32.110199 11.923828 27.46516 11.923828C 22.820179 11.923828 19.05468 15.68932 19.05468 20.334301C 19.05468 24.9793 22.820179 28.744801 27.46516 28.744801ZM 28.7537 52.294201L 12.32618 52.294201L 12.32618 50.4702C 12.352961 47.905998 13.029221 45.3904 14.29178 43.158401C 15.55434 40.926399 17.36204 39.0508 19.54598 37.706802C 21.72994 36.362999 24.21888 35.594398 26.780359 35.473198"></path></g></g></g><g id="g-root-ic_2_1d3mbemidpptx-stroke" data-item-order="0" transform="translate(255, 207)"><g id="ic_2_1d3mbemidpptx-stroke" fill="none" stroke-linecap="round" stroke-linejoin="round" stroke-miterlimit="4" stroke="#43dd93" stroke-width="2"><g><path d="M 19.5 31.0002C 23.91828 31.0002 27.5 29.56756 27.5 27.80024C 27.5 26.03294 23.91828 24.600239 19.5 24.600239C 15.08172 24.600239 11.5 26.03294 11.5 27.80024C 11.5 29.56756 15.08172 31.0002 19.5 31.0002ZM 11.5 27.79994L 11.5 40.599998C 11.5 42.400002 15.1 43.799999 19.5 43.799999C 23.9 43.799999 27.5 42.400002 27.5 40.599998L 27.5 27.79994M 51.202801 16.746601C 54.030602 16.746601 56.3228 15.50494 56.3228 13.97328C 56.3228 12.4416 54.030602 11.199936 51.202801 11.199936C 48.375198 11.199936 46.082802 12.4416 46.082802 13.97328C 46.082802 15.50494 48.375198 16.746601 51.202801 16.746601ZM 46.082802 13.97338L 46.082802 21.2267C 46.082802 22.720039 48.4296 24.00004 51.202801 24.00004C 53.9762 24.00004 56.3228 22.720039 56.3228 21.2267L 56.3228 13.97338M 51.202801 33.360199C 54.030602 33.360199 56.3228 32.118401 56.3228 30.5868C 56.3228 29.05514 54.030602 27.81348 51.202801 27.81348C 48.375198 27.81348 46.082802 29.05514 46.082802 30.5868C 46.082802 32.118401 48.375198 33.360199 51.202801 33.360199ZM 46.082802 30.587L 46.082802 37.840202C 46.082802 39.333599 48.4296 40.613602 51.202801 40.613602C 53.9762 40.613602 56.3228 39.333599 56.3228 37.840202L 56.3228 30.587M 51.202801 49.5466C 54.030602 49.5466 56.3228 48.305 56.3228 46.773201C 56.3228 45.2416 54.030602 44 51.202801 44C 48.375198 44 46.082802 45.2416 46.082802 46.773201C 46.082802 48.305 48.375198 49.5466 51.202801 49.5466ZM 46.082802 46.773399L 46.082802 54.026798C 46.082802 55.52 48.4296 56.799999 51.202801 56.799999C 53.9762 56.799999 56.3228 55.52 56.3228 54.026798L 56.3228 46.773399M 41.291599 17.4L 37.291599 17.4L 37.291599 50.599998L 41.291599 50.599998M 41.291599 34L 32.291599 34M 11.5 34.262199C 11.5 35.9538 14.959459 37.337601 19.50004 37.337601C 24.0406 37.337601 27.500059 35.9538 27.500059 34.262199"></path></g></g></g><g id="g-root-ic_colu_18lxe0uidpqtq-stroke" data-item-order="0" transform="translate(416, 207.284912109375)"><g id="ic_colu_18lxe0uidpqtq-stroke" fill="none" stroke-linecap="round" stroke-linejoin="round" stroke-miterlimit="4" stroke="#a6da37" stroke-width="2"><g><path d="M 21.5 11.5L 11.5 11.5L 11.5 29.5L 21.5 29.5L 21.5 11.5ZM 10 10M 11.5 20.5L 21.5 20.5M 28.1001 29.5L 18.1001 29.5L 18.1001 47.5L 28.1001 47.5L 28.1001 29.5ZM 10 10M 18.1001 38.5L 28.1001 38.5M 33.5 47.5L 33.5 56.5L 23.5 56.5L 23.5 47.5L 33.5 47.5ZM 10 10M 37.299999 33.900002L 33.299999 37.900002M 33.299999 37.900002L 37.299999 41.900002M 33.299999 37.900002L 37.5 37.900002C 40.900002 37.900002 43.5 35.299999 43.5 31.9L 43.5 23.8999C 43.5 20.499901 40.900002 17.8999 37.5 17.8999L 36.5 17.8999M 10 10M 50.299999 48.5L 46.299999 52.5M 46.299999 52.5L 50.299999 56.5M 46.299999 52.5L 50.5 52.5C 53.900002 52.5 56.5 49.900002 56.5 46.5L 56.5 38.5C 56.5 35.099998 53.900002 32.5 50.5 32.5L 49.5 32.5"></path></g></g></g><g id="g-root-ic_labe_18jfeimidk4qo-stroke" data-item-order="0" transform="translate(578, 207.296875)"><g id="ic_labe_18jfeimidk4qo-stroke" fill="none" stroke-linecap="round" stroke-linejoin="round" stroke-miterlimit="4" stroke="#ffe711" stroke-width="2"><g><path d="M 41.029999 38.543999C 37.629997 40.636002 36.110001 43.91 41.804001 47.450001C 42.388 54.136002 45.633999 54.490002 49.403999 52.175999C 52.866001 50.054001 56.403999 42.925999 56.234001 37.664001C 56.224483 37.353966 56.071632 37.065899 55.820236 36.884205C 55.568844 36.702511 55.247364 36.647762 54.950001 36.736C 49.757999 38.274002 45 36.108002 41.029999 38.543999ZM 34.063999 56.689999C 34.063999 56.689999 42.984001 43.372002 50.599998 41.641998M 23.136 47.599998C 23.323845 47.789928 23.57987 47.896809 23.847 47.896809C 24.11413 47.896809 24.370155 47.789928 24.557999 47.599998L 48.063999 23.6C 48.24728 23.413094 48.34996 23.161774 48.349998 22.9L 48.349998 12.309999C 48.349998 11.757715 47.902287 11.309999 47.349998 11.309999L 36.248001 11.322001C 35.983009 11.322587 35.729084 11.428329 35.542 11.616L 12.058001 35.101997C 11.667618 35.4925 11.667618 36.1255 12.058001 36.515999ZM 38.349998 18.310001C 38.349998 19.966854 39.693146 21.310001 41.349998 21.310001C 43.006855 21.310001 44.350002 19.966854 44.350002 18.310001C 44.350002 16.653145 43.006855 15.31 41.349998 15.31C 39.693146 15.31 38.349998 16.653145 38.349998 18.310001Z"></path></g></g></g><g id="g-root-tx_features_qvwev2idiqz3-stroke" data-item-order="0" transform="translate(62, 314)"></g><g id="g-root-tx_dataspli_qungouidk3r4-stroke" data-item-order="0" transform="translate(212, 350)"></g><g id="g-root-tx_identify_dcy7geidk2z1-stroke" data-item-order="0" transform="translate(38, 374)"></g><g id="g-root-tx_dividing_1d2zxhaidk2rv-stroke" data-item-order="0" transform="translate(206, 386)"></g><g id="g-root-tx_recursio_4m2imidljwk-stroke" data-item-order="0" transform="translate(398, 386)"></g><g id="g-root-tx_repeatin_18jfku6idljpi-stroke" data-item-order="0" transform="translate(374, 422)"></g><g id="g-root-tx_leafnode_zpnzumidljij-stroke" data-item-order="0" transform="translate(554, 422)"></g><g id="g-root-tx_assignin_1qdtyriidliis-stroke" data-item-order="0" transform="translate(542, 482)"></g></g></g><path id="w1hfpl4uk13m6e" d="M65.283 12.757a.35.35 0 0 0 .584.157l5.203-5.141-6.183 3.523.396 1.461zm-2.216-11.7a.35.35 0 0 0-.522.305v3.111l3.276-1.868-2.754-1.548zm3.728 2.105l-4.25 2.421v2.445l6.391-3.644-2.141-1.222zm4.708 3.303a.35.35 0 0 0 0-.609l-1.592-.9-7.365 4.199v1.782a.35.35 0 0 0 .523.305l8.435-4.777z M44.542 2.513c0-.433.355-.783.792-.783s.792.35.792.783-.355.783-.792.783-.792-.35-.792-.783zm59.171 0c0-.433.355-.783.792-.783s.792.35.792.783-.355.783-.792.783-.792-.35-.792-.783zm-85.951 7.636h-1.27v-.487c-.276.201-.864.609-1.881.609-1.202 0-2.274-.794-2.137-2.078.118-1.106 1.153-1.584 1.848-1.727l2.17-.345c0-.539-.29-.956-1.064-1.006s-1.21.305-1.571 1.017l-1.124-.605c1.218-2.631 5.029-1.764 5.029.414v4.207zm-1.27-2.86c.006.396-.062 1.112-.819 1.59-.587.37-1.841.299-1.903-.395-.049-.555.461-.791.906-.898l1.816-.297zm72.662 2.86h-1.27v-.487c-.276.201-.864.609-1.881.609-1.202 0-2.274-.794-2.137-2.078.118-1.106 1.153-1.584 1.848-1.727l2.17-.345c0-.539-.29-.956-1.064-1.006s-1.21.305-1.571 1.017l-1.124-.605c1.218-2.631 5.029-1.764 5.029.414v4.207zm-1.27-2.86c.006.396-.062 1.112-.82 1.59-.587.37-1.841.299-1.903-.395-.049-.555.461-.791.906-.898l1.816-.297zM99.096 10.149H97.85v-8.45h1.246v4.895l2.68-2.559h1.738l-2.633 2.535 2.715 3.578h-1.556l-2.077-2.707-.867.844v1.863zm6.053-6.114h-1.255v6.113h1.255V4.035zm-59.2 0h-1.255v6.113h1.255V4.035zm5.584 6.113V1.697h1.255v2.695c.361-.346 1-.485 1.47-.485 1.452 0 2.477 1.082 2.457 2.448v3.792h-1.27v-3.68c0-.408-.214-1.339-1.315-1.339-.968 0-1.342.756-1.342 1.339v3.681h-1.255zm-4.76-4.894V4.039h.621a.45.45 0 0 0 .45-.45v-.855h1.251v1.305h1.309v1.215h-1.309v3.109c0 .293.105.664.648.664.365 0 .531-.035.736-.07v1.137s-.361.113-.857.113c-1.398 0-1.777-1.051-1.777-1.788V5.254h-1.071zM36.528 4.039h-1.394l2.191 6.106h1.125l1.234-3.918 1.238 3.918h1.129l2.188-6.106h-1.383l-1.359 3.93-1.256-3.93h-1.124l-1.242 3.957-1.348-3.957zM26.212 7.141c-.02 1.566 1.187 3.129 3.223 3.129 1.566 0 2.383-.918 2.734-1.719L31.172 8c-.315.399-.801 1.094-1.738 1.094-1.145 0-1.825-.781-1.891-1.52h4.625c.074-.284.148-.995-.03-1.559-.336-1.064-1.221-2.102-2.839-2.102s-3.088 1.152-3.088 3.227zm1.363-.75h3.348c-.055-.43-.566-1.301-1.623-1.301a1.79 1.79 0 0 0-1.725 1.301zm-8.758.75c.038 1.758 1.277 3.133 3.145 3.133 1.074 0 1.723-.477 1.961-.672v.547h1.242V1.703h-1.258v2.888c-.414-.36-1.062-.68-1.93-.68-1.91 0-3.198 1.473-3.16 3.23zm1.309-.08c0 1.119.723 1.978 1.836 1.978a1.88 1.88 0 0 0 1.94-1.904c0-1.371-1.011-1.99-1.972-1.99s-1.805.798-1.805 1.916zm76.683-.028C96.771 5.275 95.532 3.9 93.664 3.9c-1.074 0-1.723.477-1.961.672v-.547h-1.242v8.22h1.258V9.583c.414.36 1.063.68 1.93.68 1.91 0 3.198-1.473 3.16-3.23zm-1.309.08c0-1.119-.723-1.978-1.836-1.978a1.88 1.88 0 0 0-1.94 1.904c0 1.371 1.011 1.99 1.972 1.99S95.5 8.231 95.5 7.113zM106.441 10.173V4.036h1.254v.382c.361-.346 1-.485 1.47-.485 1.452 0 2.477 1.082 2.457 2.448v3.792h-1.27V6.492c0-.408-.214-1.339-1.315-1.339-.969 0-1.342.756-1.342 1.339v3.681h-1.254zm-30.383-.021V1.824h1.084l4.215 5.777V1.824h1.32v8.328h-1.094l-4.207-5.796v5.796h-1.319zM5.24 10.149H4V2.377h1.014l2.664 3.597 2.654-3.592h1.03v7.766h-1.256V4.762L7.678 8.068 5.24 4.742v5.407z" transform="translate(629, 602)" fill="#ababab88" stroke="none"></path></svg>