<?xml version="1.0" encoding="utf-8" standalone="yes"?>
<!DOCTYPE svg PUBLIC "-//W3C//DTD SVG 1.1//EN" "http://www.w3.org/Graphics/SVG/1.1/DTD/svg11.dtd">
<svg width="792" height="612" viewBox="0 0 792 612" style="fill:none;stroke:none;fill-rule:evenodd;clip-rule:evenodd;stroke-linecap:round;stroke-linejoin:round;stroke-miterlimit:1.5;" version="1.1" xmlns="http://www.w3.org/2000/svg" xmlns:xlink="http://www.w3.org/1999/xlink"><style class="text-font-style fontImports" data-font-family="Roboto">@import url(https://fonts.googleapis.com/css2?family=Roboto:wght@400;700&amp;amp;display=block);</style><g id="items" style="isolation: isolate"><g id="blend" style="mix-blend-mode: normal"><g id="g-root-cp_1_uc_1uqk5e6lf78jl-fill" data-item-order="-383891" transform="translate(305.510009765625, 170.22998046875)"></g><g id="g-root-cp_2_uc_1_1lux55alf79cb-fill" data-item-order="-383883" transform="translate(391.3599853515625, 175.7001953125)"></g><g id="g-root-cp_3_uc_2_1lux55alf79cd-fill" data-item-order="-383875" transform="translate(475.1600341796875, 206.39990234375)"></g><g id="g-root-cp_4_uc_3_1hfq43ylf76yv-fill" data-item-order="-383867" transform="translate(517.97998046875, 280.48974609375)"></g><g id="g-root-cp_5_uc_4_1hfq43ylf76yx-fill" data-item-order="-383859" transform="translate(465.52001953125, 369.7001953125)"></g><g id="g-root-cp_6_uc_5_1hfq43ylf76yz-fill" data-item-order="-383851" transform="translate(380.6400146484375, 439.91015625)"></g><g id="g-root-cp_7_uc_6_1czwlzilf77r9-fill" data-item-order="-383843" transform="translate(295.760009765625, 431.4697265625)"></g><g id="g-root-cp_8_uc_7_1czwlzilf77rb-fill" data-item-order="-383835" transform="translate(243.29998779296875, 359.27001953125)"></g><g id="g-root-cp_9_uc_8_1czwlzilf77rd-fill" data-item-order="-383827" transform="translate(241.58999633789062, 270.009765625)"></g><g id="g-root-cp_10_uc_9_18k33v2lf78jn-fill" data-item-order="-383819" transform="translate(250.3699951171875, 197.81005859375)"></g><g id="g-root-tx_modeldep_deuonilf8mbo-fill" data-item-order="0" transform="translate(146, 230)"><g id="tx_modeldep_deuonilf8mbo-fill" stroke="none" fill="#8769fd"><g><text style="font-style: normal; font-variant-caps: normal; font-weight: normal; font-stretch: normal; font-size: 15px; line-height: normal; font-family: Roboto, sans-serif; font-size-adjust: none; font-kerning: auto; font-variant-alternates: normal; font-variant-ligatures: normal; font-variant-numeric: normal; font-variant-east-asian: normal; font-variant-position: normal; font-variant-emoji: normal; font-feature-settings: normal; font-optical-sizing: auto; font-variation-settings: normal; white-space: pre;"><tspan x="34" y="28" dominant-baseline="ideographic">9. Model </tspan><tspan x="12" y="46" dominant-baseline="ideographic">Deployment</tspan></text></g></g></g><g id="g-root-tx_featuree_zqbivilf78co-fill" data-item-order="0" transform="translate(542, 236)"><g id="tx_featuree_zqbivilf78co-fill" stroke="none" fill="#a6da37"><g><text style="font-style: normal; font-variant-caps: normal; font-weight: normal; font-stretch: normal; font-size: 15px; line-height: normal; font-family: Roboto, sans-serif; font-size-adjust: none; font-kerning: auto; font-variant-alternates: normal; font-variant-ligatures: normal; font-variant-numeric: normal; font-variant-east-asian: normal; font-variant-position: normal; font-variant-emoji: normal; font-feature-settings: normal; font-optical-sizing: auto; font-variation-settings: normal; white-space: pre;"><tspan x="12" y="28" dominant-baseline="ideographic">3. Feature </tspan><tspan x="12" y="46" dominant-baseline="ideographic">Engineering</tspan></text></g></g></g><g id="g-root-tx_deploymo_1q9hp3ilf8lcd-fill" data-item-order="0" transform="translate(146, 272)"><g id="tx_deploymo_1q9hp3ilf8lcd-fill" stroke="none" fill="#f4f4f4"><g><text style="font-style: normal; font-variant-caps: normal; font-weight: normal; font-stretch: normal; font-size: 10px; line-height: normal; font-family: Roboto, sans-serif; font-size-adjust: none; font-kerning: auto; font-variant-alternates: normal; font-variant-ligatures: normal; font-variant-numeric: normal; font-variant-east-asian: normal; font-variant-position: normal; font-variant-emoji: normal; font-feature-settings: normal; font-optical-sizing: auto; font-variation-settings: normal; white-space: pre;"><tspan x="20" y="21" dominant-baseline="ideographic">Deploy model to </tspan><tspan x="44" y="33" dominant-baseline="ideographic">production </tspan><tspan x="36" y="45" dominant-baseline="ideographic">environment</tspan></text></g></g></g><g id="g-root-tx_cleanand_1qcm2j2lf78cn-fill" data-item-order="0" transform="translate(494, 200)"><g id="tx_cleanand_1qcm2j2lf78cn-fill" stroke="none" fill="#f4f4f4"><g><text style="font-style: normal; font-variant-caps: normal; font-weight: normal; font-stretch: normal; font-size: 10px; line-height: normal; font-family: Roboto, sans-serif; font-size-adjust: none; font-kerning: auto; font-variant-alternates: normal; font-variant-ligatures: normal; font-variant-numeric: normal; font-variant-east-asian: normal; font-variant-position: normal; font-variant-emoji: normal; font-feature-settings: normal; font-optical-sizing: auto; font-variation-settings: normal; white-space: pre;"><tspan x="12" y="21" dominant-baseline="ideographic">Clean and prepare data</tspan></text></g></g></g><g id="g-root-ic_exch_18k33v2lf8mpu-fill" data-item-order="0" transform="translate(350, 284)"></g><g id="g-root-tx_modelmon_1hbz9lalf8nwi-fill" data-item-order="0" transform="translate(206, 134)"><g id="tx_modelmon_1hbz9lalf8nwi-fill" stroke="none" fill="#4f91fc"><g><text style="font-style: normal; font-variant-caps: normal; font-weight: normal; font-stretch: normal; font-size: 15px; line-height: normal; font-family: Roboto, sans-serif; font-size-adjust: none; font-kerning: auto; font-variant-alternates: normal; font-variant-ligatures: normal; font-variant-numeric: normal; font-variant-east-asian: normal; font-variant-position: normal; font-variant-emoji: normal; font-feature-settings: normal; font-optical-sizing: auto; font-variation-settings: normal; white-space: pre;"><tspan x="25" y="28" dominant-baseline="ideographic">10. Model </tspan><tspan x="19" y="46" dominant-baseline="ideographic">Monitoring</tspan></text></g></g></g><g id="g-root-tx_selectan_hznzgulf77k1-fill" data-item-order="0" transform="translate(542, 278)"><g id="tx_selectan_hznzgulf77k1-fill" stroke="none" fill="#f4f4f4"><g><text style="font-style: normal; font-variant-caps: normal; font-weight: normal; font-stretch: normal; font-size: 10px; line-height: normal; font-family: Roboto, sans-serif; font-size-adjust: none; font-kerning: auto; font-variant-alternates: normal; font-variant-ligatures: normal; font-variant-numeric: normal; font-variant-east-asian: normal; font-variant-position: normal; font-variant-emoji: normal; font-feature-settings: normal; font-optical-sizing: auto; font-variation-settings: normal; white-space: pre;"><tspan x="12" y="21" dominant-baseline="ideographic">Select and transform </tspan><tspan x="12" y="33" dominant-baseline="ideographic">features</tspan></text></g></g></g><g id="g-root-tx_hyperpar_18i7olqlf8npi-fill" data-item-order="0" transform="translate(98, 338)"><g id="tx_hyperpar_18i7olqlf8npi-fill" stroke="none" fill="#cb68f9"><g><text style="font-style: normal; font-variant-caps: normal; font-weight: normal; font-stretch: normal; font-size: 15px; line-height: normal; font-family: Roboto, sans-serif; font-size-adjust: none; font-kerning: auto; font-variant-alternates: normal; font-variant-ligatures: normal; font-variant-numeric: normal; font-variant-east-asian: normal; font-variant-position: normal; font-variant-emoji: normal; font-feature-settings: normal; font-optical-sizing: auto; font-variation-settings: normal; white-space: pre;"><tspan x="19" y="28" dominant-baseline="ideographic">8.Hyperparameter </tspan><tspan x="94" y="46" dominant-baseline="ideographic">Tuning</tspan></text></g></g></g><g id="g-root-tx_continuo_v5i826lf8n4b-fill" data-item-order="0" transform="translate(182, 176)"><g id="tx_continuo_v5i826lf8n4b-fill" stroke="none" fill="#f4f4f4"><g><text style="font-style: normal; font-variant-caps: normal; font-weight: normal; font-stretch: normal; font-size: 10px; line-height: normal; font-family: Roboto, sans-serif; font-size-adjust: none; font-kerning: auto; font-variant-alternates: normal; font-variant-ligatures: normal; font-variant-numeric: normal; font-variant-east-asian: normal; font-variant-position: normal; font-variant-emoji: normal; font-feature-settings: normal; font-optical-sizing: auto; font-variation-settings: normal; white-space: pre;"><tspan x="20" y="21" dominant-baseline="ideographic">Continuously monitor </tspan><tspan x="38" y="33" dominant-baseline="ideographic">and retrain model</tspan></text></g></g></g><g id="g-root-tx_gatherre_18f3b66lf8mj3-fill" data-item-order="0" transform="translate(320, 134)"><g id="tx_gatherre_18f3b66lf8mj3-fill" stroke="none" fill="#f4f4f4"><g><text style="font-style: normal; font-variant-caps: normal; font-weight: normal; font-stretch: normal; font-size: 10px; line-height: normal; font-family: Roboto, sans-serif; font-size-adjust: none; font-kerning: auto; font-variant-alternates: normal; font-variant-ligatures: normal; font-variant-numeric: normal; font-variant-east-asian: normal; font-variant-position: normal; font-variant-emoji: normal; font-feature-settings: normal; font-optical-sizing: auto; font-variation-settings: normal; white-space: pre;"><tspan x="17.5" y="21" dominant-baseline="ideographic">Gather relevant labeled </tspan><tspan x="52.5" y="33" dominant-baseline="ideographic">dataset</tspan></text></g></g></g><g id="g-root-tx_optimize_mbqn2mlf8mxb-fill" data-item-order="0" transform="translate(134, 380)"><g id="tx_optimize_mbqn2mlf8mxb-fill" stroke="none" fill="#f4f4f4"><g><text style="font-style: normal; font-variant-caps: normal; font-weight: normal; font-stretch: normal; font-size: 10px; line-height: normal; font-family: Roboto, sans-serif; font-size-adjust: none; font-kerning: auto; font-variant-alternates: normal; font-variant-ligatures: normal; font-variant-numeric: normal; font-variant-east-asian: normal; font-variant-position: normal; font-variant-emoji: normal; font-feature-settings: normal; font-optical-sizing: auto; font-variation-settings: normal; white-space: pre;"><tspan x="64" y="21" dominant-baseline="ideographic">Optimize </tspan><tspan x="13" y="33" dominant-baseline="ideographic">hyperparameters for </tspan><tspan x="18" y="45" dominant-baseline="ideographic">better performance</tspan></text></g></g></g><g id="g-root-tx_datacoll_1ulkcpalf8nba-fill" data-item-order="0" transform="translate(308, 104)"><g id="tx_datacoll_1ulkcpalf8nba-fill" stroke="none" fill="#1ac3fb"><g><text style="font-style: normal; font-variant-caps: normal; font-weight: normal; font-stretch: normal; font-size: 15px; line-height: normal; font-family: Roboto, sans-serif; font-size-adjust: none; font-kerning: auto; font-variant-alternates: normal; font-variant-ligatures: normal; font-variant-numeric: normal; font-variant-east-asian: normal; font-variant-position: normal; font-variant-emoji: normal; font-feature-settings: normal; font-optical-sizing: auto; font-variation-settings: normal; white-space: pre;"><tspan x="17.07" y="31" dominant-baseline="ideographic">1. Data Collection</tspan></text></g></g></g><g id="g-root-tx_divideda_1d30zf2lf78xv-fill" data-item-order="0" transform="translate(542, 374)"><g id="tx_divideda_1d30zf2lf78xv-fill" stroke="none" fill="#f4f4f4"><g><text style="font-style: normal; font-variant-caps: normal; font-weight: normal; font-stretch: normal; font-size: 10px; line-height: normal; font-family: Roboto, sans-serif; font-size-adjust: none; font-kerning: auto; font-variant-alternates: normal; font-variant-ligatures: normal; font-variant-numeric: normal; font-variant-east-asian: normal; font-variant-position: normal; font-variant-emoji: normal; font-feature-settings: normal; font-optical-sizing: auto; font-variation-settings: normal; white-space: pre;"><tspan x="12" y="21" dominant-baseline="ideographic">Divide data into </tspan><tspan x="12" y="33" dominant-baseline="ideographic">training and testing </tspan><tspan x="12" y="45" dominant-baseline="ideographic">sets</tspan></text></g></g></g><g id="g-root-tx_modeleva_4l33nylf8m4o-fill" data-item-order="0" transform="translate(194, 434)"><g id="tx_modeleva_4l33nylf8m4o-fill" stroke="none" fill="#f366bb"><g><text style="font-style: normal; font-variant-caps: normal; font-weight: normal; font-stretch: normal; font-size: 15px; line-height: normal; font-family: Roboto, sans-serif; font-size-adjust: none; font-kerning: auto; font-variant-alternates: normal; font-variant-ligatures: normal; font-variant-numeric: normal; font-variant-east-asian: normal; font-variant-position: normal; font-variant-emoji: normal; font-feature-settings: normal; font-optical-sizing: auto; font-variation-settings: normal; white-space: pre;"><tspan x="34" y="28" dominant-baseline="ideographic">7. Model </tspan><tspan x="22" y="46" dominant-baseline="ideographic">Evaluation</tspan></text></g></g></g><g id="g-root-tx_trainalg_2583ylf8lqh-fill" data-item-order="0" transform="translate(344, 512)"><g id="tx_trainalg_2583ylf8lqh-fill" stroke="none" fill="#f4f4f4"><g><text style="font-style: normal; font-variant-caps: normal; font-weight: normal; font-stretch: normal; font-size: 10px; line-height: normal; font-family: Roboto, sans-serif; font-size-adjust: none; font-kerning: auto; font-variant-alternates: normal; font-variant-ligatures: normal; font-variant-numeric: normal; font-variant-east-asian: normal; font-variant-position: normal; font-variant-emoji: normal; font-feature-settings: normal; font-optical-sizing: auto; font-variation-settings: normal; white-space: pre;"><tspan x="16.03" y="21" dominant-baseline="ideographic">Train algorithm on </tspan><tspan x="29.03" y="33" dominant-baseline="ideographic">training data</tspan></text></g></g></g><g id="g-root-tx_modelsel_qwjxvylf785o-fill" data-item-order="0" transform="translate(494, 434)"><g id="tx_modelsel_qwjxvylf785o-fill" stroke="none" fill="#f79438"><g><text style="font-style: normal; font-variant-caps: normal; font-weight: normal; font-stretch: normal; font-size: 15px; line-height: normal; font-family: Roboto, sans-serif; font-size-adjust: none; font-kerning: auto; font-variant-alternates: normal; font-variant-ligatures: normal; font-variant-numeric: normal; font-variant-east-asian: normal; font-variant-position: normal; font-variant-emoji: normal; font-feature-settings: normal; font-optical-sizing: auto; font-variation-settings: normal; white-space: pre;"><tspan x="12" y="28" dominant-baseline="ideographic">5. Model </tspan><tspan x="12" y="46" dominant-baseline="ideographic">Selection</tspan></text></g></g></g><g id="g-root-tx_evaluate_1qaqn9qlf8nih-fill" data-item-order="0" transform="translate(170, 476)"><g id="tx_evaluate_1qaqn9qlf8nih-fill" stroke="none" fill="#f4f4f4"><g><text style="font-style: normal; font-variant-caps: normal; font-weight: normal; font-stretch: normal; font-size: 10px; line-height: normal; font-family: Roboto, sans-serif; font-size-adjust: none; font-kerning: auto; font-variant-alternates: normal; font-variant-ligatures: normal; font-variant-numeric: normal; font-variant-east-asian: normal; font-variant-position: normal; font-variant-emoji: normal; font-feature-settings: normal; font-optical-sizing: auto; font-variation-settings: normal; white-space: pre;"><tspan x="18" y="21" dominant-baseline="ideographic">Evaluate performance </tspan><tspan x="49" y="33" dominant-baseline="ideographic">on testing data</tspan></text></g></g></g><g id="g-root-tx_modeltra_dcz9e6lf8nbc-fill" data-item-order="0" transform="translate(320, 482)"><g id="tx_modeltra_dcz9e6lf8nbc-fill" stroke="none" fill="#fb6762"><g><text style="font-style: normal; font-variant-caps: normal; font-weight: normal; font-stretch: normal; font-size: 15px; line-height: normal; font-family: Roboto, sans-serif; font-size-adjust: none; font-kerning: auto; font-variant-alternates: normal; font-variant-ligatures: normal; font-variant-numeric: normal; font-variant-east-asian: normal; font-variant-position: normal; font-variant-emoji: normal; font-feature-settings: normal; font-optical-sizing: auto; font-variation-settings: normal; white-space: pre;"><tspan x="12.21" y="31" dominant-baseline="ideographic">6. Model Training</tspan></text></g></g></g><g id="g-root-tx_chooseap_8vwt3ilf8lxh-fill" data-item-order="0" transform="translate(494, 476)"><g id="tx_chooseap_8vwt3ilf8lxh-fill" stroke="none" fill="#f4f4f4"><g><text style="font-style: normal; font-variant-caps: normal; font-weight: normal; font-stretch: normal; font-size: 10px; line-height: normal; font-family: Roboto, sans-serif; font-size-adjust: none; font-kerning: auto; font-variant-alternates: normal; font-variant-ligatures: normal; font-variant-numeric: normal; font-variant-east-asian: normal; font-variant-position: normal; font-variant-emoji: normal; font-feature-settings: normal; font-optical-sizing: auto; font-variation-settings: normal; white-space: pre;"><tspan x="12" y="21" dominant-baseline="ideographic">Choose appropriate </tspan><tspan x="12" y="33" dominant-baseline="ideographic">algorithm</tspan></text></g></g></g><g id="g-root-tx_dataprep_925jymlf79ce-fill" data-item-order="0" transform="translate(494, 158)"><g id="tx_dataprep_925jymlf79ce-fill" stroke="none" fill="#43dd93"><g><text style="font-style: normal; font-variant-caps: normal; font-weight: normal; font-stretch: normal; font-size: 15px; line-height: normal; font-family: Roboto, sans-serif; font-size-adjust: none; font-kerning: auto; font-variant-alternates: normal; font-variant-ligatures: normal; font-variant-numeric: normal; font-variant-east-asian: normal; font-variant-position: normal; font-variant-emoji: normal; font-feature-settings: normal; font-optical-sizing: auto; font-variation-settings: normal; white-space: pre;"><tspan x="12" y="28" dominant-baseline="ideographic">2. Data </tspan><tspan x="12" y="46" dominant-baseline="ideographic">Preprocessing</tspan></text></g></g></g><g id="g-root-tx_dataspli_1uuazwulf76kq-fill" data-item-order="0" transform="translate(542, 344)"><g id="tx_dataspli_1uuazwulf76kq-fill" stroke="none" fill="#ffe711"><g><text style="font-style: normal; font-variant-caps: normal; font-weight: normal; font-stretch: normal; font-size: 15px; line-height: normal; font-family: Roboto, sans-serif; font-size-adjust: none; font-kerning: auto; font-variant-alternates: normal; font-variant-ligatures: normal; font-variant-numeric: normal; font-variant-east-asian: normal; font-variant-position: normal; font-variant-emoji: normal; font-feature-settings: normal; font-optical-sizing: auto; font-variation-settings: normal; white-space: pre;"><tspan x="12" y="31" dominant-baseline="ideographic">4. Data Splitting</tspan></text></g></g></g><g id="g-root-cp_1_uc_1uqk5e6lf78jl-stroke" data-item-order="-383891" transform="translate(305.510009765625, 170.22998046875)"><g id="cp_1_uc_1uqk5e6lf78jl-stroke" fill="none" stroke-linecap="round" stroke-linejoin="round" stroke-miterlimit="4" stroke="#1ac3fb" stroke-width="2"><g><path d="M 95.850371 15.36C 95.850371 18.3202 93.450571 20.72 90.490371 20.72C 87.530071 20.72 85.130371 18.3202 85.130371 15.36C 85.130371 12.3997 87.530071 10 90.490371 10C 93.450571 10 95.850371 12.3997 95.850371 15.36ZM 85.18 15.469971C 57.4 16.479971 31.63 25.319971 10 39.859971"></path></g></g></g><g id="g-root-cp_2_uc_1_1lux55alf79cb-stroke" data-item-order="-383883" transform="translate(391.3599853515625, 175.7001953125)"><g id="cp_2_uc_1_1lux55alf79cb-stroke" fill="none" stroke-linecap="round" stroke-linejoin="round" stroke-miterlimit="4" stroke="#43dd93" stroke-width="2"><g><path d="M 94.880156 37.470107C 94.880156 40.430307 92.480456 42.830107 89.520156 42.830107C 86.559956 42.830107 84.160156 40.430307 84.160156 37.470107C 84.160156 34.509907 86.559956 32.110107 89.520156 32.110107C 92.480456 32.110107 94.880156 34.509907 94.880156 37.470107ZM 85.17 34.42C 63.55 19.87 37.77 11.02 10 10"></path></g></g></g><g id="g-root-cp_3_uc_2_1lux55alf79cd-stroke" data-item-order="-383875" transform="translate(475.1600341796875, 206.39990234375)"><g id="cp_3_uc_2_1lux55alf79cd-stroke" fill="none" stroke-linecap="round" stroke-linejoin="round" stroke-miterlimit="4" stroke="#a6da37" stroke-width="2"><g><path d="M 63.539824 78.970107C 63.539824 81.930307 61.140024 84.330107 58.179824 84.330107C 55.219524 84.330107 52.819824 81.930307 52.819824 78.970107C 52.819824 76.009907 55.219524 73.610107 58.179824 73.610107C 61.140024 73.610107 63.539824 76.009907 63.539824 78.970107ZM 56.48 73.94C 47.17 48.51 30.91 26.43 10 10"></path></g></g></g><g id="g-root-cp_4_uc_3_1hfq43ylf76yv-stroke" data-item-order="-383867" transform="translate(517.97998046875, 280.48974609375)"><g id="cp_4_uc_3_1hfq43ylf76yv-stroke" fill="none" stroke-linecap="round" stroke-linejoin="round" stroke-miterlimit="4" stroke="#ffe711" stroke-width="2"><g><path d="M 20.72 94.140029C 20.72 97.100329 18.3202 99.500029 15.36 99.500029C 12.3997 99.500029 10 97.100329 10 94.140029C 10 91.179829 12.3997 88.780029 15.36 88.780029C 18.3202 88.780029 20.72 91.179829 20.72 94.140029ZM 16.950195 89.06C 20.520195 76.49 22.430195 63.22 22.430195 49.51C 22.430195 35.8 20.520195 22.56 16.960195 10"></path></g></g></g><g id="g-root-cp_5_uc_4_1hfq43ylf76yx-stroke" data-item-order="-383859" transform="translate(465.52001953125, 369.7001953125)"><g id="cp_5_uc_4_1hfq43ylf76yx-stroke" fill="none" stroke-linecap="round" stroke-linejoin="round" stroke-miterlimit="4" stroke="#f79438" stroke-width="2"><g><path d="M 20.72 77.13002C 20.72 80.09022 18.3203 82.49002 15.36 82.49002C 12.3998 82.49002 10 80.09022 10 77.13002C 10 74.16972 12.3998 71.77002 15.36 71.77002C 18.3203 71.77002 20.72 74.16972 20.72 77.13002ZM 19.609863 73.93C 40.519863 57.5 56.789863 35.43 66.109863 10"></path></g></g></g><g id="g-root-cp_6_uc_5_1hfq43ylf76yz-stroke" data-item-order="-383851" transform="translate(380.6400146484375, 439.91015625)"><g id="cp_6_uc_5_1hfq43ylf76yz-stroke" fill="none" stroke-linecap="round" stroke-linejoin="round" stroke-miterlimit="4" stroke="#fb6762" stroke-width="2"><g><path d="M 20.72 34.500137C 20.72 37.460437 18.3202 39.860137 15.36 39.860137C 12.3997 39.860137 10 37.460437 10 34.500137C 10 31.539937 12.3997 29.140137 15.36 29.140137C 18.3202 29.140137 20.72 31.539937 20.72 34.500137ZM 20.669922 34.39C 48.449922 33.38 74.219922 24.54 95.849922 10"></path></g></g></g><g id="g-root-cp_7_uc_6_1czwlzilf77r9-stroke" data-item-order="-383843" transform="translate(295.760009765625, 431.4697265625)"><g id="cp_7_uc_6_1czwlzilf77r9-stroke" fill="none" stroke-linecap="round" stroke-linejoin="round" stroke-miterlimit="4" stroke="#f366bb" stroke-width="2"><g><path d="M 20.72 15.36C 20.72 18.3202 18.3202 20.72 15.36 20.72C 12.3997 20.72 10 18.3202 10 15.36C 10 12.3997 12.3997 10 15.36 10C 18.3202 10 20.72 12.3997 20.72 15.36ZM 19.710449 18.409912C 41.330449 32.959912 67.110449 41.809912 94.880449 42.829912"></path></g></g></g><g id="g-root-cp_8_uc_7_1czwlzilf77rb-stroke" data-item-order="-383835" transform="translate(243.29998779296875, 359.27001953125)"><g id="cp_8_uc_7_1czwlzilf77rb-stroke" fill="none" stroke-linecap="round" stroke-linejoin="round" stroke-miterlimit="4" stroke="#cb68f9" stroke-width="2"><g><path d="M 20.72 15.36C 20.72 18.3203 18.3202 20.72 15.36 20.72C 12.3998 20.72 10 18.3203 10 15.36C 10 12.3998 12.3998 10 15.36 10C 18.3202 10 20.72 12.3998 20.72 15.36ZM 17.060059 20.389893C 26.370059 45.819893 42.630059 67.899893 63.540059 84.329893"></path></g></g></g><g id="g-root-cp_9_uc_8_1czwlzilf77rd-stroke" data-item-order="-383827" transform="translate(241.58999633789062, 270.009765625)"><g id="cp_9_uc_8_1czwlzilf77rd-stroke" fill="none" stroke-linecap="round" stroke-linejoin="round" stroke-miterlimit="4" stroke="#8769fd" stroke-width="2"><g><path d="M 22.429961 15.36C 22.429961 18.3202 20.030161 20.72 17.069961 20.72C 14.109761 20.72 11.709961 18.3202 11.709961 15.36C 11.709961 12.3998 14.109761 10 17.069961 10C 20.030161 10 22.429961 12.3998 22.429961 15.36ZM 15.48 20.439941C 11.91 33.009941 10 46.279941 10 59.989941C 10 73.699941 11.91 86.939941 15.47 99.499941"></path></g></g></g><g id="g-root-cp_10_uc_9_18k33v2lf78jn-stroke" data-item-order="-383819" transform="translate(250.3699951171875, 197.81005859375)"><g id="cp_10_uc_9_18k33v2lf78jn-stroke" fill="none" stroke-linecap="round" stroke-linejoin="round" stroke-miterlimit="4" stroke="#4f91fc" stroke-width="2"><g><path d="M 66.109648 15.36C 66.109648 18.3202 63.709848 20.72 60.749648 20.72C 57.789348 20.72 55.389648 18.3202 55.389648 15.36C 55.389648 12.3998 57.789348 10 60.749648 10C 63.709848 10 66.109648 12.3998 66.109648 15.36ZM 56.5 18.560059C 35.59 34.990059 19.32 57.060059 10 82.490059"></path></g></g></g><g id="g-root-tx_modeldep_deuonilf8mbo-stroke" data-item-order="0" transform="translate(146, 230)"></g><g id="g-root-tx_featuree_zqbivilf78co-stroke" data-item-order="0" transform="translate(542, 236)"></g><g id="g-root-tx_deploymo_1q9hp3ilf8lcd-stroke" data-item-order="0" transform="translate(146, 272)"></g><g id="g-root-tx_cleanand_1qcm2j2lf78cn-stroke" data-item-order="0" transform="translate(494, 200)"></g><g id="g-root-ic_exch_18k33v2lf8mpu-stroke" data-item-order="0" transform="translate(350, 284)"><g id="ic_exch_18k33v2lf8mpu-stroke" fill="none" stroke-linecap="round" stroke-linejoin="round" stroke-miterlimit="4" stroke="#f4f4f4" stroke-width="2"><g><path d="M 65.5 37.93L 65.5 53.23M 80.5 46C 80.5 65.053825 65.053825 80.5 46 80.5C 35.5 80.5 24.73 74.080002 18.4 66.699997M 11.5 46C 11.5 26.946177 26.946177 11.5 46 11.5C 56.5 11.5 67.270004 17.92 73.600006 25.299999M 59.800003 25.299999L 73.600006 25.299999L 73 11.5M 32.200001 66.699997L 18.4 66.699997L 18.4 80.5M 44.889999 29.710001L 26.74 37.57C 26.587418 37.615479 26.482834 37.755783 26.482834 37.914997C 26.482834 38.074215 26.587418 38.21452 26.739998 38.259998L 44.889999 45.790001C 45.602776 46.073872 46.397224 46.073872 47.110001 45.790001L 65.5 37.93L 47.110001 29.710001C 46.397224 29.426126 45.602776 29.426126 44.889999 29.710001ZM 32.5 47.5L 32.5 55C 36.282608 58.128803 41.096634 59.733475 46 59.5C 50.903366 59.733475 55.717392 58.128803 59.5 55L 59.5 47.5M 65.5 58.93L 65.5 61.93"></path></g></g></g><g id="g-root-tx_modelmon_1hbz9lalf8nwi-stroke" data-item-order="0" transform="translate(206, 134)"></g><g id="g-root-tx_selectan_hznzgulf77k1-stroke" data-item-order="0" transform="translate(542, 278)"></g><g id="g-root-tx_hyperpar_18i7olqlf8npi-stroke" data-item-order="0" transform="translate(98, 338)"></g><g id="g-root-tx_continuo_v5i826lf8n4b-stroke" data-item-order="0" transform="translate(182, 176)"></g><g id="g-root-tx_gatherre_18f3b66lf8mj3-stroke" data-item-order="0" transform="translate(320, 134)"></g><g id="g-root-tx_optimize_mbqn2mlf8mxb-stroke" data-item-order="0" transform="translate(134, 380)"></g><g id="g-root-tx_datacoll_1ulkcpalf8nba-stroke" data-item-order="0" transform="translate(308, 104)"></g><g id="g-root-tx_divideda_1d30zf2lf78xv-stroke" data-item-order="0" transform="translate(542, 374)"></g><g id="g-root-tx_modeleva_4l33nylf8m4o-stroke" data-item-order="0" transform="translate(194, 434)"></g><g id="g-root-tx_trainalg_2583ylf8lqh-stroke" data-item-order="0" transform="translate(344, 512)"></g><g id="g-root-tx_modelsel_qwjxvylf785o-stroke" data-item-order="0" transform="translate(494, 434)"></g><g id="g-root-tx_evaluate_1qaqn9qlf8nih-stroke" data-item-order="0" transform="translate(170, 476)"></g><g id="g-root-tx_modeltra_dcz9e6lf8nbc-stroke" data-item-order="0" transform="translate(320, 482)"></g><g id="g-root-tx_chooseap_8vwt3ilf8lxh-stroke" data-item-order="0" transform="translate(494, 476)"></g><g id="g-root-tx_dataprep_925jymlf79ce-stroke" data-item-order="0" transform="translate(494, 158)"></g><g id="g-root-tx_dataspli_1uuazwulf76kq-stroke" data-item-order="0" transform="translate(542, 344)"></g></g></g><path id="w1uo22qml5kb9q" d="M65.283 12.757a.35.35 0 0 0 .584.157l5.203-5.141-6.183 3.523.396 1.461zm-2.216-11.7a.35.35 0 0 0-.522.305v3.111l3.276-1.868-2.754-1.548zm3.728 2.105l-4.25 2.421v2.445l6.391-3.644-2.141-1.222zm4.708 3.303a.35.35 0 0 0 0-.609l-1.592-.9-7.365 4.199v1.782a.35.35 0 0 0 .523.305l8.435-4.777z M44.542 2.513c0-.433.355-.783.792-.783s.792.35.792.783-.355.783-.792.783-.792-.35-.792-.783zm59.171 0c0-.433.355-.783.792-.783s.792.35.792.783-.355.783-.792.783-.792-.35-.792-.783zm-85.951 7.636h-1.27v-.487c-.276.201-.864.609-1.881.609-1.202 0-2.274-.794-2.137-2.078.118-1.106 1.153-1.584 1.848-1.727l2.17-.345c0-.539-.29-.956-1.064-1.006s-1.21.305-1.571 1.017l-1.124-.605c1.218-2.631 5.029-1.764 5.029.414v4.207zm-1.27-2.86c.006.396-.062 1.112-.819 1.59-.587.37-1.841.299-1.903-.395-.049-.555.461-.791.906-.898l1.816-.297zm72.662 2.86h-1.27v-.487c-.276.201-.864.609-1.881.609-1.202 0-2.274-.794-2.137-2.078.118-1.106 1.153-1.584 1.848-1.727l2.17-.345c0-.539-.29-.956-1.064-1.006s-1.21.305-1.571 1.017l-1.124-.605c1.218-2.631 5.029-1.764 5.029.414v4.207zm-1.27-2.86c.006.396-.062 1.112-.82 1.59-.587.37-1.841.299-1.903-.395-.049-.555.461-.791.906-.898l1.816-.297zM99.096 10.149H97.85v-8.45h1.246v4.895l2.68-2.559h1.738l-2.633 2.535 2.715 3.578h-1.556l-2.077-2.707-.867.844v1.863zm6.053-6.114h-1.255v6.113h1.255V4.035zm-59.2 0h-1.255v6.113h1.255V4.035zm5.584 6.113V1.697h1.255v2.695c.361-.346 1-.485 1.47-.485 1.452 0 2.477 1.082 2.457 2.448v3.792h-1.27v-3.68c0-.408-.214-1.339-1.315-1.339-.968 0-1.342.756-1.342 1.339v3.681h-1.255zm-4.76-4.894V4.039h.621a.45.45 0 0 0 .45-.45v-.855h1.251v1.305h1.309v1.215h-1.309v3.109c0 .293.105.664.648.664.365 0 .531-.035.736-.07v1.137s-.361.113-.857.113c-1.398 0-1.777-1.051-1.777-1.788V5.254h-1.071zM36.528 4.039h-1.394l2.191 6.106h1.125l1.234-3.918 1.238 3.918h1.129l2.188-6.106h-1.383l-1.359 3.93-1.256-3.93h-1.124l-1.242 3.957-1.348-3.957zM26.212 7.141c-.02 1.566 1.187 3.129 3.223 3.129 1.566 0 2.383-.918 2.734-1.719L31.172 8c-.315.399-.801 1.094-1.738 1.094-1.145 0-1.825-.781-1.891-1.52h4.625c.074-.284.148-.995-.03-1.559-.336-1.064-1.221-2.102-2.839-2.102s-3.088 1.152-3.088 3.227zm1.363-.75h3.348c-.055-.43-.566-1.301-1.623-1.301a1.79 1.79 0 0 0-1.725 1.301zm-8.758.75c.038 1.758 1.277 3.133 3.145 3.133 1.074 0 1.723-.477 1.961-.672v.547h1.242V1.703h-1.258v2.888c-.414-.36-1.062-.68-1.93-.68-1.91 0-3.198 1.473-3.16 3.23zm1.309-.08c0 1.119.723 1.978 1.836 1.978a1.88 1.88 0 0 0 1.94-1.904c0-1.371-1.011-1.99-1.972-1.99s-1.805.798-1.805 1.916zm76.683-.028C96.771 5.275 95.532 3.9 93.664 3.9c-1.074 0-1.723.477-1.961.672v-.547h-1.242v8.22h1.258V9.583c.414.36 1.063.68 1.93.68 1.91 0 3.198-1.473 3.16-3.23zm-1.309.08c0-1.119-.723-1.978-1.836-1.978a1.88 1.88 0 0 0-1.94 1.904c0 1.371 1.011 1.99 1.972 1.99S95.5 8.231 95.5 7.113zM106.441 10.173V4.036h1.254v.382c.361-.346 1-.485 1.47-.485 1.452 0 2.477 1.082 2.457 2.448v3.792h-1.27V6.492c0-.408-.214-1.339-1.315-1.339-.969 0-1.342.756-1.342 1.339v3.681h-1.254zm-30.383-.021V1.824h1.084l4.215 5.777V1.824h1.32v8.328h-1.094l-4.207-5.796v5.796h-1.319zM5.24 10.149H4V2.377h1.014l2.664 3.597 2.654-3.592h1.03v7.766h-1.256V4.762L7.678 8.068 5.24 4.742v5.407z" transform="translate(656, 578)" fill="#ababab88" stroke="none"></path></svg>