<?xml version="1.0" encoding="utf-8" standalone="yes"?>
<!DOCTYPE svg PUBLIC "-//W3C//DTD SVG 1.1//EN" "http://www.w3.org/Graphics/SVG/1.1/DTD/svg11.dtd">
<svg width="912" height="612" viewBox="0 0 912 612" style="fill:none;stroke:none;fill-rule:evenodd;clip-rule:evenodd;stroke-linecap:round;stroke-linejoin:round;stroke-miterlimit:1.5;" version="1.1" xmlns="http://www.w3.org/2000/svg" xmlns:xlink="http://www.w3.org/1999/xlink"><style class="text-font-style fontImports" data-font-family="Roboto">@import url(https://fonts.googleapis.com/css2?family=Roboto:wght@400;700&amp;amp;display=block);</style><g id="items" style="isolation: isolate"><g id="blend" style="mix-blend-mode: normal"><g id="g-root-sy_-1_Vector_1qdul3414udekq-fill" data-item-order="999563477" transform="translate(70.85105895996094, 222)"></g><g id="g-root-cp_1_g-1_1qdul3414udekr-fill" data-item-order="999563479" transform="translate(77.85206604003906, 259)"></g><g id="g-root-cp_2_g-2_1ly12yo14udfd0-fill" data-item-order="999563485" transform="translate(140.85205078125, 354)"></g><g id="g-root-cp_3_g-3_1ly12yo14udfd1-fill" data-item-order="999563491" transform="translate(203.85205078125, 243)"></g><g id="g-root-cp_4_g-4_1d30jsw14udczy-fill" data-item-order="999563497" transform="translate(267.85205078125, 330)"></g><g id="g-root-cp_5_g-5_1d30jsw14udczz-fill" data-item-order="999563503" transform="translate(330.85205078125, 260)"></g><g id="g-root-cp_6_g-6_1hiu1xc14udczk-fill" data-item-order="999563509" transform="translate(393.85205078125, 387)"></g><g id="g-root-cp_7_g-7_18n71og14udds9-fill" data-item-order="999563515" transform="translate(456.85205078125, 231)"></g><g id="g-root-cp_8_g-8_18n71og14uddsa-fill" data-item-order="999563521" transform="translate(519.85205078125, 351)"></g><g id="g-root-cp_9_g-9_147djk014udekj-fill" data-item-order="999563527" transform="translate(583.85205078125, 265)"></g><g id="g-root-cp_10_g-10_147djk014udekk-fill" data-item-order="999563533" transform="translate(646.85205078125, 365)"></g><g id="g-root-cp_11_g-11_147djk014udekl-fill" data-item-order="999563539" transform="translate(709.85205078125, 232)"></g><g id="g-root-cp_12_g-12_vbqjb414udfda-fill" data-item-order="999563545" transform="translate(772.85205078125, 351)"></g><g id="g-root-tx_createtr_1cw5lc014u962r-fill" data-item-order="1000000000" transform="translate(565.9140625, 188)"><g id="tx_createtr_1cw5lc014u962r-fill" stroke="none" fill="#f4f4f4"><g><text style="font-style: normal; font-variant-caps: normal; font-weight: normal; font-stretch: normal; font-size: 10px; line-height: normal; font-family: Roboto, sans-serif; font-size-adjust: none; font-kerning: auto; font-variant-alternates: normal; font-variant-ligatures: normal; font-variant-numeric: normal; font-variant-east-asian: normal; font-variant-position: normal; font-variant-emoji: normal; font-feature-settings: normal; font-optical-sizing: auto; font-variation-settings: normal; white-space: pre;"><tspan x="18.98" y="21" dominant-baseline="ideographic">Create trading </tspan><tspan x="12.98" y="33" dominant-baseline="ideographic">signals based on </tspan><tspan x="25.98" y="45" dominant-baseline="ideographic">predictions</tspan></text></g></g></g><g id="g-root-tx_trainthe_1luwz0g14u7rif-fill" data-item-order="1000000000" transform="translate(313.9140625, 182)"><g id="tx_trainthe_1luwz0g14u7rif-fill" stroke="none" fill="#f4f4f4"><g><text style="font-style: normal; font-variant-caps: normal; font-weight: normal; font-stretch: normal; font-size: 10px; line-height: normal; font-family: Roboto, sans-serif; font-size-adjust: none; font-kerning: auto; font-variant-alternates: normal; font-variant-ligatures: normal; font-variant-numeric: normal; font-variant-east-asian: normal; font-variant-position: normal; font-variant-emoji: normal; font-feature-settings: normal; font-optical-sizing: auto; font-variation-settings: normal; white-space: pre;"><tspan x="16.09" y="21" dominant-baseline="ideographic">Train the model </tspan><tspan x="12.09" y="33" dominant-baseline="ideographic">using the training </tspan><tspan x="41.09" y="45" dominant-baseline="ideographic">data</tspan></text></g></g></g><g id="g-root-tx_calculat_m7zmf414u7sw3-fill" data-item-order="1000000000" transform="translate(187.9140625, 164)"><g id="tx_calculat_m7zmf414u7sw3-fill" stroke="none" fill="#f4f4f4"><g><text style="font-style: normal; font-variant-caps: normal; font-weight: normal; font-stretch: normal; font-size: 10px; line-height: normal; font-family: Roboto, sans-serif; font-size-adjust: none; font-kerning: auto; font-variant-alternates: normal; font-variant-ligatures: normal; font-variant-numeric: normal; font-variant-east-asian: normal; font-variant-position: normal; font-variant-emoji: normal; font-feature-settings: normal; font-optical-sizing: auto; font-variation-settings: normal; white-space: pre;"><tspan x="18.14" y="21" dominant-baseline="ideographic">Calculate daily </tspan><tspan x="17.14" y="33" dominant-baseline="ideographic">returns and lag </tspan><tspan x="32.14" y="45" dominant-baseline="ideographic">features</tspan></text></g></g></g><g id="g-root-tx_chooseth_4j7f4014ust8v-fill" data-item-order="1000000000" transform="translate(55.9140625, 176)"><g id="tx_chooseth_4j7f4014ust8v-fill" stroke="none" fill="#f4f4f4"><g><text style="font-style: normal; font-variant-caps: normal; font-weight: normal; font-stretch: normal; font-size: 10px; line-height: normal; font-family: Roboto, sans-serif; font-size-adjust: none; font-kerning: auto; font-variant-alternates: normal; font-variant-ligatures: normal; font-variant-numeric: normal; font-variant-east-asian: normal; font-variant-position: normal; font-variant-emoji: normal; font-feature-settings: normal; font-optical-sizing: auto; font-variation-settings: normal; white-space: pre;"><tspan x="16.98" y="21" dominant-baseline="ideographic">Choose the target </tspan><tspan x="20.98" y="33" dominant-baseline="ideographic">ETF or index for </tspan><tspan x="37.98" y="45" dominant-baseline="ideographic">analysis</tspan></text></g></g></g><g id="g-root-tx_generate_1uuxav414u7tal-fill" data-item-order="1000000000" transform="translate(553.9140625, 146)"><g id="tx_generate_1uuxav414u7tal-fill" stroke="none" fill="#cb68f9"><g><text style="font-style: normal; font-variant-caps: normal; font-weight: normal; font-stretch: normal; font-size: 15px; line-height: normal; font-family: Roboto, sans-serif; font-size-adjust: none; font-kerning: auto; font-variant-alternates: normal; font-variant-ligatures: normal; font-variant-numeric: normal; font-variant-east-asian: normal; font-variant-position: normal; font-variant-emoji: normal; font-feature-settings: normal; font-optical-sizing: auto; font-variation-settings: normal; white-space: pre;"><tspan x="33.33" y="28" dominant-baseline="ideographic">Generate </tspan><tspan x="12.33" y="46" dominant-baseline="ideographic">Trading Signals</tspan></text></g></g></g><g id="g-root-ic_cog_qu1s8w14u95oh-fill" data-item-order="1000000000" transform="translate(215.85205078125, 255)"></g><g id="g-root-ic_metr_90wchs14uetqi-fill" data-item-order="1000000000" transform="translate(468.85205078125, 243)"></g><g id="g-root-ic_targ_deufcw14ultl1-fill" data-item-order="1000000000" transform="translate(721.85205078125, 244)"></g><g id="g-root-ic_aim_1uljx3414ues5c-fill" data-item-order="1000000000" transform="translate(89.85206604003906, 271)"></g><g id="g-root-tx_generate_vbqssg14u7soz-fill" data-item-order="1000000000" transform="translate(433.9140625, 152)"><g id="tx_generate_vbqssg14u7soz-fill" stroke="none" fill="#f4f4f4"><g><text style="font-style: normal; font-variant-caps: normal; font-weight: normal; font-stretch: normal; font-size: 10px; line-height: normal; font-family: Roboto, sans-serif; font-size-adjust: none; font-kerning: auto; font-variant-alternates: normal; font-variant-ligatures: normal; font-variant-numeric: normal; font-variant-east-asian: normal; font-variant-position: normal; font-variant-emoji: normal; font-feature-settings: normal; font-optical-sizing: auto; font-variation-settings: normal; white-space: pre;"><tspan x="35.8" y="21" dominant-baseline="ideographic">Generate </tspan><tspan x="16.8" y="33" dominant-baseline="ideographic">predictions on the </tspan><tspan x="28.8" y="45" dominant-baseline="ideographic">training data</tspan></text></g></g></g><g id="g-root-tx_trainmod_dg3gow14u7rph-fill" data-item-order="1000000000" transform="translate(313.9140625, 152)"><g id="tx_trainmod_dg3gow14u7rph-fill" stroke="none" fill="#ffe711"><g><text style="font-style: normal; font-variant-caps: normal; font-weight: normal; font-stretch: normal; font-size: 15px; line-height: normal; font-family: Roboto, sans-serif; font-size-adjust: none; font-kerning: auto; font-variant-alternates: normal; font-variant-ligatures: normal; font-variant-numeric: normal; font-variant-east-asian: normal; font-variant-position: normal; font-variant-emoji: normal; font-feature-settings: normal; font-optical-sizing: auto; font-variation-settings: normal; white-space: pre;"><tspan x="12.32" y="31" dominant-baseline="ideographic">Train Model</tspan></text></g></g></g><g id="g-root-tx_assessth_hz1c8w14uakgf-fill" data-item-order="1000000000" transform="translate(367.9140625, 518)"><g id="tx_assessth_hz1c8w14uakgf-fill" stroke="none" fill="#f4f4f4"><g><text style="font-style: normal; font-variant-caps: normal; font-weight: normal; font-stretch: normal; font-size: 10px; line-height: normal; font-family: Roboto, sans-serif; font-size-adjust: none; font-kerning: auto; font-variant-alternates: normal; font-variant-ligatures: normal; font-variant-numeric: normal; font-variant-east-asian: normal; font-variant-position: normal; font-variant-emoji: normal; font-feature-settings: normal; font-optical-sizing: auto; font-variation-settings: normal; white-space: pre;"><tspan x="13.8" y="21" dominant-baseline="ideographic">Assess the model's </tspan><tspan x="14.8" y="33" dominant-baseline="ideographic">performance using </tspan><tspan x="27.8" y="45" dominant-baseline="ideographic">RMSE and R²</tspan></text></g></g></g><g id="g-root-tx_evaluate_1upxi6814u981v-fill" data-item-order="1000000000" transform="translate(685.9140625, 128)"><g id="tx_evaluate_1upxi6814u981v-fill" stroke="none" fill="#f4f4f4"><g><text style="font-style: normal; font-variant-caps: normal; font-weight: normal; font-stretch: normal; font-size: 10px; line-height: normal; font-family: Roboto, sans-serif; font-size-adjust: none; font-kerning: auto; font-variant-alternates: normal; font-variant-ligatures: normal; font-variant-numeric: normal; font-variant-east-asian: normal; font-variant-position: normal; font-variant-emoji: normal; font-feature-settings: normal; font-optical-sizing: auto; font-variation-settings: normal; white-space: pre;"><tspan x="28.78" y="21" dominant-baseline="ideographic">Evaluate the </tspan><tspan x="34.78" y="33" dominant-baseline="ideographic">strategy's </tspan><tspan x="14.78" y="45" dominant-baseline="ideographic">performance using </tspan><tspan x="18.78" y="57" dominant-baseline="ideographic">Sharpe Ratio and </tspan><tspan x="21.78" y="69" dominant-baseline="ideographic">Max Drawdown</tspan></text></g></g></g><g id="g-root-tx_selectet_v5hyrk14ust8t-fill" data-item-order="1000000000" transform="translate(61.9140625, 134)"><g id="tx_selectet_v5hyrk14ust8t-fill" stroke="none" fill="#4f91fc"><g><text style="font-style: normal; font-variant-caps: normal; font-weight: normal; font-stretch: normal; font-size: 15px; line-height: normal; font-family: Roboto, sans-serif; font-size-adjust: none; font-kerning: auto; font-variant-alternates: normal; font-variant-ligatures: normal; font-variant-numeric: normal; font-variant-east-asian: normal; font-variant-position: normal; font-variant-emoji: normal; font-feature-settings: normal; font-optical-sizing: auto; font-variation-settings: normal; white-space: pre;"><tspan x="31.42" y="28" dominant-baseline="ideographic">Select </tspan><tspan x="17.42" y="46" dominant-baseline="ideographic">ETF/Index</tspan></text></g></g></g><g id="g-root-ic_2_1q88hmo14ual1h-fill" data-item-order="1000000000" transform="translate(279.85205078125, 342)"></g><g id="g-root-tx_predicto_1d15e0w14u7rbh-fill" data-item-order="1000000000" transform="translate(439.9140625, 110)"><g id="tx_predicto_1d15e0w14u7rbh-fill" stroke="none" fill="#fb6762"><g><text style="font-style: normal; font-variant-caps: normal; font-weight: normal; font-stretch: normal; font-size: 15px; line-height: normal; font-family: Roboto, sans-serif; font-size-adjust: none; font-kerning: auto; font-variant-alternates: normal; font-variant-ligatures: normal; font-variant-numeric: normal; font-variant-east-asian: normal; font-variant-position: normal; font-variant-emoji: normal; font-feature-settings: normal; font-optical-sizing: auto; font-variation-settings: normal; white-space: pre;"><tspan x="16.2" y="28" dominant-baseline="ideographic">Predict on </tspan><tspan x="33.2" y="46" dominant-baseline="ideographic">Train</tspan></text></g></g></g><g id="g-root-tx_featuree_1ha3o7414u7s3t-fill" data-item-order="1000000000" transform="translate(187.9140625, 122)"><g id="tx_featuree_1ha3o7414u7s3t-fill" stroke="none" fill="#43dd93"><g><text style="font-style: normal; font-variant-caps: normal; font-weight: normal; font-stretch: normal; font-size: 15px; line-height: normal; font-family: Roboto, sans-serif; font-size-adjust: none; font-kerning: auto; font-variant-alternates: normal; font-variant-ligatures: normal; font-variant-numeric: normal; font-variant-east-asian: normal; font-variant-position: normal; font-variant-emoji: normal; font-feature-settings: normal; font-optical-sizing: auto; font-variation-settings: normal; white-space: pre;"><tspan x="26.37" y="28" dominant-baseline="ideographic">Feature </tspan><tspan x="12.37" y="46" dominant-baseline="ideographic">Engineering</tspan></text></g></g></g><g id="g-root-ic_down_9257i814ulte4-fill" data-item-order="1000000000" transform="translate(152.85205078125, 366)"></g><g id="g-root-ic_bust_14806yo14uet57-fill" data-item-order="1000000000" transform="translate(531.85205078125, 363)"></g><g id="g-root-tx_evaluate_mbqgxs14u9535-fill" data-item-order="1000000000" transform="translate(685.9140625, 86)"><g id="tx_evaluate_mbqgxs14u9535-fill" stroke="none" fill="#b7b7b7"><g><text style="font-style: normal; font-variant-caps: normal; font-weight: normal; font-stretch: normal; font-size: 15px; line-height: normal; font-family: Roboto, sans-serif; font-size-adjust: none; font-kerning: auto; font-variant-alternates: normal; font-variant-ligatures: normal; font-variant-numeric: normal; font-variant-east-asian: normal; font-variant-position: normal; font-variant-emoji: normal; font-feature-settings: normal; font-optical-sizing: auto; font-variation-settings: normal; white-space: pre;"><tspan x="29.31" y="28" dominant-baseline="ideographic">Evaluate </tspan><tspan x="14.31" y="46" dominant-baseline="ideographic">Performance</tspan></text></g></g></g><g id="g-root-ic_micr_1hf3dq814uq2v7-fill" data-item-order="1000000000" transform="translate(784.85205078125, 363)"></g><g id="g-root-tx_signalba_qwji9s14udczr-fill" data-item-order="1000000000" transform="translate(268.9140625, 38)"><g id="tx_signalba_qwji9s14udczr-fill" stroke="none" fill="#f4f4f4"><g><text style="font-style: normal; font-variant-caps: normal; font-weight: bold; font-stretch: normal; font-size: 20px; line-height: normal; font-family: Roboto, sans-serif; font-size-adjust: none; font-kerning: auto; font-variant-alternates: normal; font-variant-ligatures: normal; font-variant-numeric: normal; font-variant-east-asian: normal; font-variant-position: normal; font-variant-emoji: normal; font-feature-settings: normal; font-optical-sizing: auto; font-variation-settings: normal; white-space: pre;"><tspan x="13.49" y="34" dominant-baseline="ideographic">Signal-Based Trading Strategy Workflow</tspan></text></g></g></g><g id="g-root-ic_lapt_v98ta814uhlvp-fill" data-item-order="1000000000" transform="translate(658.85205078125, 377)"></g><g id="g-root-ic_star_1ut1sg014udcsl-fill" data-item-order="1000000000" transform="translate(405.85205078125, 399)"></g><g id="g-root-tx_splitdat_zofxhc14uajup-fill" data-item-order="1000000000" transform="translate(253.9140625, 422)"><g id="tx_splitdat_zofxhc14uajup-fill" stroke="none" fill="#a6da37"><g><text style="font-style: normal; font-variant-caps: normal; font-weight: normal; font-stretch: normal; font-size: 15px; line-height: normal; font-family: Roboto, sans-serif; font-size-adjust: none; font-kerning: auto; font-variant-alternates: normal; font-variant-ligatures: normal; font-variant-numeric: normal; font-variant-east-asian: normal; font-variant-position: normal; font-variant-emoji: normal; font-feature-settings: normal; font-optical-sizing: auto; font-variation-settings: normal; white-space: pre;"><tspan x="13.42" y="31" dominant-baseline="ideographic">Split Data</tspan></text></g></g></g><g id="g-root-tx_download_m9v1og14uak95-fill" data-item-order="1000000000" transform="translate(121.9140625, 446)"><g id="tx_download_m9v1og14uak95-fill" stroke="none" fill="#1ac3fb"><g><text style="font-style: normal; font-variant-caps: normal; font-weight: normal; font-stretch: normal; font-size: 15px; line-height: normal; font-family: Roboto, sans-serif; font-size-adjust: none; font-kerning: auto; font-variant-alternates: normal; font-variant-ligatures: normal; font-variant-numeric: normal; font-variant-east-asian: normal; font-variant-position: normal; font-variant-emoji: normal; font-feature-settings: normal; font-optical-sizing: auto; font-variation-settings: normal; white-space: pre;"><tspan x="16.45" y="31" dominant-baseline="ideographic">Download </tspan><tspan x="18.45" y="49" dominant-baseline="ideographic">Historical </tspan><tspan x="34.45" y="67" dominant-baseline="ideographic">Data</tspan></text></g></g></g><g id="g-root-tx_divideth_925dts14uajur-fill" data-item-order="1000000000" transform="translate(241.9140625, 452)"><g id="tx_divideth_925dts14uajur-fill" stroke="none" fill="#f4f4f4"><g><text style="font-style: normal; font-variant-caps: normal; font-weight: normal; font-stretch: normal; font-size: 10px; line-height: normal; font-family: Roboto, sans-serif; font-size-adjust: none; font-kerning: auto; font-variant-alternates: normal; font-variant-ligatures: normal; font-variant-numeric: normal; font-variant-east-asian: normal; font-variant-position: normal; font-variant-emoji: normal; font-feature-settings: normal; font-optical-sizing: auto; font-variation-settings: normal; white-space: pre;"><tspan x="13.88" y="21" dominant-baseline="ideographic">Divide the data into </tspan><tspan x="13.88" y="33" dominant-baseline="ideographic">training and testing </tspan><tspan x="46.88" y="45" dominant-baseline="ideographic">sets</tspan></text></g></g></g><g id="g-root-tx_predicto_1ly1cg014ual1l-fill" data-item-order="1000000000" transform="translate(499.9140625, 440)"><g id="tx_predicto_1ly1cg014ual1l-fill" stroke="none" fill="#f366bb"><g><text style="font-style: normal; font-variant-caps: normal; font-weight: normal; font-stretch: normal; font-size: 15px; line-height: normal; font-family: Roboto, sans-serif; font-size-adjust: none; font-kerning: auto; font-variant-alternates: normal; font-variant-ligatures: normal; font-variant-numeric: normal; font-variant-east-asian: normal; font-variant-position: normal; font-variant-emoji: normal; font-feature-settings: normal; font-optical-sizing: auto; font-variation-settings: normal; white-space: pre;"><tspan x="16.2" y="28" dominant-baseline="ideographic">Predict on </tspan><tspan x="35.2" y="46" dominant-baseline="ideographic">Test</tspan></text></g></g></g><g id="g-root-tx_analyzes_dccm6814uc0zl-fill" data-item-order="1000000000" transform="translate(763.9140625, 440)"><g id="tx_analyzes_dccm6814uc0zl-fill" stroke="none" fill="#b7b7b7"><g><text style="font-style: normal; font-variant-caps: normal; font-weight: normal; font-stretch: normal; font-size: 15px; line-height: normal; font-family: Roboto, sans-serif; font-size-adjust: none; font-kerning: auto; font-variant-alternates: normal; font-variant-ligatures: normal; font-variant-numeric: normal; font-variant-east-asian: normal; font-variant-position: normal; font-variant-emoji: normal; font-feature-settings: normal; font-optical-sizing: auto; font-variation-settings: normal; white-space: pre;"><tspan x="18.08" y="28" dominant-baseline="ideographic">Analyze </tspan><tspan x="17.08" y="46" dominant-baseline="ideographic">Strategy</tspan></text></g></g></g><g id="g-root-tx_computep_9mr0g14ualtx-fill" data-item-order="1000000000" transform="translate(637.9140625, 458)"><g id="tx_computep_9mr0g14ualtx-fill" stroke="none" fill="#8769fd"><g><text style="font-style: normal; font-variant-caps: normal; font-weight: normal; font-stretch: normal; font-size: 15px; line-height: normal; font-family: Roboto, sans-serif; font-size-adjust: none; font-kerning: auto; font-variant-alternates: normal; font-variant-ligatures: normal; font-variant-numeric: normal; font-variant-east-asian: normal; font-variant-position: normal; font-variant-emoji: normal; font-feature-settings: normal; font-optical-sizing: auto; font-variation-settings: normal; white-space: pre;"><tspan x="13.39" y="28" dominant-baseline="ideographic">Compute </tspan><tspan x="25.39" y="46" dominant-baseline="ideographic">Profit</tspan></text></g></g></g><g id="g-root-tx_evaluate_18lbvwg14uakgd-fill" data-item-order="1000000000" transform="translate(379.9140625, 476)"><g id="tx_evaluate_18lbvwg14uakgd-fill" stroke="none" fill="#f79438"><g><text style="font-style: normal; font-variant-caps: normal; font-weight: normal; font-stretch: normal; font-size: 15px; line-height: normal; font-family: Roboto, sans-serif; font-size-adjust: none; font-kerning: auto; font-variant-alternates: normal; font-variant-ligatures: normal; font-variant-numeric: normal; font-variant-east-asian: normal; font-variant-position: normal; font-variant-emoji: normal; font-feature-settings: normal; font-optical-sizing: auto; font-variation-settings: normal; white-space: pre;"><tspan x="15.5" y="28" dominant-baseline="ideographic">Evaluate </tspan><tspan x="23.5" y="46" dominant-baseline="ideographic">Model</tspan></text></g></g></g><g id="g-root-tx_generate_vbqssg14ual1n-fill" data-item-order="1000000000" transform="translate(493.9140625, 482)"><g id="tx_generate_vbqssg14ual1n-fill" stroke="none" fill="#f4f4f4"><g><text style="font-style: normal; font-variant-caps: normal; font-weight: normal; font-stretch: normal; font-size: 10px; line-height: normal; font-family: Roboto, sans-serif; font-size-adjust: none; font-kerning: auto; font-variant-alternates: normal; font-variant-ligatures: normal; font-variant-numeric: normal; font-variant-east-asian: normal; font-variant-position: normal; font-variant-emoji: normal; font-feature-settings: normal; font-optical-sizing: auto; font-variation-settings: normal; white-space: pre;"><tspan x="35.8" y="21" dominant-baseline="ideographic">Generate </tspan><tspan x="16.8" y="33" dominant-baseline="ideographic">predictions on the </tspan><tspan x="29.8" y="45" dominant-baseline="ideographic">testing data</tspan></text></g></g></g><g id="g-root-tx_analyzet_1cw5lc014ubyff-fill" data-item-order="1000000000" transform="translate(751.9140625, 482)"><g id="tx_analyzet_1cw5lc014ubyff-fill" stroke="none" fill="#f4f4f4"><g><text style="font-style: normal; font-variant-caps: normal; font-weight: normal; font-stretch: normal; font-size: 10px; line-height: normal; font-family: Roboto, sans-serif; font-size-adjust: none; font-kerning: auto; font-variant-alternates: normal; font-variant-ligatures: normal; font-variant-numeric: normal; font-variant-east-asian: normal; font-variant-position: normal; font-variant-emoji: normal; font-feature-settings: normal; font-optical-sizing: auto; font-variation-settings: normal; white-space: pre;"><tspan x="14.99" y="21" dominant-baseline="ideographic">Analyze the overall </tspan><tspan x="21.99" y="33" dominant-baseline="ideographic">strategy and its </tspan><tspan x="33.99" y="45" dominant-baseline="ideographic">outcomes</tspan></text></g></g></g><g id="g-root-tx_gatherhi_4mybk14ualn3-fill" data-item-order="1000000000" transform="translate(115.9140625, 512)"><g id="tx_gatherhi_4mybk14ualn3-fill" stroke="none" fill="#f4f4f4"><g><text style="font-style: normal; font-variant-caps: normal; font-weight: normal; font-stretch: normal; font-size: 10px; line-height: normal; font-family: Roboto, sans-serif; font-size-adjust: none; font-kerning: auto; font-variant-alternates: normal; font-variant-ligatures: normal; font-variant-numeric: normal; font-variant-east-asian: normal; font-variant-position: normal; font-variant-emoji: normal; font-feature-settings: normal; font-optical-sizing: auto; font-variation-settings: normal; white-space: pre;"><tspan x="20.74" y="21" dominant-baseline="ideographic">Gather historical </tspan><tspan x="16.74" y="33" dominant-baseline="ideographic">data for the target </tspan><tspan x="15.74" y="45" dominant-baseline="ideographic">and related indices</tspan></text></g></g></g><g id="g-root-tx_calculat_18egny814uc07b-fill" data-item-order="1000000000" transform="translate(625.9140625, 500)"><g id="tx_calculat_18egny814uc07b-fill" stroke="none" fill="#f4f4f4"><g><text style="font-style: normal; font-variant-caps: normal; font-weight: normal; font-stretch: normal; font-size: 10px; line-height: normal; font-family: Roboto, sans-serif; font-size-adjust: none; font-kerning: auto; font-variant-alternates: normal; font-variant-ligatures: normal; font-variant-numeric: normal; font-variant-east-asian: normal; font-variant-position: normal; font-variant-emoji: normal; font-feature-settings: normal; font-optical-sizing: auto; font-variation-settings: normal; white-space: pre;"><tspan x="14.26" y="21" dominant-baseline="ideographic">Calculate the profit </tspan><tspan x="19.26" y="33" dominant-baseline="ideographic">based on trading </tspan><tspan x="41.26" y="45" dominant-baseline="ideographic">signals</tspan></text></g></g></g><g id="g-root-ic_user_zs6ou814ug83n-fill" data-item-order="1000000000" transform="translate(595.85205078125, 277)"></g><g id="g-root-sy_-1_Vector_1qdul3414udekq-stroke" data-item-order="999563477" transform="translate(70.85105895996094, 222)"><g id="sy_-1_Vector_1qdul3414udekq-stroke" fill="none" stroke-linecap="round" stroke-linejoin="round" stroke-miterlimit="4" stroke="#f4f4f4" stroke-width="2" stroke-dasharray="5.0, 7.0"><style>.fillAsHole-mk-4il17414uj1ft { fill:#2C2C2C; }
.fillAsStrokeColor-mk-4il17414uj1ft { fill:#f4f4f4; }</style><g><path d="M 769.038947 65.103037L 769.038947 152.533037C 769.038947 153.313037 769.008947 166.623037 768.948947 167.393037C 767.678947 183.473037 753.358947 196.043037 736.358947 196.043037C 719.358947 196.043037 705.048947 183.473037 703.768947 167.403037C 703.708947 166.623037 703.678947 154.813037 703.678947 154.033037L 703.678947 40.773037C 703.678947 24.793037 689.968947 11.783037 673.108947 11.783037C 656.248947 11.783037 642.528947 24.793037 642.528947 40.773037L 642.528947 178.503037C 642.528947 195.583037 627.868947 209.493037 609.848947 209.493037C 591.828947 209.493037 577.168947 195.583037 577.168947 178.503037L 577.168947 74.103037C 577.168947 58.113037 563.458947 45.113037 546.598947 45.113037C 529.738947 45.113037 516.028947 58.113037 516.028947 74.103037L 516.028947 164.353037C 516.028947 181.443037 501.358947 195.343037 483.338947 195.343037C 465.318947 195.343037 450.658947 181.443037 450.658947 164.353037L 450.658947 39.353037C 450.658947 23.373037 436.948947 10.363037 420.088947 10.363037C 403.228947 10.363037 389.518947 23.373037 389.518947 39.353037L 389.518947 200.373037C 389.518947 217.463037 374.858947 231.363037 356.838947 231.363037C 338.808947 231.363037 324.148947 217.463037 324.148947 200.373037C 324.148947 200.113037 324.148947 199.863037 324.158947 199.603037L 324.158947 69.313037C 324.158947 53.333037 310.438947 40.323037 293.578947 40.323037C 276.718947 40.323037 263.008947 53.333037 263.008947 69.313037L 263.008947 142.943037C 263.008947 160.043037 248.348947 173.943037 230.328947 173.943037C 212.308947 173.943037 197.648947 160.043037 197.648947 142.943037L 197.648947 52.393037C 197.648947 36.403037 183.938947 23.403037 167.078947 23.403037C 150.218947 23.403037 136.498947 36.403037 136.498947 52.393037L 136.498947 167.943037C 136.498947 185.033037 121.838947 198.933037 103.818947 198.933037C 85.798947 198.933037 71.138947 185.033037 71.138947 167.943037L 71.138947 67.273037C 71.138947 51.293037 57.428947 38.283037 40.568947 38.283037C 23.708947 38.283037 9.998947 51.293037 9.998947 67.273037L 9.998947 165.783037"></path><path d="M 766.039947 61.741037C 766.03997 63.397893 767.383116 64.741039 769.03997 64.741039C 770.696824 64.741039 772.03997 63.397893 772.03997 61.741039C 772.03997 60.084184 770.696824 58.741039 769.03997 58.741039C 767.383116 58.741039 766.03997 60.084184 766.03997 61.741039Z" stroke-dasharray="none" class="fillAsHole-mk-4il17414uj1ft"></path><path d="M 6.999947 165.424037C 6.999947 167.080896 8.343093 168.424042 9.999947 168.424042C 11.656801 168.424042 12.999947 167.080896 12.999947 165.424042C 12.999947 163.767187 11.656801 162.424042 9.999947 162.424042C 8.343093 162.424042 6.999947 163.767187 6.999947 165.424042Z" stroke-dasharray="none" class="fillAsStrokeColor-mk-4il17414uj1ft"></path></g></g></g><g id="g-root-cp_1_g-1_1qdul3414udekr-stroke" data-item-order="999563479" transform="translate(77.85206604003906, 259)"><g id="cp_1_g-1_1qdul3414udekr-stroke" fill="none" stroke-linecap="round" stroke-linejoin="round" stroke-miterlimit="4" stroke="#4f91fc" stroke-width="2"><g><path d="M 10 34C 10.000001 47.254835 20.745167 58.000001 34.000001 58.000001C 47.254835 58.000001 58.000001 47.254835 58.000001 34.000001C 58.000001 20.745167 47.254835 10.000001 34.000001 10.000001C 20.745167 10.000001 10.000001 20.745167 10.000001 34.000001"></path></g></g></g><g id="g-root-cp_2_g-2_1ly12yo14udfd0-stroke" data-item-order="999563485" transform="translate(140.85205078125, 354)"><g id="cp_2_g-2_1ly12yo14udfd0-stroke" fill="none" stroke-linecap="round" stroke-linejoin="round" stroke-miterlimit="4" stroke="#1ac3fb" stroke-width="2"><g><path d="M 10 34C 10.000001 47.254835 20.745167 58.000001 34.000001 58.000001C 47.254835 58.000001 58.000001 47.254835 58.000001 34.000001C 58.000001 20.745167 47.254835 10.000001 34.000001 10.000001C 20.745167 10.000001 10.000001 20.745167 10.000001 34.000001"></path></g></g></g><g id="g-root-cp_3_g-3_1ly12yo14udfd1-stroke" data-item-order="999563491" transform="translate(203.85205078125, 243)"><g id="cp_3_g-3_1ly12yo14udfd1-stroke" fill="none" stroke-linecap="round" stroke-linejoin="round" stroke-miterlimit="4" stroke="#43dd93" stroke-width="2"><g><path d="M 10 34C 10.000001 47.254835 20.745167 58.000001 34.000001 58.000001C 47.254835 58.000001 58.000001 47.254835 58.000001 34.000001C 58.000001 20.745167 47.254835 10.000001 34.000001 10.000001C 20.745167 10.000001 10.000001 20.745167 10.000001 34.000001"></path></g></g></g><g id="g-root-cp_4_g-4_1d30jsw14udczy-stroke" data-item-order="999563497" transform="translate(267.85205078125, 330)"><g id="cp_4_g-4_1d30jsw14udczy-stroke" fill="none" stroke-linecap="round" stroke-linejoin="round" stroke-miterlimit="4" stroke="#a6da37" stroke-width="2"><g><path d="M 10 34C 10.000001 47.254835 20.745167 58.000001 34.000001 58.000001C 47.254835 58.000001 58.000001 47.254835 58.000001 34.000001C 58.000001 20.745167 47.254835 10.000001 34.000001 10.000001C 20.745167 10.000001 10.000001 20.745167 10.000001 34.000001"></path></g></g></g><g id="g-root-cp_5_g-5_1d30jsw14udczz-stroke" data-item-order="999563503" transform="translate(330.85205078125, 260)"><g id="cp_5_g-5_1d30jsw14udczz-stroke" fill="none" stroke-linecap="round" stroke-linejoin="round" stroke-miterlimit="4" stroke="#ffe711" stroke-width="2"><g><path d="M 10 34C 10.000001 47.254835 20.745167 58.000001 34.000001 58.000001C 47.254835 58.000001 58.000001 47.254835 58.000001 34.000001C 58.000001 20.745167 47.254835 10.000001 34.000001 10.000001C 20.745167 10.000001 10.000001 20.745167 10.000001 34.000001"></path></g></g></g><g id="g-root-cp_6_g-6_1hiu1xc14udczk-stroke" data-item-order="999563509" transform="translate(393.85205078125, 387)"><g id="cp_6_g-6_1hiu1xc14udczk-stroke" fill="none" stroke-linecap="round" stroke-linejoin="round" stroke-miterlimit="4" stroke="#f79438" stroke-width="2"><g><path d="M 10 34C 10.000001 47.254835 20.745167 58.000001 34.000001 58.000001C 47.254835 58.000001 58.000001 47.254835 58.000001 34.000001C 58.000001 20.745167 47.254835 10.000001 34.000001 10.000001C 20.745167 10.000001 10.000001 20.745167 10.000001 34.000001"></path></g></g></g><g id="g-root-cp_7_g-7_18n71og14udds9-stroke" data-item-order="999563515" transform="translate(456.85205078125, 231)"><g id="cp_7_g-7_18n71og14udds9-stroke" fill="none" stroke-linecap="round" stroke-linejoin="round" stroke-miterlimit="4" stroke="#fb6762" stroke-width="2"><g><path d="M 10 34C 10.000001 47.254835 20.745167 58.000001 34.000001 58.000001C 47.254835 58.000001 58.000001 47.254835 58.000001 34.000001C 58.000001 20.745167 47.254835 10.000001 34.000001 10.000001C 20.745167 10.000001 10.000001 20.745167 10.000001 34.000001"></path></g></g></g><g id="g-root-cp_8_g-8_18n71og14uddsa-stroke" data-item-order="999563521" transform="translate(519.85205078125, 351)"><g id="cp_8_g-8_18n71og14uddsa-stroke" fill="none" stroke-linecap="round" stroke-linejoin="round" stroke-miterlimit="4" stroke="#f366bb" stroke-width="2"><g><path d="M 10 34C 10.000001 47.254835 20.745167 58.000001 34.000001 58.000001C 47.254835 58.000001 58.000001 47.254835 58.000001 34.000001C 58.000001 20.745167 47.254835 10.000001 34.000001 10.000001C 20.745167 10.000001 10.000001 20.745167 10.000001 34.000001"></path></g></g></g><g id="g-root-cp_9_g-9_147djk014udekj-stroke" data-item-order="999563527" transform="translate(583.85205078125, 265)"><g id="cp_9_g-9_147djk014udekj-stroke" fill="none" stroke-linecap="round" stroke-linejoin="round" stroke-miterlimit="4" stroke="#cb68f9" stroke-width="2"><g><path d="M 10 34C 10.000001 47.254835 20.745167 58.000001 34.000001 58.000001C 47.254835 58.000001 58.000001 47.254835 58.000001 34.000001C 58.000001 20.745167 47.254835 10.000001 34.000001 10.000001C 20.745167 10.000001 10.000001 20.745167 10.000001 34.000001"></path></g></g></g><g id="g-root-cp_10_g-10_147djk014udekk-stroke" data-item-order="999563533" transform="translate(646.85205078125, 365)"><g id="cp_10_g-10_147djk014udekk-stroke" fill="none" stroke-linecap="round" stroke-linejoin="round" stroke-miterlimit="4" stroke="#8769fd" stroke-width="2"><g><path d="M 10 34C 10.000001 47.254835 20.745167 58.000001 34.000001 58.000001C 47.254835 58.000001 58.000001 47.254835 58.000001 34.000001C 58.000001 20.745167 47.254835 10.000001 34.000001 10.000001C 20.745167 10.000001 10.000001 20.745167 10.000001 34.000001"></path></g></g></g><g id="g-root-cp_11_g-11_147djk014udekl-stroke" data-item-order="999563539" transform="translate(709.85205078125, 232)"><g id="cp_11_g-11_147djk014udekl-stroke" fill="none" stroke-linecap="round" stroke-linejoin="round" stroke-miterlimit="4" stroke="#b7b7b7" stroke-width="2"><g><path d="M 10 34C 10.000001 47.254835 20.745167 58.000001 34.000001 58.000001C 47.254835 58.000001 58.000001 47.254835 58.000001 34.000001C 58.000001 20.745167 47.254835 10.000001 34.000001 10.000001C 20.745167 10.000001 10.000001 20.745167 10.000001 34.000001"></path></g></g></g><g id="g-root-cp_12_g-12_vbqjb414udfda-stroke" data-item-order="999563545" transform="translate(772.85205078125, 351)"><g id="cp_12_g-12_vbqjb414udfda-stroke" fill="none" stroke-linecap="round" stroke-linejoin="round" stroke-miterlimit="4" stroke="#b7b7b7" stroke-width="2"><g><path d="M 10 34C 10.000001 47.254835 20.745167 58.000001 34.000001 58.000001C 47.254835 58.000001 58.000001 47.254835 58.000001 34.000001C 58.000001 20.745167 47.254835 10.000001 34.000001 10.000001C 20.745167 10.000001 10.000001 20.745167 10.000001 34.000001"></path></g></g></g><g id="g-root-tx_createtr_1cw5lc014u962r-stroke" data-item-order="1000000000" transform="translate(565.9140625, 188)"></g><g id="g-root-tx_trainthe_1luwz0g14u7rif-stroke" data-item-order="1000000000" transform="translate(313.9140625, 182)"></g><g id="g-root-tx_calculat_m7zmf414u7sw3-stroke" data-item-order="1000000000" transform="translate(187.9140625, 164)"></g><g id="g-root-tx_chooseth_4j7f4014ust8v-stroke" data-item-order="1000000000" transform="translate(55.9140625, 176)"></g><g id="g-root-tx_generate_1uuxav414u7tal-stroke" data-item-order="1000000000" transform="translate(553.9140625, 146)"></g><g id="g-root-ic_cog_qu1s8w14u95oh-stroke" data-item-order="1000000000" transform="translate(215.85205078125, 255)"><g id="ic_cog_qu1s8w14u95oh-stroke" fill="none" stroke-linecap="round" stroke-linejoin="round" stroke-miterlimit="4" stroke="#43dd93" stroke-width="2"><g><path d="M 20.083 27.182L 20.083 18.749C 20.083 17.901795 20.769795 17.215 21.617 17.215L 24.683 17.215M 18.55 21.815L 22.383 21.815M 20.514 12.225C 20.893265 12.646033 21.433333 12.886417 22 12.886417C 22.566667 12.886417 23.106735 12.646033 23.486 12.225L 24.447 11.161C 25.013449 10.52835 25.917653 10.322379 26.702224 10.647278C 27.486795 10.972176 27.98066 11.7571 27.934 12.605L 27.861 14.037C 27.831949 14.602361 28.043853 15.153551 28.444151 15.553849C 28.844449 15.954147 29.395639 16.166051 29.961 16.137L 31.4 16.066C 32.2479 16.01934 33.032824 16.513205 33.357722 17.297776C 33.682621 18.082347 33.47665 18.986551 32.844 19.553L 31.78 20.514C 31.358967 20.893265 31.118583 21.433333 31.118583 22C 31.118583 22.566667 31.358967 23.106735 31.78 23.486L 32.844 24.447C 33.47665 25.013449 33.682621 25.917653 33.357722 26.702224C 33.032824 27.486795 32.2479 27.98066 31.4 27.934L 29.968 27.861C 29.402639 27.831949 28.851449 28.043853 28.451151 28.444151C 28.050853 28.844449 27.838949 29.395639 27.868 29.961L 27.941 31.393C 27.98766 32.2409 27.493795 33.025824 26.709224 33.350722C 25.924653 33.675621 25.020449 33.46965 24.454 32.837L 23.493 31.773C 23.113735 31.351967 22.573667 31.111583 22.007 31.111583C 21.440333 31.111583 20.900265 31.351967 20.521 31.773L 19.56 32.837C 18.99551 33.474227 18.089512 33.684289 17.3022 33.360486C 16.514889 33.036683 16.018833 32.24999 16.066 31.4L 16.139 29.968C 16.168051 29.402639 15.956147 28.851449 15.555849 28.451151C 15.155551 28.050853 14.604361 27.838949 14.039 27.868L 12.607 27.941C 11.7591 27.98766 10.974176 27.493795 10.649278 26.709224C 10.324379 25.924653 10.53035 25.020449 11.163 24.454L 12.227 23.493C 12.648033 23.113735 12.888417 22.573667 12.888417 22.007C 12.888417 21.440333 12.648033 20.900265 12.227 20.521L 11.161 19.553C 10.52835 18.986551 10.322379 18.082347 10.647278 17.297776C 10.972176 16.513205 11.7571 16.01934 12.605 16.066L 14.037 16.139C 14.602361 16.168051 15.153551 15.956147 15.553849 15.555849C 15.954147 15.155551 16.166051 14.604361 16.137 14.039L 16.066 12.605C 16.01934 11.7571 16.513205 10.972176 17.297776 10.647278C 18.082347 10.322379 18.986551 10.52835 19.553 11.161Z"></path></g></g></g><g id="g-root-ic_metr_90wchs14uetqi-stroke" data-item-order="1000000000" transform="translate(468.85205078125, 243)"><g id="ic_metr_90wchs14uetqi-stroke" fill="none" stroke-linecap="round" stroke-linejoin="round" stroke-miterlimit="4" stroke="#fb6762" stroke-width="2"><g><path d="M 22 10.509C 36 10.509 30 29.509 22 29.509C 14 29.509 8 10.509 22 10.509ZM 17.224 18.938C 17.393264 19.276729 17.739334 19.490798 18.118 19.491L 25.882 19.491C 26.260666 19.490798 26.606736 19.276729 26.776 18.938L 27.776 16.938C 27.930859 16.628098 27.914285 16.260121 27.732195 15.965394C 27.550104 15.670668 27.22844 15.491185 26.882 15.491L 17.118 15.491C 16.77156 15.491185 16.449896 15.670668 16.267805 15.965394C 16.085715 16.260121 16.069141 16.628098 16.224 16.938ZM 25.344 28.386C 27.106 26.021 25.101 23.009 21.999 23.009C 18.897 23.009 16.894 26.025 18.656 28.386M 10.5 33.491L 14.633 23.105M 29.345 23.159L 33.5 33.491M 11.296 31.491L 32.696 31.491M 26.441 27.491L 31.087 27.491M 12.888 27.491L 17.559 27.491"></path></g></g></g><g id="g-root-ic_targ_deufcw14ultl1-stroke" data-item-order="1000000000" transform="translate(721.85205078125, 244)"><g id="ic_targ_deufcw14ultl1-stroke" fill="none" stroke-linecap="round" stroke-linejoin="round" stroke-miterlimit="4" stroke="#b7b7b7" stroke-width="2"><g><path d="M 11.822 14.014C 11.821418 15.95514 13.394859 17.529054 15.336 17.529054C 17.27714 17.529054 18.850582 15.95514 18.849999 14.014C 18.850582 12.07286 17.27714 10.498946 15.336 10.498946C 13.394859 10.498946 11.821418 12.07286 11.822 14.014M 17.481 19.353C 16.095215 18.596158 14.413061 18.62602 13.055013 19.431573C 11.696964 20.237125 10.864241 21.69901 10.864 23.278L 10.864 27.111L 12.887 27.111L 13.42 33.5L 17.253 33.5M 28.6 24.992C 29.299061 27.709193 28.086264 30.557199 25.642871 31.936208C 23.199479 33.315217 20.134532 32.881497 18.169701 30.87868C 16.20487 28.875864 15.82991 25.803175 17.255447 23.386633C 18.680984 20.97009 21.551687 19.812043 24.254999 20.562999M 25.69 26.548C 25.69 28.263396 24.299396 29.654 22.584 29.654C 20.868603 29.654 19.478 28.263396 19.478 26.548C 19.478 24.832603 20.868603 23.442 22.584 23.442M 27.065 21.956L 22.752 26.548M 29.973 18.902L 29.969999 15.557L 26.915001 18.368L 27.065001 21.956M 29.973 18.902L 33.136 18.902L 30.325001 21.956L 27.065001 21.956"></path></g></g></g><g id="g-root-ic_aim_1uljx3414ues5c-stroke" data-item-order="1000000000" transform="translate(89.85206604003906, 271)"><g id="ic_aim_1uljx3414ues5c-stroke" fill="none" stroke-linecap="round" stroke-linejoin="round" stroke-miterlimit="4" stroke="#4f91fc" stroke-width="2"><g><path d="M 22.5 16.5C 22.5 19.261424 24.738577 21.5 27.5 21.5C 30.261424 21.5 32.5 19.261424 32.5 16.5C 32.5 13.738576 30.261424 11.5 27.5 11.5C 24.738577 11.5 22.5 13.738576 22.5 16.5ZM 27.5 10.5L 27.5 13.5M 27.5 19.5L 27.5 22.5M 21.5 16.5L 24.5 16.5M 30.5 16.5L 33.5 16.5M 27.5 16.25C 27.638071 16.25 27.75 16.361929 27.75 16.5C 27.75 16.638071 27.638071 16.75 27.5 16.75C 27.361929 16.75 27.25 16.638071 27.25 16.5C 27.25 16.361929 27.361929 16.25 27.5 16.25M 12.5 14C 12.5 15.932997 14.067004 17.5 16 17.5C 17.932997 17.5 19.5 15.932997 19.5 14C 19.5 12.067004 17.932997 10.5 16 10.5C 14.067004 10.5 12.5 12.067004 12.5 14ZM 12.547 14.577C 13.874509 14.562077 15.131833 13.978385 16 12.974C 16.868409 13.977115 18.125287 14.559677 19.452 14.574M 18.217 19.715L 16 23.206L 13.802 19.701M 16 19C 17.760333 18.998251 19.291419 20.20574 19.7 21.918L 21.5 28.5L 18.543 28.5L 17.489 33.5L 14.489 33.5L 13.435 28.5L 10.5 28.5L 12.305 21.918C 12.713149 20.207558 14.241535 19.000567 16 19Z"></path></g></g></g><g id="g-root-tx_generate_vbqssg14u7soz-stroke" data-item-order="1000000000" transform="translate(433.9140625, 152)"></g><g id="g-root-tx_trainmod_dg3gow14u7rph-stroke" data-item-order="1000000000" transform="translate(313.9140625, 152)"></g><g id="g-root-tx_assessth_hz1c8w14uakgf-stroke" data-item-order="1000000000" transform="translate(367.9140625, 518)"></g><g id="g-root-tx_evaluate_1upxi6814u981v-stroke" data-item-order="1000000000" transform="translate(685.9140625, 128)"></g><g id="g-root-tx_selectet_v5hyrk14ust8t-stroke" data-item-order="1000000000" transform="translate(61.9140625, 134)"></g><g id="g-root-ic_2_1q88hmo14ual1h-stroke" data-item-order="1000000000" transform="translate(279.85205078125, 342)"><g id="ic_2_1q88hmo14ual1h-stroke" fill="none" stroke-linecap="round" stroke-linejoin="round" stroke-miterlimit="4" stroke="#a6da37" stroke-width="2"><g><path d="M 14.75 20.5001C 16.95914 20.5001 18.75 19.78378 18.75 18.90012C 18.75 18.01647 16.95914 17.30012 14.75 17.30012C 12.54086 17.30012 10.75 18.01647 10.75 18.90012C 10.75 19.78378 12.54086 20.5001 14.75 20.5001ZM 10.75 18.89997L 10.75 25.3C 10.75 26.2 12.55 26.9 14.75 26.9C 16.95 26.9 18.75 26.2 18.75 25.3L 18.75 18.89997M 30.6014 13.3733C 32.0153 13.3733 33.1614 12.75247 33.1614 11.98664C 33.1614 11.2208 32.0153 10.599968 30.6014 10.599968C 29.1876 10.599968 28.0414 11.2208 28.0414 11.98664C 28.0414 12.75247 29.1876 13.3733 30.6014 13.3733ZM 28.0414 11.98669L 28.0414 15.61335C 28.0414 16.36002 29.2148 17.00002 30.6014 17.00002C 31.9881 17.00002 33.1614 16.36002 33.1614 15.61335L 33.1614 11.98669M 30.6014 21.6801C 32.0153 21.6801 33.1614 21.0592 33.1614 20.2934C 33.1614 19.52757 32.0153 18.90674 30.6014 18.90674C 29.1876 18.90674 28.0414 19.52757 28.0414 20.2934C 28.0414 21.0592 29.1876 21.6801 30.6014 21.6801ZM 28.0414 20.2935L 28.0414 23.9201C 28.0414 24.6668 29.2148 25.3068 30.6014 25.3068C 31.9881 25.3068 33.1614 24.6668 33.1614 23.9201L 33.1614 20.2935M 30.6014 29.7733C 32.0153 29.7733 33.1614 29.1525 33.1614 28.3866C 33.1614 27.6208 32.0153 27 30.6014 27C 29.1876 27 28.0414 27.6208 28.0414 28.3866C 28.0414 29.1525 29.1876 29.7733 30.6014 29.7733ZM 28.0414 28.3867L 28.0414 32.0134C 28.0414 32.76 29.2148 33.4 30.6014 33.4C 31.9881 33.4 33.1614 32.76 33.1614 32.0134L 33.1614 28.3867M 25.6458 13.7L 23.6458 13.7L 23.6458 30.3L 25.6458 30.3M 25.6458 22L 21.1458 22M 10.75 22.1311C 10.75 22.9769 12.47973 23.6688 14.75002 23.6688C 17.0203 23.6688 18.75003 22.9769 18.75003 22.1311"></path></g></g></g><g id="g-root-tx_predicto_1d15e0w14u7rbh-stroke" data-item-order="1000000000" transform="translate(439.9140625, 110)"></g><g id="g-root-tx_featuree_1ha3o7414u7s3t-stroke" data-item-order="1000000000" transform="translate(187.9140625, 122)"></g><g id="g-root-ic_down_9257i814ulte4-stroke" data-item-order="1000000000" transform="translate(152.85205078125, 366)"><g id="ic_down_9257i814ulte4-stroke" fill="none" stroke-linecap="round" stroke-linejoin="round" stroke-miterlimit="4" stroke="#1ac3fb" stroke-width="2"><g><path d="M 19.49 33.514L 11.49 33.514C 10.937715 33.514 10.49 33.066285 10.49 32.514L 10.49 11.514C 10.49 10.961715 10.937715 10.514 11.49 10.514L 24.783 10.514C 25.048195 10.514057 25.302507 10.619451 25.49 10.807L 29.2 14.514C 29.387549 14.701493 29.492943 14.955805 29.493 15.221L 29.493 18.514M 13.49 25.514L 19.49 25.514M 14.99 20.514L 15.99 20.514C 16.266142 20.514 16.49 20.737858 16.49 21.014L 16.49 25.514L 16.49 25.514L 14.49 25.514L 14.49 25.514L 14.49 21.014C 14.49 20.737858 14.713858 20.514 14.99 20.514ZM 20.49 22.514L 20.49 18.014C 20.49 17.737858 20.266142 17.514 19.99 17.514L 18.99 17.514C 18.713858 17.514 18.49 17.737858 18.49 18.014L 18.49 25.514M 21.49 27.514C 21.490001 30.827709 24.176292 33.514001 27.490001 33.514001C 30.803709 33.514001 33.490001 30.827709 33.490001 27.514001C 33.490001 24.200292 30.803709 21.514001 27.490001 21.514001C 24.176292 21.514001 21.490001 24.200292 21.490001 27.514001ZM 27.49 24.514L 27.49 30.514M 27.49 30.514L 25.24 28.264M 27.49 30.514L 29.74 28.264"></path></g></g></g><g id="g-root-ic_bust_14806yo14uet57-stroke" data-item-order="1000000000" transform="translate(531.85205078125, 363)"><g id="ic_bust_14806yo14uet57-stroke" fill="none" stroke-linecap="round" stroke-linejoin="round" stroke-miterlimit="4" stroke="#f366bb" stroke-width="2"><g><path d="M 29.763 29.87L 33.422 33.529M 21.648 26.543C 21.648 29.160277 23.769722 31.282 26.387 31.282C 29.004277 31.282 31.126 29.160277 31.126 26.543C 31.126 23.925722 29.004277 21.804 26.387 21.804C 23.769722 21.804 21.648 23.925722 21.648 26.543M 10.792 32.097L 11.327 32.097M 13.56 32.097L 14.095 32.097M 17.306 32.097L 17.842 32.097M 25.335 28.35L 25.87 27.815M 26.405 25.139L 26.405 24.336M 21.084 19.919L 21.619 20.454M 20.518 32.097L 21.053 32.097M 15.663848 16.363567L 16.486921 15.540494C 16.977482 15.05305 17.769927 15.054315 18.258931 15.543323L 19.056546 16.34094C 19.772839 17.057228 19.774103 18.218173 19.059375 18.936021L 19.059375 18.936021C 18.341982 19.653414 17.178858 19.653415 16.461465 18.936021L 15.663848 18.138405C 15.17374 17.648297 15.173741 16.853675 15.663848 16.363567ZM 13.263779 13.734068L 13.857041 13.140805C 13.857041 13.140805 14.859719 12.138128 15.862397 13.140805L 16.372221 13.650629C 16.372221 13.650629 17.374898 14.653306 16.372221 15.655984L 15.778958 16.249247C 15.778958 16.249247 14.77628 17.251924 13.773603 16.249247L 13.263779 15.739423C 13.263779 15.739423 12.261101 14.736745 13.263779 13.734068M 10.582 12.974C 10.482 13.734 12.02 15.199 12.948 14.111M 13.081 10.475C 13.84 10.375 15.305 11.914 14.217 12.841M 16.33 13.608L 17.247 11.713M 18.262 15.54L 19.432 13.693M 13.731 16.206L 11.837 17.124M 15.664 18.139L 13.816 19.309"></path></g></g></g><g id="g-root-tx_evaluate_mbqgxs14u9535-stroke" data-item-order="1000000000" transform="translate(685.9140625, 86)"></g><g id="g-root-ic_micr_1hf3dq814uq2v7-stroke" data-item-order="1000000000" transform="translate(784.85205078125, 363)"><g id="ic_micr_1hf3dq814uq2v7-stroke" fill="none" stroke-linecap="round" stroke-linejoin="round" stroke-miterlimit="4" stroke="#b7b7b7" stroke-width="2"><g><path d="M 15.5 12.5L 19.5 12.5M 24.5 12.5L 28 12.5M 19.25 12.5L 24.75 12.5L 24.75 31.5L 19.25 31.5ZM 33.5 31.5L 28 31.5L 28 12.5L 33.5 18L 33.5 31.5ZM 10.5 12.5L 16 12.5L 16 31.5L 10.5 31.5ZM 16 18.5L 19.25 18.5M 24.75 18.5L 28 18.5"></path></g></g></g><g id="g-root-tx_signalba_qwji9s14udczr-stroke" data-item-order="1000000000" transform="translate(268.9140625, 38)"></g><g id="g-root-ic_lapt_v98ta814uhlvp-stroke" data-item-order="1000000000" transform="translate(658.85205078125, 377)"><g id="ic_lapt_v98ta814uhlvp-stroke" fill="none" stroke-linecap="round" stroke-linejoin="round" stroke-miterlimit="4" stroke="#8769fd" stroke-width="2"><g><path d="M 10.5 33C 10.5 29.134008 13.634007 26.000001 17.5 26.000001C 18.35892 25.99223 19.210138 26.162473 19.999999 26.499999M 19.504 33L 13.503 33M 17.504 28L 17.504 30M 13.504 20.5C 13.504 22.709139 15.294861 24.5 17.504 24.5C 19.713139 24.5 21.504 22.709139 21.504 20.5C 21.504 18.290861 19.713139 16.5 17.504 16.5C 15.294861 16.5 13.504 18.290861 13.504 20.5ZM 21.465 19.943C 20.758624 20.316736 19.970112 20.508193 19.171 20.5C 17.254738 20.500288 15.506874 19.405348 14.671 17.681M 21.504 11L 21.504 13M 22.504 12L 20.504 12M 32.504 20L 32.504 22M 33.504 21L 31.504 21M 29.5 13L 26.7 13C 26.041 13 25.507 13.193 25.507 14C 25.507 15.307 29.507 16.693 29.507 18C 29.507 18.693 28.973 19 28.314 19L 25.5 19M 27.504 13L 27.504 11.5M 27.504 20.5L 27.504 19M 22.276 24.684C 22.412072 24.275457 22.794393 23.999896 23.225 24L 32.116 24C 32.437444 23.999923 32.739328 24.154371 32.927342 24.415095C 33.115356 24.675818 33.166576 25.011027 33.065 25.316L 30.5 33L 19.5 33ZM 27 28.25C 27.138071 28.25 27.25 28.361929 27.25 28.5C 27.25 28.638071 27.138071 28.75 27 28.75C 26.861929 28.75 26.75 28.638071 26.75 28.5C 26.75 28.361929 26.861929 28.25 27 28.25"></path></g></g></g><g id="g-root-ic_star_1ut1sg014udcsl-stroke" data-item-order="1000000000" transform="translate(405.85205078125, 399)"><g id="ic_star_1ut1sg014udcsl-stroke" fill="none" stroke-linecap="round" stroke-linejoin="round" stroke-miterlimit="4" stroke="#f79438" stroke-width="2"><g><path d="M 18.40002 24.15C 19.60002 25.45 21.4 26.25 23.3 26.25C 24.3 26.25 25.2 26.05 26 25.65M 22 30.05C 24.2644 30.05 26.1 28.2144 26.1 25.95C 26.1 23.6856 24.2644 21.85 22 21.85C 19.73563 21.85 17.89999 23.6856 17.89999 25.95C 17.89999 28.2144 19.73563 30.05 22 30.05ZM 26.6 33.25C 25.3 32.25 23.7 31.75 22 31.75C 20.3 31.75 18.69999 32.35 17.39999 33.25M 15.23535 12.25C 15.03535 12.25 14.83535 12.35 14.73535 12.55L 13.53535 15.05L 11.33535 15.05C 10.835354 15.05 10.53536 15.65 10.93536 16.05L 12.93536 17.95L 11.83535 20.45C 11.63535 20.95 12.13536 21.45 12.63536 21.15L 15.23535 19.65L 15.93536 20.05M 10 10M 22.6 11.05001L 23.8 13.55001L 25.9 13.55001C 26.4 13.55001 26.7 14.15001 26.3 14.55001L 24.3 16.45001L 25.4 18.95001C 25.6 19.45001 25.1 19.95001 24.6 19.65001L 22 18.15001L 19.4 19.65001C 18.9 19.95001 18.30001 19.45001 18.60001 18.95001L 19.7 16.45001L 17.7 14.55001C 17.3 14.15001 17.60001 13.55001 18.10001 13.55001L 20.2 13.55001L 21.4 11.05001C 21.6 10.65625 22.4 10.650012 22.6 11.05001ZM 28.86 12.25C 29.06 12.25 29.26 12.35 29.36 12.55L 30.56 15.05L 32.66 15.05C 33.16 15.05 33.46 15.65 33.06 16.05L 31.06 17.95L 32.16 20.45C 32.36 20.95 31.86 21.45 31.36 21.15L 28.76 19.65L 28.06 20.05"></path></g></g></g><g id="g-root-tx_splitdat_zofxhc14uajup-stroke" data-item-order="1000000000" transform="translate(253.9140625, 422)"></g><g id="g-root-tx_download_m9v1og14uak95-stroke" data-item-order="1000000000" transform="translate(121.9140625, 446)"></g><g id="g-root-tx_divideth_925dts14uajur-stroke" data-item-order="1000000000" transform="translate(241.9140625, 452)"></g><g id="g-root-tx_predicto_1ly1cg014ual1l-stroke" data-item-order="1000000000" transform="translate(499.9140625, 440)"></g><g id="g-root-tx_analyzes_dccm6814uc0zl-stroke" data-item-order="1000000000" transform="translate(763.9140625, 440)"></g><g id="g-root-tx_computep_9mr0g14ualtx-stroke" data-item-order="1000000000" transform="translate(637.9140625, 458)"></g><g id="g-root-tx_evaluate_18lbvwg14uakgd-stroke" data-item-order="1000000000" transform="translate(379.9140625, 476)"></g><g id="g-root-tx_generate_vbqssg14ual1n-stroke" data-item-order="1000000000" transform="translate(493.9140625, 482)"></g><g id="g-root-tx_analyzet_1cw5lc014ubyff-stroke" data-item-order="1000000000" transform="translate(751.9140625, 482)"></g><g id="g-root-tx_gatherhi_4mybk14ualn3-stroke" data-item-order="1000000000" transform="translate(115.9140625, 512)"></g><g id="g-root-tx_calculat_18egny814uc07b-stroke" data-item-order="1000000000" transform="translate(625.9140625, 500)"></g><g id="g-root-ic_user_zs6ou814ug83n-stroke" data-item-order="1000000000" transform="translate(595.85205078125, 277)"><g id="ic_user_zs6ou814ug83n-stroke" fill="none" stroke-linecap="round" stroke-linejoin="round" stroke-miterlimit="4" stroke="#cb68f9" stroke-width="2"><g><path d="M 13.95001 22.05C 15.25001 23.35 16.95001 24.25 18.95001 24.25C 19.95001 24.25 20.95 24.05 21.75 23.65M 17.65001 28.25C 19.96961 28.25 21.85 26.3696 21.85 24.05C 21.85 21.7304 19.96961 19.85001 17.65001 19.85001C 15.33041 19.85001 13.45001 21.7304 13.45001 24.05C 13.45001 26.3696 15.33041 28.25 17.65001 28.25ZM 17.64999 29.25L 17.64999 33.25M 24.55 33.25C 23.15 30.85 20.55 29.25 17.64999 29.25C 14.74999 29.25 12.15 30.85 10.75 33.25M 16.75 16.85001L 16.75 15.85001C 16.75 15.25001 17.15 14.85001 17.75 14.85001L 19.25 14.85001C 19.85 14.85001 20.25 15.25001 20.25 15.85001L 20.25 17.35001M 31.5 17.25L 31.5 20.25M 24.25 19.25C 23.65 19.25 23.25 18.85 23.25 18.25L 23.25 13.75C 23.25 13.15 23.65 12.75 24.25 12.75L 25.75 12.75C 26.35 12.75 26.75 13.15 26.75 13.75L 26.75 18.25C 26.75 18.85 26.35 19.25 25.75 19.25L 24.25 19.25ZM 25 19.25L 25 21.25M 25 10.75L 25 12.75M 30.75 17.25C 30.15 17.25 29.75 16.85 29.75 16.25L 29.75 11.75C 29.75 11.15 30.15 10.75 30.75 10.75L 32.25 10.75C 32.85 10.75 33.25 11.15 33.25 11.75L 33.25 16.25C 33.25 16.85 32.85 17.25 32.25 17.25L 30.75 17.25Z"></path></g></g></g></g></g><path id="wv2zd5c15o7zf1" d="M65.283 12.757a.35.35 0 0 0 .584.157l5.203-5.141-6.183 3.523.396 1.461zm-2.216-11.7a.35.35 0 0 0-.522.305v3.111l3.276-1.868-2.754-1.548zm3.728 2.105l-4.25 2.421v2.445l6.391-3.644-2.141-1.222zm4.708 3.303a.35.35 0 0 0 0-.609l-1.592-.9-7.365 4.199v1.782a.35.35 0 0 0 .523.305l8.435-4.777z M44.542 2.513c0-.433.355-.783.792-.783s.792.35.792.783-.355.783-.792.783-.792-.35-.792-.783zm59.171 0c0-.433.355-.783.792-.783s.792.35.792.783-.355.783-.792.783-.792-.35-.792-.783zm-85.951 7.636h-1.27v-.487c-.276.201-.864.609-1.881.609-1.202 0-2.274-.794-2.137-2.078.118-1.106 1.153-1.584 1.848-1.727l2.17-.345c0-.539-.29-.956-1.064-1.006s-1.21.305-1.571 1.017l-1.124-.605c1.218-2.631 5.029-1.764 5.029.414v4.207zm-1.27-2.86c.006.396-.062 1.112-.819 1.59-.587.37-1.841.299-1.903-.395-.049-.555.461-.791.906-.898l1.816-.297zm72.662 2.86h-1.27v-.487c-.276.201-.864.609-1.881.609-1.202 0-2.274-.794-2.137-2.078.118-1.106 1.153-1.584 1.848-1.727l2.17-.345c0-.539-.29-.956-1.064-1.006s-1.21.305-1.571 1.017l-1.124-.605c1.218-2.631 5.029-1.764 5.029.414v4.207zm-1.27-2.86c.006.396-.062 1.112-.82 1.59-.587.37-1.841.299-1.903-.395-.049-.555.461-.791.906-.898l1.816-.297zM99.096 10.149H97.85v-8.45h1.246v4.895l2.68-2.559h1.738l-2.633 2.535 2.715 3.578h-1.556l-2.077-2.707-.867.844v1.863zm6.053-6.114h-1.255v6.113h1.255V4.035zm-59.2 0h-1.255v6.113h1.255V4.035zm5.584 6.113V1.697h1.255v2.695c.361-.346 1-.485 1.47-.485 1.452 0 2.477 1.082 2.457 2.448v3.792h-1.27v-3.68c0-.408-.214-1.339-1.315-1.339-.968 0-1.342.756-1.342 1.339v3.681h-1.255zm-4.76-4.894V4.039h.621a.45.45 0 0 0 .45-.45v-.855h1.251v1.305h1.309v1.215h-1.309v3.109c0 .293.105.664.648.664.365 0 .531-.035.736-.07v1.137s-.361.113-.857.113c-1.398 0-1.777-1.051-1.777-1.788V5.254h-1.071zM36.528 4.039h-1.394l2.191 6.106h1.125l1.234-3.918 1.238 3.918h1.129l2.188-6.106h-1.383l-1.359 3.93-1.256-3.93h-1.124l-1.242 3.957-1.348-3.957zM26.212 7.141c-.02 1.566 1.187 3.129 3.223 3.129 1.566 0 2.383-.918 2.734-1.719L31.172 8c-.315.399-.801 1.094-1.738 1.094-1.145 0-1.825-.781-1.891-1.52h4.625c.074-.284.148-.995-.03-1.559-.336-1.064-1.221-2.102-2.839-2.102s-3.088 1.152-3.088 3.227zm1.363-.75h3.348c-.055-.43-.566-1.301-1.623-1.301a1.79 1.79 0 0 0-1.725 1.301zm-8.758.75c.038 1.758 1.277 3.133 3.145 3.133 1.074 0 1.723-.477 1.961-.672v.547h1.242V1.703h-1.258v2.888c-.414-.36-1.062-.68-1.93-.68-1.91 0-3.198 1.473-3.16 3.23zm1.309-.08c0 1.119.723 1.978 1.836 1.978a1.88 1.88 0 0 0 1.94-1.904c0-1.371-1.011-1.99-1.972-1.99s-1.805.798-1.805 1.916zm76.683-.028C96.771 5.275 95.532 3.9 93.664 3.9c-1.074 0-1.723.477-1.961.672v-.547h-1.242v8.22h1.258V9.583c.414.36 1.063.68 1.93.68 1.91 0 3.198-1.473 3.16-3.23zm-1.309.08c0-1.119-.723-1.978-1.836-1.978a1.88 1.88 0 0 0-1.94 1.904c0 1.371 1.011 1.99 1.972 1.99S95.5 8.231 95.5 7.113zM106.441 10.173V4.036h1.254v.382c.361-.346 1-.485 1.47-.485 1.452 0 2.477 1.082 2.457 2.448v3.792h-1.27V6.492c0-.408-.214-1.339-1.315-1.339-.969 0-1.342.756-1.342 1.339v3.681h-1.254zm-30.383-.021V1.824h1.084l4.215 5.777V1.824h1.32v8.328h-1.094l-4.207-5.796v5.796h-1.319zM5.24 10.149H4V2.377h1.014l2.664 3.597 2.654-3.592h1.03v7.766h-1.256V4.762L7.678 8.068 5.24 4.742v5.407z" transform="translate(779.78955078125, 581.87548828125)" fill="#ababab88" stroke="none"></path></svg>