<?xml version="1.0" encoding="utf-8" standalone="yes"?>
<!DOCTYPE svg PUBLIC "-//W3C//DTD SVG 1.1//EN" "http://www.w3.org/Graphics/SVG/1.1/DTD/svg11.dtd">
<svg width="1020" height="721" viewBox="0 0 1020 721" style="fill:none;stroke:none;fill-rule:evenodd;clip-rule:evenodd;stroke-linecap:round;stroke-linejoin:round;stroke-miterlimit:1.5;" version="1.1" xmlns="http://www.w3.org/2000/svg" xmlns:xlink="http://www.w3.org/1999/xlink"><style class="text-font-style fontImports" data-font-family="Roboto">@import url(https://fonts.googleapis.com/css2?family=Roboto:wght@400;700&amp;amp;display=block);</style><g id="items" style="isolation: isolate"><g id="blend" style="mix-blend-mode: normal"><g id="g-root-cp_3_g-3_zmjz3ilzhn9q-fill" data-item-order="-606739" transform="translate(242, 386.10205078125)"><g id="cp_3_g-3_zmjz3ilzhn9q-fill" stroke="none" fill="#344e57"><g><path d="M 10 130.1237L 41.0002 82.1237L 10.0001 34.1238L 172.5235 34.1234C 186.5934 34.1234 200.0628 28.4219 209.8568 18.3204L 217.924 10L 221.0002 13.1235C 243.9911 36.8427 274.101 52.0414 306.4178 56.6401L 278.7798 85.1457C 250.9046 113.896 212.5686 130.1234 172.5235 130.1234L 10 130.1237Z"></path></g></g></g><g id="g-root-cp_2_g-2_v6qgz2lzho20-fill" data-item-order="-606735" transform="translate(242, 266.22705078125)"><g id="cp_2_g-2_v6qgz2lzho20-fill" stroke="none" fill="#4b533a"><g><path d="M 368.8556 177.9919L 327.2705 177.9919C 287.2184 177.9919 248.8763 161.7588 221 132.9995L 209.978 121.8081C 200.1837 111.7035 186.7121 106 172.6397 106L 10 105.9999L 41.0002 57.9999L 10.0001 10L 172.6397 10C 212.6919 10 251.034 26.2331 278.9103 54.9924L 289.9323 66.1838C 299.7266 76.2884 313.1981 81.9919 327.2705 81.9919L 367.6819 81.9919L 414.3702 131.0401L 368.8556 177.9919Z"></path></g></g></g><g id="g-root-cp_4_g-4_v6qgz2lzho22-fill" data-item-order="-606731" transform="translate(242, 387.2659912109375)"><g id="cp_4_g-4_v6qgz2lzho22-fill" stroke="none" fill="#4c4371"><g><path d="M 10 272.9595L 41.0002 224.9595L 10.0001 176.9596L 177.5887 176.9596C 225.486 176.9596 271.3386 157.5481 304.6766 123.1573L 414.3702 10L 424.5333 20.6768C 445.278 42.0766 473.208 54.8759 502.7768 56.7264L 373.6057 189.9764C 322.1859 243.0198 251.4642 272.9596 177.5887 272.9596L 10 272.9595Z"></path></g></g></g><g id="g-root-cp_1_g-1_qqwyumlzhouc-fill" data-item-order="-606727" transform="translate(242, 122.22705078125)"><g id="cp_1_g-1_qqwyumlzhouc-fill" stroke="none" fill="#3b5649"><g><path d="M 41.0002 58.0001L 10 10.0001L 177.5887 10C 251.4642 10 322.1859 39.9398 373.6057 92.9832L 493.4622 218.898C 497.8628 223.4377 503.9154 226 510.2379 226L 716.9998 225.5L 748 274L 716.9999 321.4999L 510.2379 322C 477.9372 322 447.0156 308.9094 424.5333 285.7171L 304.6766 159.8023C 271.3386 125.4115 225.486 106 177.5887 106L 10.0001 106L 41.0002 58.0001Z"></path></g></g></g><g id="g-root-tx_building_hvwfoulzhmha-fill" data-item-order="0" transform="translate(296, 38)"><g id="tx_building_hvwfoulzhmha-fill" stroke="none" fill="#f4f4f4"><g><text style="font-style: normal; font-variant-caps: normal; font-weight: bold; font-stretch: normal; font-size: 25px; line-height: normal; font-family: Roboto, sans-serif; font-size-adjust: none; font-kerning: auto; font-variant-alternates: normal; font-variant-ligatures: normal; font-variant-numeric: normal; font-variant-east-asian: normal; font-variant-position: normal; font-variant-emoji: normal; font-feature-settings: normal; font-optical-sizing: auto; font-variation-settings: normal; white-space: pre;"><tspan x="13.24" y="42" dominant-baseline="ideographic">Building Strength Through Diversity</tspan></text></g></g></g><g id="g-root-tx_1_4ikodqlzg9am-fill" data-item-order="0" transform="translate(26, 146)"><g id="tx_1_4ikodqlzg9am-fill" stroke="none" fill="#43dd93"><g><text style="font-style: normal; font-variant-caps: normal; font-weight: normal; font-stretch: normal; font-size: 25px; line-height: normal; font-family: Roboto, sans-serif; font-size-adjust: none; font-kerning: auto; font-variant-alternates: normal; font-variant-ligatures: normal; font-variant-numeric: normal; font-variant-east-asian: normal; font-variant-position: normal; font-variant-emoji: normal; font-feature-settings: normal; font-optical-sizing: auto; font-variation-settings: normal; white-space: pre;"><tspan x="32.97" y="48" dominant-baseline="ideographic">1</tspan></text></g></g></g><g id="g-root-tx_combinin_18hkokulzg9vr-fill" data-item-order="0" transform="translate(86, 134.22705078125)"><g id="tx_combinin_18hkokulzg9vr-fill" stroke="none" fill="#f4f4f4"><g><text style="font-style: normal; font-variant-caps: normal; font-weight: normal; font-stretch: normal; font-size: 15px; line-height: normal; font-family: Roboto, sans-serif; font-size-adjust: none; font-kerning: auto; font-variant-alternates: normal; font-variant-ligatures: normal; font-variant-numeric: normal; font-variant-east-asian: normal; font-variant-position: normal; font-variant-emoji: normal; font-feature-settings: normal; font-optical-sizing: auto; font-variation-settings: normal; white-space: pre;"><tspan x="12" y="28" dominant-baseline="ideographic">Combining diverse </tspan><tspan x="12" y="46" dominant-baseline="ideographic">algorithms captures </tspan><tspan x="12" y="64" dominant-baseline="ideographic">different data </tspan><tspan x="12" y="82" dominant-baseline="ideographic">aspects.</tspan></text></g></g></g><g id="g-root-tx_differen_1d0ik4ulzga9z-fill" data-item-order="0" transform="translate(290, 146.22705078125)"><g id="tx_differen_1d0ik4ulzga9z-fill" stroke="none" fill="#43dd93"><g><text style="font-style: normal; font-variant-caps: normal; font-weight: normal; font-stretch: normal; font-size: 20px; line-height: normal; font-family: Roboto, sans-serif; font-size-adjust: none; font-kerning: auto; font-variant-alternates: normal; font-variant-ligatures: normal; font-variant-numeric: normal; font-variant-east-asian: normal; font-variant-position: normal; font-variant-emoji: normal; font-feature-settings: normal; font-optical-sizing: auto; font-variation-settings: normal; white-space: pre;"><tspan x="12" y="34" dominant-baseline="ideographic">Different </tspan><tspan x="12" y="58" dominant-baseline="ideographic">Algorithms</tspan></text></g></g></g><g id="g-root-tx_2_qqx566lzg934-fill" data-item-order="0" transform="translate(26, 290)"><g id="tx_2_qqx566lzg934-fill" stroke="none" fill="#a6da37"><g><text style="font-style: normal; font-variant-caps: normal; font-weight: normal; font-stretch: normal; font-size: 25px; line-height: normal; font-family: Roboto, sans-serif; font-size-adjust: none; font-kerning: auto; font-variant-alternates: normal; font-variant-ligatures: normal; font-variant-numeric: normal; font-variant-east-asian: normal; font-variant-position: normal; font-variant-emoji: normal; font-feature-settings: normal; font-optical-sizing: auto; font-variation-settings: normal; white-space: pre;"><tspan x="32.97" y="48" dominant-baseline="ideographic">2</tspan></text></g></g></g><g id="g-root-tx_training_dg33vylzg7i9-fill" data-item-order="0" transform="translate(86, 284.22705078125)"><g id="tx_training_dg33vylzg7i9-fill" stroke="none" fill="#f4f4f4"><g><text style="font-style: normal; font-variant-caps: normal; font-weight: normal; font-stretch: normal; font-size: 15px; line-height: normal; font-family: Roboto, sans-serif; font-size-adjust: none; font-kerning: auto; font-variant-alternates: normal; font-variant-ligatures: normal; font-variant-numeric: normal; font-variant-east-asian: normal; font-variant-position: normal; font-variant-emoji: normal; font-feature-settings: normal; font-optical-sizing: auto; font-variation-settings: normal; white-space: pre;"><tspan x="12" y="31" dominant-baseline="ideographic">Training on subsets </tspan><tspan x="12" y="49" dominant-baseline="ideographic">creates diverse </tspan><tspan x="12" y="67" dominant-baseline="ideographic">models.</tspan></text></g></g></g><g id="g-root-tx_datasubs_v9v0q6lzg9hc-fill" data-item-order="0" transform="translate(290, 302.22705078125)"><g id="tx_datasubs_v9v0q6lzg9hc-fill" stroke="none" fill="#a6da37"><g><text style="font-style: normal; font-variant-caps: normal; font-weight: normal; font-stretch: normal; font-size: 20px; line-height: normal; font-family: Roboto, sans-serif; font-size-adjust: none; font-kerning: auto; font-variant-alternates: normal; font-variant-ligatures: normal; font-variant-numeric: normal; font-variant-east-asian: normal; font-variant-position: normal; font-variant-emoji: normal; font-feature-settings: normal; font-optical-sizing: auto; font-variation-settings: normal; white-space: pre;"><tspan x="12" y="34" dominant-baseline="ideographic">Data Subsets</tspan></text></g></g></g><g id="g-root-tx_strongle_1urskmmlzg7wu-fill" data-item-order="0" transform="translate(746, 374.22705078125)"><g id="tx_strongle_1urskmmlzg7wu-fill" stroke="none" fill="#f4f4f4"><g><text style="font-style: normal; font-variant-caps: normal; font-weight: normal; font-stretch: normal; font-size: 20px; line-height: normal; font-family: Roboto, sans-serif; font-size-adjust: none; font-kerning: auto; font-variant-alternates: normal; font-variant-ligatures: normal; font-variant-numeric: normal; font-variant-east-asian: normal; font-variant-position: normal; font-variant-emoji: normal; font-feature-settings: normal; font-optical-sizing: auto; font-variation-settings: normal; white-space: pre;"><tspan x="20" y="34" dominant-baseline="ideographic">Strong Learner</tspan></text></g></g></g><g id="g-root-ic_2_4mf72lzhouf-fill" data-item-order="0" transform="translate(902, 362.22705078125)"></g><g id="g-root-tx_3_1qa3n8ulzg9oq-fill" data-item-order="0" transform="translate(26, 434)"><g id="tx_3_1qa3n8ulzg9oq-fill" stroke="none" fill="#1ac3fb"><g><text style="font-style: normal; font-variant-caps: normal; font-weight: normal; font-stretch: normal; font-size: 25px; line-height: normal; font-family: Roboto, sans-serif; font-size-adjust: none; font-kerning: auto; font-variant-alternates: normal; font-variant-ligatures: normal; font-variant-numeric: normal; font-variant-east-asian: normal; font-variant-position: normal; font-variant-emoji: normal; font-feature-settings: normal; font-optical-sizing: auto; font-variation-settings: normal; white-space: pre;"><tspan x="32.97" y="48" dominant-baseline="ideographic">3</tspan></text></g></g></g><g id="g-root-tx_selectin_1cz9lymlzg83v-fill" data-item-order="0" transform="translate(86, 428.22705078125)"><g id="tx_selectin_1cz9lymlzg83v-fill" stroke="none" fill="#f4f4f4"><g><text style="font-style: normal; font-variant-caps: normal; font-weight: normal; font-stretch: normal; font-size: 15px; line-height: normal; font-family: Roboto, sans-serif; font-size-adjust: none; font-kerning: auto; font-variant-alternates: normal; font-variant-ligatures: normal; font-variant-numeric: normal; font-variant-east-asian: normal; font-variant-position: normal; font-variant-emoji: normal; font-feature-settings: normal; font-optical-sizing: auto; font-variation-settings: normal; white-space: pre;"><tspan x="12" y="31" dominant-baseline="ideographic">Selecting different </tspan><tspan x="12" y="49" dominant-baseline="ideographic">features introduces </tspan><tspan x="12" y="67" dominant-baseline="ideographic">diversity.</tspan></text></g></g></g><g id="g-root-tx_features_93dz72lzg8p5-fill" data-item-order="0" transform="translate(290, 434.22705078125)"><g id="tx_features_93dz72lzg8p5-fill" stroke="none" fill="#1ac3fb"><g><text style="font-style: normal; font-variant-caps: normal; font-weight: normal; font-stretch: normal; font-size: 20px; line-height: normal; font-family: Roboto, sans-serif; font-size-adjust: none; font-kerning: auto; font-variant-alternates: normal; font-variant-ligatures: normal; font-variant-numeric: normal; font-variant-east-asian: normal; font-variant-position: normal; font-variant-emoji: normal; font-feature-settings: normal; font-optical-sizing: auto; font-variation-settings: normal; white-space: pre;"><tspan x="12" y="34" dominant-baseline="ideographic">Feature </tspan><tspan x="12" y="58" dominant-baseline="ideographic">Subsets</tspan></text></g></g></g><g id="g-root-tx_4_znt3lalzg9os-fill" data-item-order="0" transform="translate(26, 578)"><g id="tx_4_znt3lalzg9os-fill" stroke="none" fill="#8769fd"><g><text style="font-style: normal; font-variant-caps: normal; font-weight: normal; font-stretch: normal; font-size: 25px; line-height: normal; font-family: Roboto, sans-serif; font-size-adjust: none; font-kerning: auto; font-variant-alternates: normal; font-variant-ligatures: normal; font-variant-numeric: normal; font-variant-east-asian: normal; font-variant-position: normal; font-variant-emoji: normal; font-feature-settings: normal; font-optical-sizing: auto; font-variation-settings: normal; white-space: pre;"><tspan x="32.97" y="48" dominant-baseline="ideographic">4</tspan></text></g></g></g><g id="g-root-tx_training_mcz2b2lzg83x-fill" data-item-order="0" transform="translate(86, 572.22705078125)"><g id="tx_training_mcz2b2lzg83x-fill" stroke="none" fill="#f4f4f4"><g><text style="font-style: normal; font-variant-caps: normal; font-weight: normal; font-stretch: normal; font-size: 15px; line-height: normal; font-family: Roboto, sans-serif; font-size-adjust: none; font-kerning: auto; font-variant-alternates: normal; font-variant-ligatures: normal; font-variant-numeric: normal; font-variant-east-asian: normal; font-variant-position: normal; font-variant-emoji: normal; font-feature-settings: normal; font-optical-sizing: auto; font-variation-settings: normal; white-space: pre;"><tspan x="12" y="31" dominant-baseline="ideographic">Training with varied </tspan><tspan x="12" y="49" dominant-baseline="ideographic">parameters leads to </tspan><tspan x="12" y="67" dominant-baseline="ideographic">diverse predictions.</tspan></text></g></g></g><g id="g-root-tx_varyingp_1ut1isulzga2y-fill" data-item-order="0" transform="translate(290, 578.22705078125)"><g id="tx_varyingp_1ut1isulzga2y-fill" stroke="none" fill="#8769fd"><g><text style="font-style: normal; font-variant-caps: normal; font-weight: normal; font-stretch: normal; font-size: 20px; line-height: normal; font-family: Roboto, sans-serif; font-size-adjust: none; font-kerning: auto; font-variant-alternates: normal; font-variant-ligatures: normal; font-variant-numeric: normal; font-variant-east-asian: normal; font-variant-position: normal; font-variant-emoji: normal; font-feature-settings: normal; font-optical-sizing: auto; font-variation-settings: normal; white-space: pre;"><tspan x="12" y="34" dominant-baseline="ideographic">Varying </tspan><tspan x="12" y="58" dominant-baseline="ideographic">Parameters</tspan></text></g></g></g><g id="g-root-cp_3_g-3_zmjz3ilzhn9q-stroke" data-item-order="-606739" transform="translate(242, 386.10205078125)"><g id="cp_3_g-3_zmjz3ilzhn9q-stroke" fill="none" stroke-linecap="round" stroke-linejoin="round" stroke-miterlimit="4" stroke="#1ac3fb" stroke-width="2"><g><path d="M 10 130.1237L 41.0002 82.1237L 10.0001 34.1238L 172.5235 34.1234C 186.5934 34.1234 200.0628 28.4219 209.8568 18.3204L 217.924 10L 221.0002 13.1235C 243.9911 36.8427 274.101 52.0414 306.4178 56.6401L 278.7798 85.1457C 250.9046 113.896 212.5686 130.1234 172.5235 130.1234L 10 130.1237Z"></path></g></g></g><g id="g-root-cp_2_g-2_v6qgz2lzho20-stroke" data-item-order="-606735" transform="translate(242, 266.22705078125)"><g id="cp_2_g-2_v6qgz2lzho20-stroke" fill="none" stroke-linecap="round" stroke-linejoin="round" stroke-miterlimit="4" stroke="#a6da37" stroke-width="2"><g><path d="M 368.8556 177.9919L 327.2705 177.9919C 287.2184 177.9919 248.8763 161.7588 221 132.9995L 209.978 121.8081C 200.1837 111.7035 186.7121 106 172.6397 106L 10 105.9999L 41.0002 57.9999L 10.0001 10L 172.6397 10C 212.6919 10 251.034 26.2331 278.9103 54.9924L 289.9323 66.1838C 299.7266 76.2884 313.1981 81.9919 327.2705 81.9919L 367.6819 81.9919L 414.3702 131.0401L 368.8556 177.9919Z"></path></g></g></g><g id="g-root-cp_4_g-4_v6qgz2lzho22-stroke" data-item-order="-606731" transform="translate(242, 387.2659912109375)"><g id="cp_4_g-4_v6qgz2lzho22-stroke" fill="none" stroke-linecap="round" stroke-linejoin="round" stroke-miterlimit="4" stroke="#8769fd" stroke-width="2"><g><path d="M 10 272.9595L 41.0002 224.9595L 10.0001 176.9596L 177.5887 176.9596C 225.486 176.9596 271.3386 157.5481 304.6766 123.1573L 414.3702 10L 424.5333 20.6768C 445.278 42.0766 473.208 54.8759 502.7768 56.7264L 373.6057 189.9764C 322.1859 243.0198 251.4642 272.9596 177.5887 272.9596L 10 272.9595Z"></path></g></g></g><g id="g-root-cp_1_g-1_qqwyumlzhouc-stroke" data-item-order="-606727" transform="translate(242, 122.22705078125)"><g id="cp_1_g-1_qqwyumlzhouc-stroke" fill="none" stroke-linecap="round" stroke-linejoin="round" stroke-miterlimit="4" stroke="#43dd93" stroke-width="2"><g><path d="M 41.0002 58.0001L 10 10.0001L 177.5887 10C 251.4642 10 322.1859 39.9398 373.6057 92.9832L 493.4622 218.898C 497.8628 223.4377 503.9154 226 510.2379 226L 716.9998 225.5L 748 274L 716.9999 321.4999L 510.2379 322C 477.9372 322 447.0156 308.9094 424.5333 285.7171L 304.6766 159.8023C 271.3386 125.4115 225.486 106 177.5887 106L 10.0001 106L 41.0002 58.0001Z"></path></g></g></g><g id="g-root-tx_building_hvwfoulzhmha-stroke" data-item-order="0" transform="translate(296, 38)"></g><g id="g-root-tx_1_4ikodqlzg9am-stroke" data-item-order="0" transform="translate(26, 146)"></g><g id="g-root-tx_combinin_18hkokulzg9vr-stroke" data-item-order="0" transform="translate(86, 134.22705078125)"></g><g id="g-root-tx_differen_1d0ik4ulzga9z-stroke" data-item-order="0" transform="translate(290, 146.22705078125)"></g><g id="g-root-tx_2_qqx566lzg934-stroke" data-item-order="0" transform="translate(26, 290)"></g><g id="g-root-tx_training_dg33vylzg7i9-stroke" data-item-order="0" transform="translate(86, 284.22705078125)"></g><g id="g-root-tx_datasubs_v9v0q6lzg9hc-stroke" data-item-order="0" transform="translate(290, 302.22705078125)"></g><g id="g-root-tx_strongle_1urskmmlzg7wu-stroke" data-item-order="0" transform="translate(746, 374.22705078125)"></g><g id="g-root-ic_2_4mf72lzhouf-stroke" data-item-order="0" transform="translate(902, 362.22705078125)"><g id="ic_2_4mf72lzhouf-stroke" fill="none" stroke-linecap="round" stroke-linejoin="round" stroke-miterlimit="4" stroke="#4f91fc" stroke-width="2"><g><path d="M 29.5 15.5C 29.5 17.985281 31.514719 20 34 20C 36.485283 20 38.5 17.985281 38.5 15.5C 38.5 13.014719 36.485283 11 34 11C 31.514719 11 29.5 13.014719 29.5 15.5ZM 43 29C 41.950928 24.88595 38.245701 22.006981 34 22.006981C 29.754301 22.006981 26.049074 24.88595 25 29ZM 10 10M 34 37L 34 33M 10 10M 23 37L 26 33M 10 10M 45 37L 42 33M 29.472 46.700001C 29.472 49.295738 31.576262 51.399998 34.171997 51.399998C 36.767738 51.399998 38.872002 49.295738 38.872002 46.700001C 38.872002 44.104259 36.767738 42 34.171997 42C 31.576262 42 29.472 44.104259 29.472 46.700001ZM 14.688 46.700001C 14.688 49.295738 16.792261 51.399998 19.388 51.399998C 21.983738 51.399998 24.087999 49.295738 24.087999 46.700001C 24.087999 44.104259 21.983738 42 19.388 42C 16.792261 42 14.688 44.104259 14.688 46.700001ZM 43.928001 46.700001C 43.927998 49.295738 46.032261 51.399998 48.627998 51.399998C 51.223736 51.399998 53.327999 49.295738 53.327999 46.700001C 53.327999 44.104259 51.223736 42 48.627998 42C 46.032261 42 43.927998 44.104259 43.927998 46.700001ZM 56 57C 54.222012 54.794235 51.541138 53.511814 48.708 53.511814C 45.874866 53.511814 43.193989 54.794235 41.416 57C 39.57724 54.804314 36.863907 53.531067 34 53.52M 12 57C 13.777988 54.794235 16.458866 53.511814 19.292 53.511814C 22.125135 53.511814 24.806011 54.794235 26.584002 57C 28.422762 54.804314 31.136093 53.531067 34 53.52"></path></g></g></g><g id="g-root-tx_3_1qa3n8ulzg9oq-stroke" data-item-order="0" transform="translate(26, 434)"></g><g id="g-root-tx_selectin_1cz9lymlzg83v-stroke" data-item-order="0" transform="translate(86, 428.22705078125)"></g><g id="g-root-tx_features_93dz72lzg8p5-stroke" data-item-order="0" transform="translate(290, 434.22705078125)"></g><g id="g-root-tx_4_znt3lalzg9os-stroke" data-item-order="0" transform="translate(26, 578)"></g><g id="g-root-tx_training_mcz2b2lzg83x-stroke" data-item-order="0" transform="translate(86, 572.22705078125)"></g><g id="g-root-tx_varyingp_1ut1isulzga2y-stroke" data-item-order="0" transform="translate(290, 578.22705078125)"></g></g></g><path id="w958vi6j77pc0" d="M65.283 12.757a.35.35 0 0 0 .584.157l5.203-5.141-6.183 3.523.396 1.461zm-2.216-11.7a.35.35 0 0 0-.522.305v3.111l3.276-1.868-2.754-1.548zm3.728 2.105l-4.25 2.421v2.445l6.391-3.644-2.141-1.222zm4.708 3.303a.35.35 0 0 0 0-.609l-1.592-.9-7.365 4.199v1.782a.35.35 0 0 0 .523.305l8.435-4.777z M44.542 2.513c0-.433.355-.783.792-.783s.792.35.792.783-.355.783-.792.783-.792-.35-.792-.783zm59.171 0c0-.433.355-.783.792-.783s.792.35.792.783-.355.783-.792.783-.792-.35-.792-.783zm-85.951 7.636h-1.27v-.487c-.276.201-.864.609-1.881.609-1.202 0-2.274-.794-2.137-2.078.118-1.106 1.153-1.584 1.848-1.727l2.17-.345c0-.539-.29-.956-1.064-1.006s-1.21.305-1.571 1.017l-1.124-.605c1.218-2.631 5.029-1.764 5.029.414v4.207zm-1.27-2.86c.006.396-.062 1.112-.819 1.59-.587.37-1.841.299-1.903-.395-.049-.555.461-.791.906-.898l1.816-.297zm72.662 2.86h-1.27v-.487c-.276.201-.864.609-1.881.609-1.202 0-2.274-.794-2.137-2.078.118-1.106 1.153-1.584 1.848-1.727l2.17-.345c0-.539-.29-.956-1.064-1.006s-1.21.305-1.571 1.017l-1.124-.605c1.218-2.631 5.029-1.764 5.029.414v4.207zm-1.27-2.86c.006.396-.062 1.112-.82 1.59-.587.37-1.841.299-1.903-.395-.049-.555.461-.791.906-.898l1.816-.297zM99.096 10.149H97.85v-8.45h1.246v4.895l2.68-2.559h1.738l-2.633 2.535 2.715 3.578h-1.556l-2.077-2.707-.867.844v1.863zm6.053-6.114h-1.255v6.113h1.255V4.035zm-59.2 0h-1.255v6.113h1.255V4.035zm5.584 6.113V1.697h1.255v2.695c.361-.346 1-.485 1.47-.485 1.452 0 2.477 1.082 2.457 2.448v3.792h-1.27v-3.68c0-.408-.214-1.339-1.315-1.339-.968 0-1.342.756-1.342 1.339v3.681h-1.255zm-4.76-4.894V4.039h.621a.45.45 0 0 0 .45-.45v-.855h1.251v1.305h1.309v1.215h-1.309v3.109c0 .293.105.664.648.664.365 0 .531-.035.736-.07v1.137s-.361.113-.857.113c-1.398 0-1.777-1.051-1.777-1.788V5.254h-1.071zM36.528 4.039h-1.394l2.191 6.106h1.125l1.234-3.918 1.238 3.918h1.129l2.188-6.106h-1.383l-1.359 3.93-1.256-3.93h-1.124l-1.242 3.957-1.348-3.957zM26.212 7.141c-.02 1.566 1.187 3.129 3.223 3.129 1.566 0 2.383-.918 2.734-1.719L31.172 8c-.315.399-.801 1.094-1.738 1.094-1.145 0-1.825-.781-1.891-1.52h4.625c.074-.284.148-.995-.03-1.559-.336-1.064-1.221-2.102-2.839-2.102s-3.088 1.152-3.088 3.227zm1.363-.75h3.348c-.055-.43-.566-1.301-1.623-1.301a1.79 1.79 0 0 0-1.725 1.301zm-8.758.75c.038 1.758 1.277 3.133 3.145 3.133 1.074 0 1.723-.477 1.961-.672v.547h1.242V1.703h-1.258v2.888c-.414-.36-1.062-.68-1.93-.68-1.91 0-3.198 1.473-3.16 3.23zm1.309-.08c0 1.119.723 1.978 1.836 1.978a1.88 1.88 0 0 0 1.94-1.904c0-1.371-1.011-1.99-1.972-1.99s-1.805.798-1.805 1.916zm76.683-.028C96.771 5.275 95.532 3.9 93.664 3.9c-1.074 0-1.723.477-1.961.672v-.547h-1.242v8.22h1.258V9.583c.414.36 1.063.68 1.93.68 1.91 0 3.198-1.473 3.16-3.23zm-1.309.08c0-1.119-.723-1.978-1.836-1.978a1.88 1.88 0 0 0-1.94 1.904c0 1.371 1.011 1.99 1.972 1.99S95.5 8.231 95.5 7.113zM106.441 10.173V4.036h1.254v.382c.361-.346 1-.485 1.47-.485 1.452 0 2.477 1.082 2.457 2.448v3.792h-1.27V6.492c0-.408-.214-1.339-1.315-1.339-.969 0-1.342.756-1.342 1.339v3.681h-1.254zm-30.383-.021V1.824h1.084l4.215 5.777V1.824h1.32v8.328h-1.094l-4.207-5.796v5.796h-1.319zM5.24 10.149H4V2.377h1.014l2.664 3.597 2.654-3.592h1.03v7.766h-1.256V4.762L7.678 8.068 5.24 4.742v5.407z" transform="translate(884, 686.22705078125)" fill="#ababab88" stroke="none"></path></svg>